<svg width="40" height="40" viewBox="0 0 39 32" fill="none" xmlns="http://www.w3.org/2000/svg">
  <mask id="mask0_12_3784" style="mask-type:alpha" maskUnits="userSpaceOnUse" x="0" y="0" width="39" height="32">
    <path d="M38.5778 0H0V32H38.5778V0Z" fill="white" />
  </mask>
  <g mask="url(#mask0_12_3784)">
    <path d="M0.151855 -2.74219H38.4526V17.9337L36.5568 20.8959L38.4526 23.5322V35.5586H0.151855V16.0675L1.33672 14.7049L0.151855 13.4016V-2.74219Z" fill="#016FD0" />
  </g>
  <path d="M7.58691 23.9463V17.9331H13.9538L14.6369 18.8236L15.3425 17.9331H38.4526V23.5316C38.4526 23.5316 37.8483 23.9403 37.1493 23.9463H24.3527L23.5826 22.9984V23.9463H21.0588V22.3282C21.0588 22.3282 20.7141 22.5541 19.9687 22.5541H19.1097V23.9463H15.2885L14.6064 23.0367L13.9138 23.9463H7.58691Z" fill="white" />
  <path d="M0.151855 13.4012L1.58761 10.054H4.07058L4.88539 11.9289V10.054H7.97196L8.45701 11.4091L8.92726 10.054H22.7828V10.7353C22.7828 10.7353 23.5111 10.054 24.7082 10.054L29.2038 10.0697L30.0045 11.9201V10.054H32.5875L33.2984 11.1169V10.054H35.9051V16.0671H33.2984L32.6171 15.0008V16.0671H28.8221L28.4405 15.1192H27.4203L27.0448 16.0671H24.4712C23.4412 16.0671 22.7828 15.3998 22.7828 15.3998V16.0671H18.9023L18.1322 15.1192V16.0671H3.70275L3.32137 15.1192H2.3044L1.92571 16.0671H0.151855V13.4012Z" fill="white" />
  <path d="M2.09569 10.7949L0.15918 15.2974H1.41995L1.77726 14.3958H3.85448L4.20993 15.2974H5.49847L3.56381 10.7949H2.09569ZM2.81216 11.8428L3.44533 13.4183H2.17715L2.81216 11.8428Z" fill="#016FD0" />
  <path d="M5.63184 15.2967V10.7942L7.42346 10.8008L8.46553 13.7038L9.48264 10.7942H11.2599V15.2967H10.1343V11.9791L8.94114 15.2967H7.95397L6.75746 11.9791V15.2967H5.63184Z" fill="#016FD0" />
  <path d="M12.0303 15.2967V10.7942H15.7034V11.8013H13.1677V12.5715H15.6441V13.5194H13.1677V14.3192H15.7034V15.2967H12.0303Z" fill="#016FD0" />
  <path d="M16.355 10.7949V15.2974H17.4806V13.6978H17.9545L19.3042 15.2974H20.6797L19.1987 13.6386C19.8065 13.5873 20.4335 13.0656 20.4335 12.2556C20.4335 11.3082 19.6898 10.7949 18.8599 10.7949H16.355ZM17.4806 11.8021H18.7673C19.0759 11.8021 19.3005 12.0435 19.3005 12.276C19.3005 12.5751 19.0096 12.7499 18.784 12.7499H17.4806V11.8021Z" fill="#016FD0" />
  <path d="M22.0419 15.2967H20.8926V10.7942H22.0419V15.2967Z" fill="#016FD0" />
  <path d="M24.767 15.2967H24.519C23.3186 15.2967 22.5898 14.351 22.5898 13.0639C22.5898 11.7451 23.3105 10.7942 24.8263 10.7942H26.0704V11.8606H24.7808C24.1655 11.8606 23.7303 12.3408 23.7303 13.0751C23.7303 13.947 24.2279 14.3132 24.9448 14.3132H25.241L24.767 15.2967Z" fill="#016FD0" />
  <path d="M27.2168 10.7949L25.2803 15.2974H26.541L26.8984 14.3958H28.9756L29.331 15.2974H30.6196L28.6849 10.7949H27.2168ZM27.9333 11.8428L28.5664 13.4183H27.2982L27.9333 11.8428Z" fill="#016FD0" />
  <path d="M30.7505 15.2967V10.7942H32.1816L34.0089 13.6231V10.7942H35.1345V15.2967H33.7497L31.8761 12.3938V15.2967H30.7505Z" fill="#016FD0" />
  <path d="M8.35693 23.1761V18.6736H12.03V19.6807H9.4944V20.4509H11.9708V21.3988H9.4944V22.1986H12.03V23.1761H8.35693Z" fill="#016FD0" />
  <path d="M26.355 23.1761V18.6736H30.0281V19.6807H27.4925V20.4509H29.957V21.3988H27.4925V22.1986H30.0281V23.1761H26.355Z" fill="#016FD0" />
  <path d="M12.1725 23.1761L13.9609 20.9526L12.1299 18.6736H13.548L14.6385 20.0825L15.7326 18.6736H17.0952L15.2883 20.9248L17.08 23.1761H15.6621L14.6033 21.7894L13.5702 23.1761H12.1725Z" fill="#016FD0" />
  <path d="M17.2139 18.6743V23.1768H18.3691V21.755H19.554C20.5565 21.755 21.3165 21.2231 21.3165 20.1887C21.3165 19.3319 20.7204 18.6743 19.7002 18.6743H17.2139ZM18.3691 19.6926H19.6169C19.9408 19.6926 20.1723 19.8911 20.1723 20.2109C20.1723 20.5114 19.942 20.7293 19.6132 20.7293H18.3691V19.6926Z" fill="#016FD0" />
  <path d="M21.8052 18.6736V23.1761H22.9308V21.5765H23.4047L24.7544 23.1761H26.1299L24.6489 21.5173C25.2567 21.466 25.8837 20.9443 25.8837 20.1343C25.8837 19.1868 25.14 18.6736 24.3101 18.6736H21.8052ZM22.9308 19.6807H24.2175C24.5261 19.6807 24.7507 19.9222 24.7507 20.1547C24.7507 20.4538 24.4598 20.6286 24.2341 20.6286H22.9308V19.6807Z" fill="#016FD0" />
  <path d="M30.5497 23.1761V22.1986H32.8024C33.1357 22.1986 33.28 22.0184 33.28 21.8209C33.28 21.6316 33.1362 21.4402 32.8024 21.4402H31.7844C30.8995 21.4402 30.4067 20.9011 30.4067 20.0917C30.4067 19.3698 30.858 18.6736 32.1729 18.6736H34.3649L33.891 19.6866H31.9952C31.6328 19.6866 31.5213 19.8768 31.5213 20.0584C31.5213 20.245 31.6591 20.4509 31.936 20.4509H33.0023C33.9887 20.4509 34.4168 21.0104 34.4168 21.7431C34.4168 22.5309 33.9398 23.1761 32.9486 23.1761H30.5497Z" fill="#016FD0" />
  <path d="M34.6805 23.1761V22.1986H36.9332C37.2666 22.1986 37.4109 22.0184 37.4109 21.8209C37.4109 21.6316 37.267 21.4402 36.9332 21.4402H35.9153C35.0304 21.4402 34.5376 20.9011 34.5376 20.0917C34.5376 19.3698 34.9889 18.6736 36.3038 18.6736H38.4958L38.0218 19.6866H36.1261C35.7637 19.6866 35.6521 19.8768 35.6521 20.0584C35.6521 20.245 35.79 20.4509 36.0668 20.4509H37.1332C38.1196 20.4509 38.5476 21.0104 38.5476 21.7431C38.5476 22.5309 38.0707 23.1761 37.0795 23.1761H34.6805Z" fill="#016FD0" />
</svg>