<svg viewBox="0 0 37 37" fill="none" xmlns="http://www.w3.org/2000/svg">
  <path d="M18.6367 36.1218C28.5778 36.1218 36.6367 28.063 36.6367 18.1218C36.6367 8.1807 28.5778 0.121826 18.6367 0.121826C8.69559 0.121826 0.636719 8.1807 0.636719 18.1218C0.636719 28.063 8.69559 36.1218 18.6367 36.1218Z" fill="#4D4D4D" />
  <path d="M10.3502 18.1217L6.93205 21.5369L3.51691 18.1217L6.93205 14.7066L10.3502 18.1217ZM18.6369 9.82905L24.4893 15.6844L27.9045 12.2693L18.6369 3.00171L9.36933 12.2693L12.7845 15.6844L18.6369 9.82905ZM30.3447 14.7066L26.9296 18.1217L30.3447 21.5369L33.7569 18.1217L30.3447 14.7066ZM18.6369 26.4144L12.7845 20.5619L9.36933 23.9741L18.6369 33.2417L27.9045 23.9741L24.4893 20.5619L18.6369 26.4144ZM18.6369 21.5369L22.0521 18.1217L18.6369 14.7066L15.2218 18.1217L18.6369 21.5369Z" fill="#F3BA2F" />
</svg>