<svg width="500" height="500" viewBox="0 0 434 500" fill="#f0b90b" version="1.1" xmlns="http://www.w3.org/2000/svg">
  <path d=" M 216.29 0.00 L 217.72 0.00 C 260.92 24.96 304.10 49.95 347.30 74.91 C 332.82 83.26 318.41 91.75 303.83 99.90 C 301.95 99.43 300.38 98.15 298.69 97.24 C 271.47 81.51 244.23 65.80 217.00 50.09 C 188.08 66.74 159.22 83.51 130.26 100.09 C 117.55 92.69 104.78 85.37 92.03 78.03 C 90.34 76.99 88.37 76.25 87.04 74.72 C 130.12 49.82 173.20 24.89 216.29 0.00 Z" />
  <path d=" M 3.14 123.10 C 16.71 115.39 30.16 107.46 43.71 99.71 C 58.20 108.19 72.78 116.49 87.26 124.97 C 72.78 133.43 58.19 141.71 43.72 150.19 C 43.79 166.86 43.70 183.52 43.77 200.19 C 29.16 191.76 14.40 183.55 0.00 174.79 L 0.00 125.91 C 0.49 124.45 1.95 123.85 3.14 123.10 Z" />
  <path d=" M 176.29 123.21 C 189.89 115.43 203.43 107.55 217.00 99.71 C 231.49 108.06 245.93 116.51 260.47 124.78 C 258.81 126.18 256.90 127.19 255.02 128.23 C 242.35 135.55 229.67 142.86 217.00 150.17 C 202.79 141.90 188.46 133.84 174.33 125.46 C 173.04 124.43 175.71 123.81 176.29 123.21 Z" />
  <path d=" M 346.73 124.97 C 361.21 116.48 375.80 108.19 390.28 99.71 C 404.87 108.13 419.48 116.50 434.00 125.02 L 434.00 174.11 C 433.38 175.47 432.02 176.13 430.83 176.87 C 417.25 184.56 403.82 192.52 390.23 200.19 C 390.29 183.50 390.22 166.81 390.26 150.12 C 375.74 141.75 361.22 133.39 346.73 124.97 Z" />
  <path d=" M 86.75 174.93 C 101.24 166.54 115.77 158.21 130.26 149.81 C 159.24 166.35 188.07 183.16 217.00 199.79 C 245.92 183.16 274.78 166.41 303.72 149.80 C 318.22 158.19 332.74 166.54 347.24 174.92 C 347.25 191.64 347.25 208.36 347.24 225.07 C 318.32 241.81 289.36 258.47 260.46 275.24 C 260.56 308.58 260.46 341.91 260.51 375.25 C 246.01 383.63 231.50 391.99 217.00 400.36 C 202.50 391.98 187.97 383.65 173.49 375.23 C 173.54 341.90 173.44 308.57 173.54 275.24 C 144.64 258.46 115.68 241.81 86.76 225.07 C 86.75 208.36 86.75 191.64 86.75 174.93 Z" />
  <path d=" M 0.00 224.93 C 14.81 232.74 29.00 241.69 43.67 249.78 C 43.86 283.18 43.69 316.59 43.75 349.99 C 72.67 366.68 101.58 383.37 130.50 400.07 C 130.49 416.85 130.52 433.63 130.48 450.41 C 86.91 425.51 43.62 400.10 0.00 375.29 L 0.00 224.93 Z" />
  <path d=" M 390.20 250.01 C 404.77 241.59 419.20 232.89 434.00 224.89 L 434.00 375.10 C 390.54 400.27 347.06 425.39 303.52 450.41 C 303.48 433.63 303.51 416.84 303.51 400.06 C 332.42 383.37 361.34 366.69 390.25 349.99 C 390.22 316.66 390.32 283.33 390.20 250.01 Z" />
  <path d=" M 86.78 274.80 C 101.38 283.15 115.94 291.59 130.50 300.03 C 130.51 316.89 130.49 333.74 130.51 350.60 C 115.91 342.19 101.30 333.79 86.74 325.31 C 86.79 308.47 86.71 291.63 86.78 274.80 Z" />
  <path d=" M 303.50 299.99 C 318.05 291.63 332.62 283.30 347.20 275.00 C 347.32 291.77 347.19 308.54 347.27 325.31 C 332.71 333.72 318.11 342.06 303.52 350.40 C 303.48 333.60 303.51 316.79 303.50 299.99 Z" />
  <path d=" M 173.48 424.91 C 188.01 433.24 202.51 441.62 217.00 450.01 C 231.50 441.64 245.96 433.20 260.52 424.92 C 260.48 441.72 260.50 458.52 260.51 475.32 C 246.26 483.56 232.01 491.81 217.72 500.00 L 216.28 500.00 C 202.00 491.82 187.76 483.56 173.50 475.33 C 173.49 458.52 173.52 441.72 173.48 424.91 Z" />
</svg>