<svg width="22" height="22" viewBox="0 0 22 22" fill="none" xmlns="http://www.w3.org/2000/svg">
<g clip-path="url(#clip0_27_6061)">
<path fill-rule="evenodd" clip-rule="evenodd" d="M5 18.3C5.2 18.4 5.4 18.4 5.5 18.3L11.2 14.9H11.3C13 14.9 14.7 14.7 16.5 14.5C17.9 14.3 19 13.3 19.2 11.9C19.4 10.6 19.5 9.3 19.5 8C19.5 6.7 19.4 5.4 19.2 4.1C19 2.7 17.9 1.7 16.5 1.5C15.2 1.2 13.1 1 10.8 1C8.5 1 6.4 1.2 5.1 1.4C3.6 1.7 2.6 2.7 2.3 4.1C2.1 5.4 2 6.7 2 8C2 9.3 2.1 10.6 2.3 11.9C2.5 13.1 3.3 14 4.5 14.4L4.8 14.5V17.9C4.8 18 4.9 18.2 5 18.3ZM3.4 11.7C3.2 10.4 3.1 9.2 3.1 8C3.1 6.8 3.2 5.5 3.4 4.3C3.6 3.4 4.3 2.7 5.2 2.6C6.5 2.4 8.5 2.2 10.8 2.2C13 2.2 15.1 2.4 16.4 2.6C17.4 2.7 18.1 3.4 18.2 4.3C18.4 5.5 18.5 6.8 18.5 8C18.5 9.2 18.4 10.5 18.2 11.7C18 12.6 17.3 13.3 16.4 13.4C14.7 13.7 13 13.8 11.4 13.8H11L5.9 16.8V13.6L4.9 13.3C4.1 13.1 3.5 12.4 3.4 11.7Z" fill="black"/>
<path d="M15.4 5.6H6.19995C5.89995 5.6 5.69995 5.8 5.69995 6.1C5.69995 6.4 5.89995 6.6 6.19995 6.6H15.4C15.7 6.6 15.9 6.4 15.9 6.1C15.9 5.8 15.7 5.6 15.4 5.6Z" fill="black"/>
<path d="M6.19995 10.3H9.89995C10.2 10.3 10.4 10.1 10.4 9.8C10.4 9.5 10.2 9.2 9.89995 9.2H6.19995C5.89995 9.2 5.69995 9.4 5.69995 9.7C5.69995 10 5.89995 10.3 6.19995 10.3Z" fill="black"/>
</g>
<defs>
<clipPath id="clip0_27_6061">
<rect width="17.6" height="17.4" fill="white" transform="translate(2 1)"/>
</clipPath>
</defs>
</svg>
