<svg width="24" height="24" viewBox="0 0 24 24" fill="none" xmlns="http://www.w3.org/2000/svg">
<path d="M12 24C18.6274 24 24 18.6274 24 12C24 5.37258 18.6274 0 12 0C5.37258 0 0 5.37258 0 12C0 18.6274 5.37258 24 12 24Z" fill="black"/>
<path d="M11.9998 3L7.2 5.83846L8.96457 6.88673L11.9998 5.09699L15.035 6.88673L16.8 5.83846L11.9998 3ZM15.0354 8.36922L16.7995 9.41794V11.5154L13.7643 13.3051V16.8846L12.0002 17.9333L10.2352 16.8846V13.3051L7.2 11.5154V9.41794L8.96457 8.36922L11.9998 10.1594L15.035 8.36922H15.0354Z" fill="#F0B90B"/>
<path d="M16.8 12.5996V14.7334L14.6667 15.7996V13.6667L16.7994 12.6001L16.8 12.5996Z" fill="#F0B90B"/>
<path d="M15.0877 17.2317L18.1938 15.4441V11.8691L20 10.8217V16.4916L15.0882 19.3265V17.2317H15.0877ZM18.1942 8.29407L16.388 7.24664L18.1942 6.19922L19.9995 7.24664V9.34103L18.1942 10.3885V8.29407ZM10.194 20.0847V17.9907L11.9998 19.0382L13.806 17.9907V20.0851L11.9998 21.1326L10.1945 20.0851L10.194 20.0847ZM8.89374 15.751L7.08798 14.7045V12.6097L8.89374 13.6571V15.7515V15.751ZM11.9998 8.29407L10.1945 7.24664L11.9998 6.19922L13.806 7.24664L11.9998 8.29407ZM7.61151 7.24664L5.80622 8.29407V10.3885L4 9.34103V7.24664L5.80576 6.19922L7.61151 7.24664Z" fill="#F0B90B"/>
<path d="M4 10.4673L5.96073 11.5181V15.105L9.33333 16.8984V19.0001L4 16.1554V10.4668V10.4673Z" fill="#F0B90B"/>
</svg>
