<svg width="473" height="453" viewBox="0 0 473 453" fill="none"><g clip-path="url(#clip0_104_2)"><path d="M472 234.3C470.7 242.9 466.6 250.9 460.4 257.5C447.7 271 440.4 287.1 437.3 305.2C436 312.7 435.9 320.4 435.2 328L435.6 332.5C436 343.6 435.3 354.4 428.2 363.8C420.3 374.3 410.4 380.9 397.2 383.4C382.3 386.2 369.4 393.9 357.6 403.4C348.5 410.6 341.2 419.2 335.3 429.2C325 446.7 309.1 454.7 289 452.7C282.7 452.1 276.7 448.2 270.3 446.5C262.4 444.3 254.3 441.6 246.2 441.3C235.2 440.8 224 442 213 443.2C207.9 443.8 202.7 445.7 198 448C175 459.7 148.8 450.2 137.1 429C128.9 414.1 116.5 403.6 102.6 394.6C91.6001 387.5 79.1001 384.4 66.6001 381C47.8001 375.7 34.1001 352.9 36.8001 333.4C38.8001 319.6 36.4001 306 32.2001 292.7C27.5001 277.6 18.7001 265.2 8.90006 253.1C-4.09994 237.2 -3.09994 212.4 10.7001 197.3C22.9001 183.9 30.6001 168.4 34.9001 151.1C37.7001 139.7 37.5001 128.2 36.6001 116.5C35.5001 102.1 41.4001 90.0998 52.1001 80.2998C60.1001 72.9998 70.1001 71.0998 80.0001 68.1998C100.2 62.3998 116.7 50.5998 130 34.3998C133.6 29.8998 136.4 24.7998 139.7 19.9998C150.7 3.99981 166.4 -1.60019 185 0.39981C189.6 0.89981 194.1 3.19981 198.4 5.09981C207.9 9.29981 217.9 11.5998 228.2 12.0998C245 13.0998 261.2 10.8998 276.8 4.09981C281.9 1.89981 287.8 0.39981 293.4 0.19981C311.7 -0.40019 325.8 7.69981 334.9 23.4998C343.9 39.0998 356.8 50.4998 372 59.3998C381 64.6998 390.7 68.2998 401.2 70.2998C411.9 72.3998 420.4 78.7998 427 87.6998C427.7 88.5998 430.2 93.3998 431 94.2998C435.1 102.2 436.2 110.4 435.5 119.3C433.2 147.9 440.9 173.6 460.1 195.3C470.4 206.6 474.2 219.8 472 234.3Z" fill="#0AD1D3"></path><path d="M366.6 140C371.2 144.6 375.5 149.5 380.4 153.7C383.7 156.6 383.9 158.3 380.7 161.5C355.9 185.9 331.3 210.5 306.6 235.1C271.9 269.6 237.2 304.2 202.5 338.8C201.3 339.9 200.1 341 198 342.9C196.4 340.9 195.1 338.9 193.5 337.3C160.4 304.4 127.3 271.6 94.2 238.8C88.3 233 88.3 232.9 94.1 227.2C107.2 214.1 120.3 201.1 133.3 187.9C136.1 185.1 137.7 185.1 140.5 187.9C158.6 206 176.9 224 195.2 242C196.3 243 197.4 244 198.8 245.3C200.4 243.9 201.8 242.6 203.2 241.2C245.8 198.7 288.3 156.2 330.9 113.6C335.5 109 335.5 109 340.2 113.6C348.1 121.4 356.1 129.3 364 137.1" fill="#FCFDFE"></path></g><defs><clipPath id="clip0_104_2"><rect width="472.6" height="453" fill="white"></rect></clipPath></defs></svg>