<svg width="25" height="25" viewBox="0 0 32 32" fill="currentColor" xmlns="http://www.w3.org/2000/svg">
  <path d="M0 16C0 7.178 7.178 0 16 0C24.822 0 32 7.178 32 16C32 24.822 24.822 32 16 32C7.178 32 0 24.822 0 16ZM2 16C2 23.72 8.28 30 16 30C23.72 30 30 23.72 30 16C30 8.28 23.72 2 16 2C8.28 2 2 8.28 2 16Z" />
  <path d="M21.293 9.29297L16 14.586L10.707 9.29297L9.29297 10.707L14.586 16L9.29297 21.293L10.707 22.707L16 17.414L21.293 22.707L22.707 21.293L17.414 16L22.707 10.707L21.293 9.29297Z" />
</svg>