<svg width="183pt" height="183pt" viewBox="0 0 183 183" version="1.1" fill="currentColor" xmlns="http://www.w3.org/2000/svg">
  <path d=" M 86.47 24.61 C 95.92 23.33 106.67 25.23 113.37 32.53 C 120.03 39.88 121.33 50.53 120.05 60.02 C 118.65 69.71 115.98 79.83 109.27 87.27 C 102.82 94.52 91.75 96.65 82.86 93.08 C 76.49 90.64 71.82 85.09 68.97 79.06 C 65.43 71.56 63.75 63.29 63.28 55.05 C 62.98 46.56 65.10 37.39 71.48 31.38 C 75.50 27.44 81.00 25.45 86.47 24.61 Z" />
  <path d=" M 66.47 87.48 C 68.05 88.52 69.11 90.20 70.50 91.47 C 79.64 100.56 94.80 102.26 106.04 96.20 C 110.16 94.13 113.42 90.80 116.39 87.34 C 121.80 89.96 127.81 91.10 133.08 93.99 C 139.01 97.35 141.84 104.08 143.50 110.37 C 145.74 120.09 147.36 130.03 147.57 140.02 C 147.86 143.57 145.76 147.09 142.40 148.34 C 133.65 152.11 124.23 153.92 114.92 155.70 C 104.59 157.41 94.07 158.59 83.59 157.65 C 69.72 156.37 55.84 153.93 42.69 149.25 C 38.94 148.14 35.37 145.22 35.46 140.97 C 35.48 130.91 37.14 120.89 39.30 111.08 C 40.98 104.27 44.10 96.95 50.68 93.59 C 55.74 91.08 61.27 89.66 66.47 87.48 Z" />
</svg>