<svg width="118" height="91" viewBox="0 0 118 91" fill="currentColor" xmlns="http://www.w3.org/2000/svg">
  <path fill-rule="evenodd" clip-rule="evenodd" d="M114.455 0.0458984H3.7753C1.8723 0.0458984 0.331299 1.5989 0.331299 3.5189V86.8819C0.331299 88.8019 1.8723 90.3519 3.7753 90.3519H114.455C116.354 90.3519 117.9 88.7819 117.9 86.8819V3.5189C117.9 1.5989 116.359 0.0458984 114.455 0.0458984ZM7.2203 83.4119V81.3719L45.0523 43.4529L70.2023 75.1619C70.8143 75.9319 71.7263 76.4019 72.7013 76.4519C73.6773 76.5519 74.6393 76.1419 75.3283 75.4419L86.6703 64.0019L105.911 83.4119H7.2203ZM89.1063 56.6419L111.011 78.4919V6.9919H7.2203V71.5519L42.9033 35.7969C43.5923 35.0979 44.5683 34.7689 45.5293 34.7859C46.5053 34.8409 47.4173 35.3119 48.0293 36.0819L73.1793 67.7819L84.2353 56.6419C85.5803 55.2819 87.7603 55.2819 89.1063 56.6419ZM79.7823 41.7259C85.4803 41.7259 90.1153 37.0519 90.1153 31.3059C90.1153 25.5599 85.4803 20.8859 79.7823 20.8859C74.0843 20.8859 69.4483 25.5599 69.4483 31.3059C69.4483 37.0519 74.0843 41.7259 79.7823 41.7259ZM83.2263 31.3059C83.2263 29.3899 81.6823 27.8329 79.7823 27.8329C77.8813 27.8329 76.3373 29.3899 76.3373 31.3059C76.3373 33.2219 77.8813 34.7789 79.7823 34.7789C81.6823 34.7789 83.2263 33.2219 83.2263 31.3059Z" />
</svg>