<svg width="45" height="45" viewBox="0 0 44 32" fill="none" xmlns="http://www.w3.org/2000/svg">
  <path d="M19.5742 0H24.7633C24.7633 0 27.4564 -1.57958e-07 29.8211 1.78882C29.8211 1.78882 33.4338 3.97516 33.4994 8.87785C33.4994 8.87785 33.7622 13.0518 29.8868 15.9006C29.8868 15.9006 27.9819 17.5569 24.6976 17.8219H19.5742C19.5742 17.8219 16.0272 17.8219 13.3998 14.8406C13.3998 14.8406 11.1008 12.323 11.1665 8.87785C11.1665 8.87785 11.0351 5.23395 13.6625 2.58385C13.6625 2.6501 15.8301 0.198758 19.5742 0Z" fill="#0078BD" />
  <path d="M20.7742 17.0655C25.2573 16.6896 28.5894 12.7193 28.2167 8.19752C27.8441 3.67575 23.9077 0.314839 19.4247 0.69072C14.9416 1.0666 11.6095 5.03693 11.9822 9.5587C12.3548 14.0805 16.2912 17.4414 20.7742 17.0655Z" fill="white" />
  <path d="M18.2605 4.04141V13.648C18.2605 13.648 14.9762 12.5217 14.9762 8.67909C14.9762 8.74534 14.9105 5.49896 18.2605 4.04141Z" fill="#0078BD" />
  <path d="M21.9388 4.04141V13.648C21.9388 13.648 25.2231 12.5217 25.2231 8.67909C25.2231 8.74534 25.2888 5.49896 21.9388 4.04141Z" fill="#0078BD" />
  <path d="M0.591166 25.9048C0.919592 25.706 0.853907 25.176 0.853907 25.176V20.6708C0.853907 20.1408 0.656852 20.1408 0.656852 20.1408C0.591167 20.0083 0 19.942 0 19.942V19.7433H2.89015C6.43715 19.942 6.43715 22.9896 6.43715 22.9896C6.24009 26.4348 2.89015 26.236 2.89015 26.236H0V26.0373C0.525481 26.0373 0.591166 25.9048 0.591166 25.9048ZM1.7735 20.0745V25.176C1.7735 25.176 1.70781 25.9048 2.49604 25.971C2.49604 25.971 5.45187 26.3023 5.38618 22.7909C5.38618 22.7909 5.45187 21.0683 3.74405 20.2733C3.80974 20.2733 3.02152 19.8758 1.7735 20.0745Z" fill="black" />
  <path d="M8.21065 20.0745C8.21065 19.8095 8.01359 19.6108 7.75085 19.6108C7.48811 19.6108 7.29105 19.8095 7.29105 20.0745C7.29105 20.3395 7.48811 20.5383 7.75085 20.5383C8.01359 20.5383 8.21065 20.3395 8.21065 20.0745Z" fill="black" />
  <path d="M6.89694 22.3934L7.94791 22.0621C7.94791 22.0621 8.14496 21.9296 8.14496 22.2609V25.7723C8.14496 25.7723 8.14496 26.1035 8.4077 26.1035H8.73613V26.3023H6.76557V26.0373H7.15968C7.15968 26.0373 7.42242 25.971 7.35674 25.706V23.0559C7.35674 23.0559 7.35674 22.6584 6.89694 22.5259V22.3934Z" fill="black" />
  <path d="M9.13024 22.4596V22.6584C9.13024 22.6584 9.72141 22.7909 9.65572 23.1884V25.7723C9.65572 25.7723 9.65572 26.0373 9.39298 26.0373H9.06455V26.3023H11.0351V26.0373H10.7067C10.7067 26.0373 10.4439 26.0373 10.4439 25.7723V22.9896C10.4439 22.9896 11.1665 22.4596 11.6263 22.5259C11.6263 22.5259 12.2831 22.5259 12.3488 23.2547V25.7723C12.3488 25.7723 12.3488 26.1035 12.0861 26.1035H11.7576V26.3023H13.7282V26.0373H13.3998C13.3998 26.0373 13.137 26.1035 13.0714 25.706V23.2547C13.0714 23.2547 13.137 22.0621 12.1518 21.9296C12.1518 21.9296 11.4292 21.7308 10.3783 22.5921V21.8634C10.3783 21.9959 9.19592 22.3934 9.13024 22.4596Z" fill="black" />
  <path d="M14.7792 25.3747C15.1076 25.9048 15.7644 25.9048 15.7644 25.9048C16.4213 25.9048 17.0781 25.2422 17.0781 25.2422L17.2095 25.3747C16.3556 26.5673 15.436 26.4348 15.436 26.4348C13.3341 26.3685 13.7282 23.8509 13.7282 23.8509C14.0566 21.9296 15.6331 21.9296 15.6331 21.9296C17.2095 22.0621 17.1438 23.4534 17.1438 23.4534C17.1438 23.6522 16.9468 23.6522 16.9468 23.6522H14.4507C14.3194 24.8447 14.7792 25.3747 14.7792 25.3747ZM14.4507 23.3872H16.0929C16.0929 23.3872 16.4213 23.3872 16.3556 23.0559C16.3556 23.0559 16.2899 22.2609 15.5017 22.2609C15.5017 22.2609 14.5821 22.3271 14.4507 23.3872Z" fill="black" />
  <path d="M17.5379 22.5259V22.6584C17.5379 22.6584 17.9977 22.8571 17.9977 23.0559V25.7723C17.9977 25.7723 17.9977 26.0373 17.735 26.0373H17.2752V26.3023H19.7056V26.0373H19.0487C19.0487 26.0373 18.7203 26.0373 18.786 25.706V23.5197C18.786 23.5197 18.7203 22.9896 19.4428 22.7909C19.4428 22.7909 19.6399 22.7246 19.8369 22.9234C19.8369 22.9234 20.3624 23.1884 20.5595 22.5259C20.5595 22.5259 20.6251 22.1946 20.2967 22.0621C20.2967 22.0621 19.9026 21.8634 19.4428 22.1946C19.4428 22.1946 19.1801 22.3271 18.786 22.9234V22.0621C18.786 22.0621 18.786 21.7971 18.5889 21.9959C18.5232 22.0621 17.6036 22.5259 17.5379 22.5259Z" fill="black" />
  <path d="M23.1212 23.2547H23.3182L23.2526 22.3271C23.2526 22.3271 22.333 21.7309 21.4791 22.1946C21.4791 22.1946 20.7565 22.5259 20.7565 23.2547C20.7565 23.2547 20.6908 23.9172 21.4134 24.3147L22.2016 24.7122C22.2016 24.7122 22.8584 24.9772 22.7928 25.5735C22.7928 25.5735 22.7928 26.1698 22.0702 26.1698C22.0702 26.1698 21.1506 26.236 20.8879 25.0435L20.6908 25.1097L20.8222 26.1698C20.8222 26.1698 21.4791 26.501 21.9388 26.501C21.9388 26.501 23.5153 26.5673 23.5153 25.176C23.5153 25.176 23.581 24.4472 22.7271 24.1159L21.8075 23.6522C21.8075 23.6522 21.3477 23.3872 21.4134 22.9234C21.4134 22.9234 21.479 22.3271 22.2016 22.3934C22.2673 22.2609 23.0555 22.2609 23.1212 23.2547Z" fill="black" />
  <path d="M31.7259 21.4658H31.9887L31.923 20.1408C31.923 20.1408 29.6897 19.0145 27.9819 20.0745C27.9819 20.0745 26.2084 20.9358 26.2084 22.9896C26.2084 22.9896 26.077 24.911 27.7848 25.971C27.7848 25.971 29.427 27.0973 31.7916 25.971L31.9887 24.5797L31.7916 24.5135C31.7916 24.5135 31.5289 26.0373 29.9524 26.1035C29.9524 26.1035 28.7044 26.1698 27.7848 24.911C27.7848 24.911 27.0623 23.9834 27.128 22.6584C27.128 22.6584 27.128 21.0021 28.376 20.2733C28.376 20.2733 29.0328 19.8095 29.8211 19.8758C29.8211 19.8758 31.5289 19.8095 31.7259 21.4658Z" fill="black" />
  <path d="M32.4485 19.6108V19.7433C32.4485 19.7433 32.974 19.8095 32.974 20.3395V25.7723C32.974 25.7723 32.974 26.0373 32.7112 26.0373H32.3171V26.3023H34.2877V26.0373H33.9592C33.9592 26.0373 33.6965 26.0373 33.6965 25.706V19.2795C33.6965 19.2795 33.6965 19.0145 33.5651 19.147C33.4994 19.147 32.8426 19.4783 32.4485 19.6108Z" fill="black" />
  <path d="M34.2877 22.1946L35.4043 22.1284C35.4043 22.1284 35.6014 22.0621 35.6014 22.3271V24.911C35.6014 24.911 35.47 25.9048 36.3896 25.9048C36.3896 25.9048 36.7837 25.9048 37.5719 25.3085V22.7909C37.5719 22.7909 37.5062 22.5921 36.7837 22.4596V22.3271L38.0974 22.1946C38.0974 22.1946 38.2945 22.0621 38.2945 22.3271V25.7723C38.2945 25.7723 38.2288 25.971 38.4915 25.971H38.8856V26.1698C38.8856 26.1698 37.7033 26.3685 37.5062 26.501V25.706C37.5062 25.706 36.521 26.5673 35.7984 26.4348C35.7984 26.4348 34.8788 26.4348 34.8131 25.3085V22.7246C34.8131 22.7246 34.8131 22.3271 34.2877 22.3271V22.1946Z" fill="black" />
  <path d="M39.4768 26.3023L39.2797 26.1698C39.2797 26.1698 39.4111 25.706 39.4111 24.646V20.2733C39.4111 20.2733 39.3454 19.8095 38.9513 19.8095V19.6108C38.9513 19.6108 39.4111 19.4783 40.0023 19.147C40.0023 19.147 40.1993 19.0145 40.1993 19.2795V22.5921C40.1993 22.5921 41.316 21.4658 42.4326 22.1946C42.4326 22.1946 43.2865 22.6584 43.2865 23.9172C43.2865 23.9172 43.2865 26.236 41.0532 26.4348C41.0532 26.4348 40.265 26.4348 39.7395 26.1035L39.4768 26.3023ZM40.1336 22.9234V25.1097C40.1336 25.1097 40.1993 26.1035 41.0532 26.1035C41.0532 26.1035 42.3669 26.236 42.4983 24.3147C42.4983 24.3147 42.4983 22.6584 41.0532 22.4596C41.0532 22.5259 40.6591 22.3934 40.1336 22.9234Z" fill="black" />
  <path d="M0 28.2899H1.57644V28.4886H1.37939C1.37939 28.4886 1.11665 28.4886 1.11665 28.7536V31.47C1.11665 31.47 1.05096 31.735 1.3137 31.735H1.51076V31.9337H0V31.735H0.197055C0.197055 31.735 0.394111 31.735 0.394111 31.47V28.7536C0.394111 28.7536 0.328426 28.4886 0.13137 28.5549H0V28.2899Z" fill="black" />
  <path d="M28.8358 28.2899V28.4886H28.6387C28.6387 28.4886 28.376 28.4886 28.376 28.7536V31.47C28.376 31.47 28.3103 31.735 28.573 31.735H28.7701V31.9337H27.1937V31.735H27.3907C27.3907 31.735 27.5878 31.735 27.5878 31.47V28.7536C27.5878 28.7536 27.5221 28.4886 27.325 28.5549H27.128V28.2899H28.8358Z" fill="black" />
  <path d="M1.70781 28.2899H2.75878L4.99207 30.8075V28.8861C4.99207 28.8861 4.99207 28.5549 4.72933 28.4886H4.46659V28.2899H5.84598V28.4886H5.64892C5.64892 28.4886 5.3205 28.4224 5.3205 28.8861V31.47C5.3205 31.47 5.3205 31.8012 5.3205 31.9337H5.05776L2.49604 29.0849V31.205C2.49604 31.205 2.43035 31.6687 2.75878 31.6687H3.0872V31.8675H1.70781V31.6687H1.90487C1.90487 31.6687 2.16761 31.6687 2.2333 31.205V28.8861C2.2333 28.8861 2.16761 28.5549 1.90487 28.4886H1.70781V28.2899Z" fill="black" />
  <path d="M17.4066 28.2899L19.6399 30.8075V28.8861C19.6399 28.8861 19.6399 28.5549 19.3771 28.4886H19.1144V28.2899H20.4938V28.4886H20.2967C20.2967 28.4886 19.9683 28.4224 19.9683 28.8861V31.47C19.9683 31.47 19.9683 31.8012 19.9683 31.9337H19.7056L17.1438 29.0849V31.205C17.1438 31.205 17.0781 31.6687 17.4066 31.6687H17.6693V31.8675H16.2899V31.6687H16.487C16.487 31.6687 16.7497 31.6687 16.8154 31.205V28.8861C16.8154 28.8861 16.7497 28.5549 16.487 28.4886H16.2899V28.2899H17.4066Z" fill="black" />
  <path d="M33.8936 28.2899L36.1268 30.8075V28.8861C36.1268 28.8861 36.1268 28.5549 35.8641 28.4886H35.6014V28.2899H36.9808V28.4886H36.7837C36.7837 28.4886 36.4553 28.4224 36.4553 28.8861V31.47C36.4553 31.47 36.4553 31.8012 36.4553 31.9337H36.1925L33.6308 29.0849V31.205C33.6308 31.205 33.5651 31.6687 33.8936 31.6687H34.1563V31.8675H32.7769V31.6687H32.974C32.974 31.6687 33.2367 31.6687 33.3024 31.205V28.8861C33.3024 28.8861 33.2367 28.5549 32.974 28.4886H32.7769V28.2899H33.8936Z" fill="black" />
  <path d="M6.04304 28.1574C6.04304 28.1574 6.04304 28.6874 5.91167 29.0849H6.10872C6.10872 29.0849 6.10872 28.6211 6.50283 28.6211H7.35674V31.2712C7.35674 31.2712 7.42242 31.6687 7.15968 31.735H6.83126V31.9337H8.53907V31.735H8.34202C8.34202 31.735 8.01359 31.735 8.07928 31.2712V28.6211H8.8675C8.8675 28.6211 9.19592 28.5549 9.19592 29.0849L9.39298 29.0186C9.39298 29.0186 9.39298 28.6211 9.45866 28.1574C9.45866 28.1574 9.32729 28.2236 9.32729 28.1574C9.32729 28.1574 9.26161 28.2899 9.13024 28.2899H6.37146C6.37146 28.2899 6.24009 28.2899 6.17441 28.1574H6.04304Z" fill="black" />
  <path d="M23.581 28.1574C23.581 28.1574 23.581 28.6874 23.4496 29.0849H23.6467C23.6467 29.0849 23.6467 28.6211 24.0408 28.6211H24.8947V31.2712C24.8947 31.2712 24.9604 31.6687 24.6976 31.735H24.3692V31.9337H26.077V31.735H25.8143C25.8143 31.735 25.4858 31.735 25.5515 31.2712V28.6211H26.3398C26.3398 28.6211 26.6682 28.5549 26.6682 29.0849L26.8652 29.0186C26.8652 29.0186 26.8652 28.6211 26.9309 28.1574C26.9309 28.1574 26.7995 28.2236 26.7995 28.1574C26.7995 28.1574 26.7339 28.2899 26.6025 28.2899H23.778C23.778 28.2899 23.6467 28.2899 23.581 28.1574Z" fill="black" />
  <path d="M9.59003 28.2899H12.1518C12.1518 28.2899 12.1518 28.8199 12.2174 29.0849L12.0204 29.1511C12.0204 29.1511 12.0204 28.5549 11.5606 28.5549H10.7724V29.8137H11.3635C11.3635 29.8137 11.692 29.8799 11.692 29.4161H11.889C11.889 29.4161 11.8233 30.4099 11.889 30.6087L11.692 30.6749C11.692 30.6749 11.692 30.1449 11.3635 30.1449H10.7724V31.2712C10.7724 31.2712 10.7067 31.6025 11.1008 31.6025H11.692C11.692 31.6025 12.2831 31.6025 12.3488 31.0062L12.5459 31.0725C12.5459 31.0725 12.4145 31.735 12.3488 31.9337H9.59003V31.735H9.85277C9.85277 31.735 10.0498 31.735 10.1155 31.47V28.8199C10.1155 28.8199 10.1155 28.5549 9.85277 28.5549H9.59003V28.2899Z" fill="black" />
  <path d="M12.6772 28.2899H14.3851C14.3851 28.2899 15.5017 28.2236 15.5017 29.1511C15.5017 29.1511 15.6331 29.8799 14.7792 30.1449L15.6988 31.47C15.6988 31.47 15.7644 31.6687 16.1586 31.735V31.9337H15.1733L14.1223 30.2774H13.7939V31.4037C13.7939 31.4037 13.7939 31.6687 13.9909 31.6687H14.2537V31.8675H12.6116V31.6687H12.94C12.94 31.6687 13.137 31.6025 13.2027 31.4037V28.7536C13.2027 28.7536 13.137 28.4886 12.94 28.4886H12.6772V28.2899ZM13.8596 28.5549V30.0124H14.188C14.188 30.0124 14.8448 30.0124 14.8448 29.2836C14.8448 29.2836 14.9105 28.6874 14.3194 28.5549H13.8596Z" fill="black" />
  <path d="M43.1552 28.4224H43.4179C43.4179 28.4224 43.6149 28.4224 43.6149 28.5549C43.6149 28.5549 43.615 28.6874 43.4836 28.6874L43.6149 28.8861C43.6149 28.8861 43.615 28.9524 43.6806 28.9524H43.5493L43.3522 28.6874H43.2865V28.8861C43.2865 28.8861 43.2865 28.9524 43.3522 28.9524H43.4179V29.0186H43.1552V28.9524C43.1552 28.9524 43.2208 28.9524 43.2208 28.8861V28.4224C43.2208 28.4886 43.2208 28.4886 43.1552 28.4224ZM43.3522 28.6874H43.4179C43.4179 28.6874 43.5493 28.6874 43.5493 28.5549C43.5493 28.5549 43.5493 28.4886 43.4836 28.4224H43.3522V28.6874Z" fill="black" />
  <path d="M20.3624 31.9338V31.735H20.4938C20.4938 31.735 20.6908 31.735 20.8222 31.4037L21.8732 28.4224L22.2673 28.2236C22.2673 28.2236 22.3986 28.0911 22.4643 28.2899L23.581 31.47C23.581 31.47 23.6467 31.735 23.9751 31.735V31.9338H22.4643V31.735H22.6614C22.6614 31.735 22.9241 31.735 22.8584 31.5362L22.53 30.675H21.4134L21.1506 31.47C21.1506 31.47 21.0193 31.735 21.282 31.735H21.5447V31.9338H20.3624ZM21.5447 30.3437H22.3986L21.9388 29.0186L21.5447 30.3437Z" fill="black" />
  <path d="M36.9151 31.9338V31.735H37.0464C37.0464 31.735 37.2435 31.735 37.3749 31.4037L38.4258 28.4224L38.8199 28.2236C38.8199 28.2236 38.9513 28.0911 39.017 28.2899L40.1336 31.47C40.1336 31.47 40.1993 31.735 40.5278 31.735V31.9338H39.017V31.735H39.214C39.214 31.735 39.4768 31.735 39.4111 31.5362L39.0827 30.675H37.966L37.7033 31.47C37.7033 31.47 37.5719 31.735 37.8347 31.735H38.0974V31.9338H36.9151ZM38.0974 30.3437H38.9513L38.4915 29.0186L38.0974 30.3437Z" fill="black" />
  <path d="M30.872 32C29.8211 32 28.9015 31.1387 28.9015 30.1449C28.9015 29.0849 29.7554 28.2899 30.872 28.2899C31.923 28.2899 32.8426 29.1511 32.8426 30.1449C32.7769 31.1387 31.923 32 30.872 32ZM29.6897 29.9462C29.6897 31.735 30.9377 31.735 30.9377 31.735C32.1857 31.6687 31.9887 30.0124 31.9887 30.0124C31.923 28.4886 30.7407 28.4886 30.7407 28.4886C29.5583 28.6211 29.6897 29.9462 29.6897 29.9462Z" fill="black" />
  <path d="M42.1699 28.2899V28.4886H41.9728C41.9728 28.4886 41.7101 28.4886 41.7101 28.7536V31.3375C41.7101 31.3375 41.6444 31.6025 41.9728 31.6025C41.9728 31.6025 43.1552 31.8675 43.2865 30.94H43.4836L43.2865 31.8675H40.5934V31.6687H40.7905C40.7905 31.6687 40.9875 31.6687 41.0532 31.4037V28.7536C41.0532 28.7536 41.0532 28.4886 40.7905 28.4886H40.5278V28.2899H42.1699Z" fill="black" />
  <path fill-rule="evenodd" clip-rule="evenodd" d="M43.4179 28.347C43.2315 28.347 43.0804 28.4994 43.0804 28.6874C43.0804 28.8754 43.2315 29.0278 43.4179 29.0278C43.6043 29.0278 43.7554 28.8754 43.7554 28.6874C43.7554 28.4994 43.6043 28.347 43.4179 28.347ZM42.8358 28.6874C42.8358 28.3631 43.0964 28.1002 43.4179 28.1002C43.7394 28.1002 44 28.3631 44 28.6874C44 29.0116 43.7394 29.2745 43.4179 29.2745C43.0964 29.2745 42.8358 29.0116 42.8358 28.6874Z" fill="black" />
</svg>