<svg width="22" height="22" viewBox="0 0 22 22" fill="none" xmlns="http://www.w3.org/2000/svg">
<g clip-path="url(#clip0_27_5995)">
<path d="M9 3.3C8.9 3 8.7 3 8.5 3C7.7 3 6.9 3.2 6.1 3.4C4.7 3.8 3.8 4.6 3.3 5.8C2.5 7.6 1.9 9.4 1.5 11.1C1.3 12.1 1 13.3 1 14.6V15C1 15.5 1.2 15.8 1.5 16C1.6 16.1 1.7 16.1 1.8 16.2L2 16.3C3.4 17.3 4.6 17.8 5.8 18C6.5 18.1 7 18.1 7.4 17.9C7.6 17.8 7.7 17.5 7.6 17.3C7.5 17.1 7.2 17 7 17.1C6.6 17.2 6.3 17.3 5.9 17.2C4.6 16.9 3.3 16.3 2.1 15.3C2 15.2 1.9 15 1.9 14.8C1.9 14.4 1.9 14.1 2 13.8C2.2 12.4 2.5 11 3 9.2C3.2 8.3 3.6 7.1 4.1 6C4.5 5.3 5 4.9 5.7 4.5C6.7 4 7.8 3.9 8.6 3.9C8.7 3.9 8.8 3.9 8.9 3.8C9 3.7 9.1 3.5 9 3.3Z" fill="black"/>
<path d="M14 18C14.5 18.2 15 18.2 15.6 18.1C17 17.8 18.3 17.2 19.9 16C20.2 15.8 20.4 15.5 20.4 15C20.4 14.9 20.4 14.8 20.4 14.7V14.2C20.4 14.1 20.4 14 20.4 13.9C20.3 12.7 20 11.5 19.6 9.89999C19.1 8.09999 18.6 6.59999 17.9 5.29999C17.6 4.59999 17.1 4.09999 16.3 3.69999C15.3 3.19999 14.1 2.89999 12.8 2.89999C12.6 2.89999 12.5 2.89999 12.4 3.09999C12.3 3.29999 12.2 3.39999 12.3 3.59999C12.4 3.79999 12.5 3.89999 12.7 3.89999C13.6 3.89999 14.3 4.09999 15.1 4.29999C16.2 4.69999 17 5.29999 17.4 6.29999C17.4 6.39999 17.5 6.49999 17.5 6.59999C17.5 6.69999 17.6 6.79999 17.6 6.89999C18.3 8.59999 18.8 10.4 19.2 12.5C19.3 13 19.4 13.6 19.4 14.1L19.5 14.9C19.5 15.1 19.4 15.3 19.2 15.5C18 16.4 16.8 16.9 15.6 17.3C15.2 17.4 14.8 17.5 14.3 17.3C14.3 17.3 14.3 17.3 14.2 17.3C14.2 17.3 14.2 17.3 14.1 17.3C13.9 17.3 13.7 17.5 13.7 17.7C13.7 17.7 13.8 17.9 14 18Z" fill="black"/>
<path d="M17.3 13.6C17.1 13.5 16.9 13.5 16.7 13.7C15.2 14.9 13.4 15.6 11.5 15.7C9.7 15.8 8.1 15.6 6.6 14.9C5.9 14.6 5.3 14.2 4.7 13.7C4.5 13.6 4.3 13.6 4.2 13.7C4 13.8 4 14 4 14.2C4.1 14.8 4.3 15.3 4.7 15.7C4.9 15.9 5 16 5.2 16C5.2 16 5.4 16 5.6 15.8L5.8 15.6L6.1 15.7C9.3 17.2 12.5 17.2 15.7 15.7L16 15.6L16.2 15.8C16.3 15.9 16.4 16 16.5 16C16.7 16 16.9 15.9 17 15.7C17.4 15.3 17.6 14.8 17.7 14.2C17.5 13.8 17.4 13.7 17.3 13.6Z" fill="black"/>
<path d="M5.7 7.2C6.2 7 6.7 6.7 7.3 6.5C9.7 5.7 12.1 5.7 14.3 6.5C14.8 6.7 15.3 7 15.8 7.2L16 7.3C16.2 7.4 16.4 7.4 16.5 7.3C16.6 7.2 16.7 7.1 16.7 7C16.8 6.8 16.7 6.6 16.4 6.5C14.7 5.4 12.8 4.9 10.8 4.9C10.6 4.9 10.4 4.9 10.2 5C9.7 5 9.2 5.1 8.8 5.1C7.4 5.4 6.1 5.9 4.9 6.6C4.6 6.7 4.5 7 4.7 7.2C4.8 7.4 5.1 7.5 5.4 7.3L5.7 7.2Z" fill="black"/>
<path d="M6.9 10.8C6.6 11.3 6.6 11.9 7 12.4C7.2 12.7 7.5 12.9 7.8 12.9C8.2 12.9 8.4 12.8 8.6 12.6C8.9 12.3 9 12 9.1 11.6L9.5 11.5H9C9 11.4 9 11.3 9 11.2C8.9 10.7 8.5 10.3 8.1 10.2C8 10.2 8 10.2 7.9 10.2C7.5 10.2 7.2 10.4 6.9 10.8Z" fill="black"/>
<path d="M12.6 10.8C12.3 11.3 12.3 11.9 12.6 12.4C12.8 12.7 13.1 12.9 13.4 12.9H13.5C13.8 12.9 14 12.8 14.2 12.6C14.5 12.4 14.6 12 14.6 11.6L15 11.4H14.6C14.6 11.3 14.6 11.2 14.6 11.1C14.5 10.6 14.1 10.2 13.7 10.1C13.6 10.1 13.6 10.1 13.5 10.1C13.1 10.2 12.8 10.4 12.6 10.8Z" fill="black"/>
</g>
<defs>
<clipPath id="clip0_27_5995">
<rect width="19.4" height="15.1" fill="white" transform="translate(1 3)"/>
</clipPath>
</defs>
</svg>
