<svg xmlns="http://www.w3.org/2000/svg" viewBox="0 0 83.67 83.67"><clipPath id="a"><path d="M0 0h83.67v83.67H0z"/></clipPath><g clip-path="url(#a)"><path d="M0 19.31h83.67v6.43H0z" fill="#f5f5f5"/><g clip-path="url(#a)"><path d="M79.3 6.44H4.37a18.16 18.16 0 0 0-3.55 6.43h82a18.16 18.16 0 0 0-3.52-6.43M0 32.18h83.67v6.44H0zM0 45.05h83.67v6.44H0zM0 57.93h83.67v6.44H0zM82.85 70.8H.82a18.21 18.21 0 0 0 3.55 6.44H79.3a18.21 18.21 0 0 0 3.55-6.44" fill="#f5f5f5"/><path d="M65.38 0H18.31A18.24 18.24 0 0 0 4.38 6.44h74.93A18.26 18.26 0 0 0 65.38 0M0 25.75h83.67v6.44H0zM83.67 18.3a18.07 18.07 0 0 0-.82-5.43H.82A18.4 18.4 0 0 0 0 18.3v1h83.67zM0 38.62h83.67v6.44H0zM83.67 65.37v-1H0v1a18.4 18.4 0 0 0 .82 5.43h82a18.07 18.07 0 0 0 .82-5.43M79.31 77.24H4.38a18.28 18.28 0 0 0 13.93 6.43h47.07a18.28 18.28 0 0 0 13.93-6.43M0 51.49h83.67v6.44H0z" fill="#ff4b55"/><path d="M45.05 0H18.3A18.31 18.31 0 0 0 0 18.3v26.75h45.05z" fill="#41479b"/><g fill="#f5f5f5"><path d="M4.87 7a.15.15 0 0 0 .22.17l.91-.6.89.64A.15.15 0 0 0 7.11 7l-.33-1 .88-.65a.15.15 0 0 0-.09-.26h-1.1l-.18-.56A18.23 18.23 0 0 0 4.94 5.8l.26.2zM6.12 12.7l.35 1h1.1a.15.15 0 0 1 .08.27l-.88.65.33 1.05a.15.15 0 0 1-.23.16L6 15.24l-.89.64a.15.15 0 0 1-.23-.16l.33-1.05-.9-.67a.15.15 0 0 1 .09-.27h1.09l.35-1a.15.15 0 0 1 .28 0M6.12 22.34l.35 1h1.1a.14.14 0 0 1 .08.26l-.88.66.33 1a.15.15 0 0 1-.23.17L6 24.88l-.89.64a.15.15 0 0 1-.23-.17l.33-1-.88-.66a.14.14 0 0 1 .09-.26h1.07l.35-1a.15.15 0 0 1 .28 0M6.12 31.19l.35 1h1.1a.14.14 0 0 1 .08.26l-.88.66.33 1a.15.15 0 0 1-.23.17L6 33.73l-.89.64a.15.15 0 0 1-.23-.17l.33-1-.88-.66a.14.14 0 0 1 .09-.26h1.07l.35-1a.15.15 0 0 1 .28 0M6.12 39.23l.35 1h1.1a.15.15 0 0 1 .08.27l-.88.65.33 1a.15.15 0 0 1-.23.16L6 41.78l-.89.63a.15.15 0 0 1-.23-.16l.33-1-.88-.65a.15.15 0 0 1 .09-.27h1.07l.35-1a.15.15 0 0 1 .28 0M10.35 8.13l.35 1h1.1a.15.15 0 0 1 .08.27l-.88.7.33 1.05a.15.15 0 0 1-.23.16l-.89-.64-.89.64a.15.15 0 0 1-.23-.16l.33-1.05-.88-.65a.15.15 0 0 1 .09-.27h1.09l.35-1a.15.15 0 0 1 .28 0M10.35 17.77l.35 1h1.1a.15.15 0 0 1 .08.27l-.88.65.33 1a.15.15 0 0 1-.23.17l-.89-.64-.89.78a.15.15 0 0 1-.23-.17l.33-1-.88-.65a.15.15 0 0 1 .09-.27h1.09l.35-1a.15.15 0 0 1 .28 0M10.35 26.92l.35 1h1.1a.15.15 0 0 1 .08.27l-.88.65.33 1.05a.15.15 0 0 1-.23.16l-.89-.63-.89.63a.15.15 0 0 1-.23-.16l.33-1.05-.88-.65a.15.15 0 0 1 .09-.19h1.09l.35-1a.15.15 0 0 1 .28 0M10.35 35.13l.35 1h1.1a.15.15 0 0 1 .08.27l-.88.7.33 1a.15.15 0 0 1-.23.17l-.89-.64-.89.64a.15.15 0 0 1-.23-.17l.33-1-.88-.65a.15.15 0 0 1 .09-.27h1.09l.35-1a.15.15 0 0 1 .28 0M14.57 4l.35 1H16a.15.15 0 0 1 .09.26l-.87.74.33 1a.15.15 0 0 1-.23.17l-.89-.64-.89.64a.15.15 0 0 1-.23-.17l.33-1-.88-.66a.14.14 0 0 1 .08-.26h1.1l.35-1a.15.15 0 0 1 .28 0M14.57 12.7l.35 1H16a.15.15 0 0 1 .09.27l-.88.65.33 1.05a.15.15 0 0 1-.23.16l-.89-.64-.89.64a.15.15 0 0 1-.23-.16l.33-1.05-.87-.62a.15.15 0 0 1 .08-.27h1.1l.35-1a.15.15 0 0 1 .28 0M14.57 22.34l.35 1H16a.15.15 0 0 1 .09.26l-.88.66.33 1a.15.15 0 0 1-.23.17l-.89-.64-.89.64a.15.15 0 0 1-.23-.17l.33-1-.88-.66a.14.14 0 0 1 .08-.26h1.1l.35-1a.15.15 0 0 1 .28 0M14.57 31.19l.35 1H16a.15.15 0 0 1 .09.26l-.88.66.33 1a.15.15 0 0 1-.23.17l-.89-.64-.89.64a.15.15 0 0 1-.23-.17l.33-1-.88-.66a.14.14 0 0 1 .08-.26h1.1l.35-1a.15.15 0 0 1 .28 0M14.57 39.23l.35 1H16a.15.15 0 0 1 .09.27l-.88.65.33 1a.15.15 0 0 1-.23.16l-.89-.63-.89.63a.15.15 0 0 1-.23-.16l.33-1-.88-.65a.15.15 0 0 1 .08-.27h1.1l.35-1a.15.15 0 0 1 .28 0M18.8 8.13l.35 1h1.09a.15.15 0 0 1 .09.27l-.88.65.33 1.05a.15.15 0 0 1-.23.16l-.89-.64-.89.64a.15.15 0 0 1-.23-.16l.33-1.05-.87-.6a.15.15 0 0 1 .08-.27h1.1l.35-1a.15.15 0 0 1 .28 0M18.8 17.77l.35 1h1.09a.15.15 0 0 1 .09.27l-.88.65.33 1a.15.15 0 0 1-.23.17l-.89-.64-.89.64a.15.15 0 0 1-.23-.17l.33-1-.87-.6a.15.15 0 0 1 .08-.27h1.1l.35-1a.15.15 0 0 1 .28 0M18.8 26.92l.35 1h1.09a.15.15 0 0 1 .09.27l-.88.65.33 1.05a.15.15 0 0 1-.23.16l-.89-.63-.89.63a.15.15 0 0 1-.23-.16l.33-1.05-.87-.6a.15.15 0 0 1 .08-.27h1.1l.35-1a.15.15 0 0 1 .28 0M18.8 35.13l.35 1h1.09a.15.15 0 0 1 .09.27l-.88.65.33 1a.15.15 0 0 1-.23.17l-.89-.64-.89.64a.15.15 0 0 1-.23-.17l.33-1-.87-.6a.15.15 0 0 1 .08-.27h1.1l.35-1a.15.15 0 0 1 .28 0M23 4l.35 1h1.09a.14.14 0 0 1 .09.26l-.85.74.32 1a.15.15 0 0 1-.23.17l-.89-.64-.88.68a.15.15 0 0 1-.23-.21l.33-1-.88-.66a.14.14 0 0 1 .09-.26h1.09l.35-1A.15.15 0 0 1 23 4M23 12.7l.35 1h1.09a.15.15 0 0 1 .09.27l-.88.65.35 1.1a.15.15 0 0 1-.23.16l-.89-.64-.89.64a.15.15 0 0 1-.23-.16l.33-1.05-.87-.67a.15.15 0 0 1 .09-.27h1.09l.35-1a.15.15 0 0 1 .28 0M23 22.34l.35 1h1.09a.14.14 0 0 1 .09.26l-.88.66.33 1a.15.15 0 0 1-.23.17l-.89-.64-.89.64a.15.15 0 0 1-.23-.17l.33-1-.88-.66a.14.14 0 0 1 .09-.26h1.12l.35-1a.15.15 0 0 1 .28 0M23 31.19l.35 1h1.09a.14.14 0 0 1 .09.26l-.88.66.33 1a.15.15 0 0 1-.23.17l-.89-.64-.89.64a.15.15 0 0 1-.23-.17l.33-1-.88-.66a.14.14 0 0 1 .09-.26h1.12l.35-1a.15.15 0 0 1 .28 0M23 39.23l.35 1h1.09a.15.15 0 0 1 .09.27l-.88.65.33 1a.15.15 0 0 1-.23.16l-.89-.63-.89.63a.15.15 0 0 1-.23-.16l.33-1-.88-.65a.15.15 0 0 1 .09-.27h1.12l.35-1a.15.15 0 0 1 .28 0M27.25 8.13l.35 1h1.09a.15.15 0 0 1 .09.27l-.88.65.33 1.05a.15.15 0 0 1-.23.16l-.89-.64-.9.64a.14.14 0 0 1-.22-.16l.33-1.05-.88-.65a.15.15 0 0 1 .08-.27h1.1l.35-1a.15.15 0 0 1 .28 0M27.25 17.77l.35 1h1.09a.15.15 0 0 1 .09.27l-.88.65.33 1A.15.15 0 0 1 28 21l-.89-.64-.9.64a.15.15 0 0 1-.22-.17l.33-1-.88-.65a.15.15 0 0 1 .08-.27h1.1l.35-1a.15.15 0 0 1 .28 0M27.25 26.92l.35 1h1.09a.15.15 0 0 1 .09.27l-.88.65.33 1.05a.15.15 0 0 1-.23.16l-.89-.63-.9.63a.14.14 0 0 1-.22-.16l.33-1.05-.88-.65a.15.15 0 0 1 .08-.27h1.1l.35-1a.15.15 0 0 1 .28 0M27.25 35.13l.35 1h1.09a.15.15 0 0 1 .09.27l-.88.65.33 1a.15.15 0 0 1-.23.17l-.89-.64-.9.64a.15.15 0 0 1-.22-.17l.33-1-.88-.65a.15.15 0 0 1 .08-.27h1.1l.35-1a.15.15 0 0 1 .28 0M31.48 4l.35 1h1.09a.14.14 0 0 1 .09.26l-.88.74.33 1a.15.15 0 0 1-.23.17l-.89-.64-.89.64a.15.15 0 0 1-.23-.17l.33-1-.88-.66a.14.14 0 0 1 .08-.26h1.1l.35-1a.15.15 0 0 1 .28 0M31.48 12.7l.35 1h1.09a.15.15 0 0 1 .08.3l-.88.65.33 1.05a.15.15 0 0 1-.23.16l-.89-.64-.89.64a.15.15 0 0 1-.23-.16l.33-1.05-.87-.65a.15.15 0 0 1 .08-.27h1.1l.35-1a.15.15 0 0 1 .28 0M31.48 22.34l.35 1h1.09a.14.14 0 0 1 .09.26l-.88.66.33 1a.15.15 0 0 1-.23.17l-.89-.64-.89.64a.15.15 0 0 1-.23-.17l.33-1-.88-.66a.14.14 0 0 1 .08-.26h1.1l.35-1a.15.15 0 0 1 .28 0M31.48 31.19l.35 1h1.09a.14.14 0 0 1 .09.26l-.88.66.33 1a.15.15 0 0 1-.23.17l-.89-.64-.89.64a.15.15 0 0 1-.23-.17l.33-1-.88-.66a.14.14 0 0 1 .08-.26h1.1l.35-1a.15.15 0 0 1 .28 0M31.48 39.23l.35 1h1.09a.15.15 0 0 1 .09.27l-.88.65.33 1a.15.15 0 0 1-.23.16l-.89-.63-.89.63a.15.15 0 0 1-.23-.16l.33-1-.88-.65a.15.15 0 0 1 .08-.27h1.1l.35-1a.15.15 0 0 1 .28 0M35.71 8.13l.35 1h1.1a.15.15 0 0 1 .08.27l-.88.65.33 1.05a.15.15 0 0 1-.23.16l-.89-.64-.89.64a.15.15 0 0 1-.23-.16l.33-1.05-.88-.65a.15.15 0 0 1 .1-.22h1.09l.35-1a.15.15 0 0 1 .28 0M35.71 17.77l.35 1h1.1a.15.15 0 0 1 .08.27l-.88.65.33 1a.15.15 0 0 1-.23.17l-.89-.64-.89.64a.15.15 0 0 1-.23-.17l.33-1-.88-.65a.15.15 0 0 1 .09-.27h1.09l.35-1a.15.15 0 0 1 .28 0M35.71 26.92l.35 1h1.1a.15.15 0 0 1 .08.27l-.88.65.33 1.05a.15.15 0 0 1-.23.16l-.89-.63-.89.63a.15.15 0 0 1-.23-.16l.33-1.05-.88-.65A.15.15 0 0 1 34 28h1.09l.35-1a.15.15 0 0 1 .28 0M35.71 35.13l.35 1h1.1a.15.15 0 0 1 .08.27l-.88.65.33 1a.15.15 0 0 1-.23.17l-.89-.64-.89.64a.15.15 0 0 1-.23-.17l.33-1-.88-.65a.15.15 0 0 1 .09-.27h1.09l.35-1a.15.15 0 0 1 .28 0M39.93 4l.34 1h1.1a.15.15 0 0 1 .09.26l-.88.74.33 1a.15.15 0 0 1-.23.17l-.89-.64-.9.64a.15.15 0 0 1-.22-.17L39 6l-.88-.66a.14.14 0 0 1 .08-.26h1.1l.35-1a.15.15 0 0 1 .28 0M39.93 12.7l.34 1h1.1a.15.15 0 0 1 .09.27l-.88.65.33 1.05a.15.15 0 0 1-.23.16l-.89-.64-.9.64a.14.14 0 0 1-.22-.16l.33-1-.88-.67a.15.15 0 0 1 .08-.27h1.1l.35-1a.15.15 0 0 1 .28 0M39.93 22.34l.34 1h1.1a.15.15 0 0 1 .09.26l-.88.66.33 1a.15.15 0 0 1-.23.17l-.89-.64-.9.64a.15.15 0 0 1-.22-.17l.33-1-.88-.66a.14.14 0 0 1 .08-.26h1.1l.35-1a.15.15 0 0 1 .28 0M39.93 31.19l.34 1h1.1a.15.15 0 0 1 .09.26l-.88.66.33 1a.15.15 0 0 1-.23.17l-.89-.64-.9.64a.15.15 0 0 1-.22-.17l.33-1-.88-.66a.14.14 0 0 1 .08-.26h1.1l.35-1a.15.15 0 0 1 .28 0M39.93 39.23l.34 1h1.1a.15.15 0 0 1 .09.27l-.88.65.33 1a.15.15 0 0 1-.23.16l-.89-.63-.9.63a.14.14 0 0 1-.22-.16l.33-1-.88-.65a.15.15 0 0 1 .08-.27h1.1l.35-1a.15.15 0 0 1 .28 0"/></g></g></g></svg>