<?xml version="1.0" encoding="UTF-8" ?>
<!DOCTYPE svg PUBLIC "-//W3C//DTD SVG 1.1//EN" "http://www.w3.org/Graphics/SVG/1.1/DTD/svg11.dtd">
<svg width="140pt" height="140pt" viewBox="0 0 140 140" version="1.1" xmlns="http://www.w3.org/2000/svg">
<g id="#ffffffff">
</g>
<g id="#000000ff">
<path fill="#000000" opacity="1.00" d=" M 52.48 5.09 C 62.49 15.04 72.43 25.06 82.45 35.01 C 74.96 35.10 67.49 34.85 60.00 34.83 C 60.03 49.78 59.70 64.72 59.81 79.67 C 54.83 79.64 49.86 79.77 44.89 79.74 C 44.98 64.77 44.99 49.79 44.97 34.82 C 37.56 34.83 30.14 34.83 22.72 34.82 C 32.67 24.94 42.57 15.01 52.48 5.09 Z" />
<path fill="#000000" opacity="1.00" d=" M 82.32 57.31 C 87.28 57.36 92.25 57.32 97.21 57.34 C 97.18 72.26 97.21 87.19 97.20 102.11 C 104.67 102.25 112.14 102.17 119.62 102.15 C 109.67 112.13 99.70 122.09 89.73 132.05 C 79.80 122.07 69.83 112.11 59.86 102.17 C 67.35 102.20 74.84 102.16 82.34 102.19 C 82.32 87.23 82.35 72.27 82.32 57.31 Z" />
</g>
</svg>
