<svg xmlns="http://www.w3.org/2000/svg" xmlns:xlink="http://www.w3.org/1999/xlink" width="34px" height="34px" viewBox="0 0 34 34" version="1.1">
    <title>Group 3</title>
    <g id="Page-1" stroke="none" stroke-width="1" fill="none" fill-rule="evenodd">
        <g id="dropdown-ui-copy" transform="translate(-1793.000000, -483.000000)">
            <g id="Group-3" transform="translate(1793.000000, 483.000000)">
                <rect id="Rectangle" fill="#000000" x="0" y="0" width="34" height="34" rx="2"/>
                <g id="Group-2" transform="translate(7.000000, 7.000000)" fill="#FFFFFF" fill-rule="nonzero">
                    <path d="M13.2730776,16.3636364 L10.3636443,16.3636364 C10.2575167,16.3636364 10.170457,16.3955402 10.1022265,16.4596463 C10.0341949,16.5234913 10,16.6052098 10,16.7045781 L10,18.7499673 C10,18.8497088 10.0340357,18.9310542 10.1022265,18.9951603 C10.1704968,19.0590053 10.2575167,19.0909091 10.3636443,19.0909091 L13.2730776,19.0909091 C13.3792052,19.0909091 13.4663843,19.0590053 13.5343362,18.9951603 C13.602726,18.9310169 13.6363636,18.8497088 13.6363636,18.7499673 L13.6363636,16.7045781 C13.6363636,16.6052098 13.6026862,16.523454 13.5343362,16.4596463 C13.4663843,16.3955775 13.3792052,16.3636364 13.2730776,16.3636364 Z" id="Path"/>
                    <path d="M7.81033724,15.7144058 L5.58141089,15.7144058 L5.58141089,0.357139367 C5.58141089,0.253038871 5.54668621,0.16731135 5.47699287,0.100425901 C5.40729953,0.0335795442 5.31837343,0 5.20992995,0 L2.98096294,0 C2.8726821,0 2.78351204,0.0334231785 2.71394068,0.10038681 C2.64445065,0.167428624 2.60952266,0.253038871 2.60952266,0.357100275 L2.60952266,15.7143667 L0.380555657,15.7143667 C0.210429094,15.7143667 0.0943006369,15.7887186 0.0323329308,15.9375006 C-0.0296754365,16.0790507 -0.00243241609,16.2091861 0.113533396,16.3282586 L3.82838352,19.8998477 C3.91352813,19.9665768 4.00245423,20 4.09540578,20 C4.19600165,20 4.2850904,19.9665768 4.36242805,19.8998477 L8.06568972,16.3394779 C8.14319002,16.2503885 8.18181818,16.1607909 8.18181818,16.0719361 C8.18181818,15.9673274 8.14689019,15.8819908 8.07740016,15.814558 C8.00774748,15.7478681 7.91882138,15.7144058 7.81033724,15.7144058 Z" id="Path"/>
                    <path d="M15.1136387,10.9090909 L10.3408694,10.9090909 C10.2413886,10.9090909 10.1597814,10.9409982 10.0958241,11.0048502 C10.032016,11.0687021 10,11.1504296 10,11.2497714 L10,13.2956831 C10,13.3950249 10.031904,13.4767898 10.0958241,13.5406044 C10.1597814,13.6044563 10.2413886,13.6363636 10.3408694,13.6363636 L15.1136387,13.6363636 C15.2131196,13.6363636 15.2948014,13.6044563 15.3585348,13.5406044 C15.4225295,13.4767524 15.4545455,13.3950249 15.4545455,13.2956831 L15.4545455,11.2497714 C15.4545455,11.1504296 15.4225295,11.0686648 15.3585348,11.0048502 C15.2948387,10.9410355 15.2131196,10.9090909 15.1136387,10.9090909 Z" id="Path"/>
                    <path d="M19.8997286,0.0958247094 C19.8326858,0.0320535146 19.7471917,0 19.6429725,0 L10.3571051,0 C10.252886,0 10.1673918,0.0319042549 10.1003882,0.0958247094 C10.03358,0.159819794 10,0.241539464 10,0.340871776 L10,2.38640095 C10,2.48588252 10.0334236,2.56749025 10.1003882,2.63144802 C10.1674309,2.69521921 10.252886,2.72727273 10.3571051,2.72727273 L19.6429725,2.72727273 C19.7471917,2.72727273 19.8326858,2.69536847 19.8996895,2.63144802 C19.9665758,2.56749025 20,2.48588252 20,2.38640095 L20,0.340909091 C20.0001558,0.241539464 19.9665758,0.159670534 19.8997286,0.0958247094 Z" id="Path"/>
                    <path d="M17.8100432,5.45454545 L10.3718564,5.45454545 C10.2633321,5.45454545 10.1743064,5.48644884 10.104535,5.55044217 C10.0349264,5.61436088 10,5.69596637 10,5.79548253 L10,7.84088111 C10,7.94039727 10.0348043,8.02200276 10.104535,8.08592147 C10.1743064,8.14976554 10.2633321,8.18181818 10.3718564,8.18181818 L17.8100432,8.18181818 C17.9184453,8.18181818 18.0075932,8.1499148 18.0774867,8.08592147 C18.1470139,8.02200276 18.1818182,7.94039727 18.1818182,7.84088111 L18.1818182,5.79548253 C18.1818182,5.69596637 18.1470139,5.61421162 18.0774867,5.55044217 C18.0074303,5.48659809 17.9182825,5.45454545 17.8100432,5.45454545 Z" id="Path"/>
                </g>
            </g>
        </g>
    </g>
</svg>