<svg width="22" height="22" viewBox="0 0 22 22" fill="none" xmlns="http://www.w3.org/2000/svg">
<path d="M16.0572 15.0286L16.3143 17.9429H5L5.51429 15.0286H16.0572Z" fill="#2280E1"/>
<path d="M18.5429 6.37141C18.7143 6.37141 18.8857 6.19998 18.8857 6.02855C18.8857 5.85712 18.7143 5.59998 18.5429 5.59998C18.3714 5.59998 18.2 5.77141 18.2 6.02855C18.2 6.28569 18.3714 6.37141 18.5429 6.37141ZM11.4286 4.31426C11.4286 4.14283 11.2572 3.97141 11.0857 3.97141C10.9143 3.97141 10.6572 4.05712 10.6572 4.31426C10.6572 4.57141 10.8286 4.74283 11 4.74283C11.1714 4.74283 11.4286 4.48569 11.4286 4.31426ZM16.3143 17.9428L16.0572 15.0286H5.51429L5 17.9428H16.3143ZM16.1429 13.6571L17.7714 7.65712L13.4857 11.1714L11 6.11426L8.51429 11.1714L4.22857 7.65712L5.51429 13.7428H16.1429V13.6571ZM3.54286 6.37141C3.71429 6.37141 3.88572 6.19998 3.88572 6.02855C3.88572 5.85712 3.71429 5.59998 3.54286 5.59998C3.37143 5.59998 3.11429 5.77141 3.11429 6.02855C3.11429 6.28569 3.28572 6.37141 3.54286 6.37141ZM4.22857 14.3428L2.77143 7.65712C2.17143 7.39998 1.74286 6.79998 1.74286 6.02855C1.74286 5.08569 2.51429 4.22855 3.45715 4.22855C4.4 4.22855 5.17143 4.99998 5.17143 6.02855C5.17143 6.19998 5.17143 6.45712 5.08572 6.62855L8.00001 9.02855L9.71429 5.51426C9.45715 5.17141 9.28572 4.74283 9.28572 4.31426C9.28572 3.3714 10.0572 2.59998 11 2.59998C11.9429 2.59998 12.7143 3.3714 12.7143 4.31426C12.7143 4.74283 12.5429 5.17141 12.2 5.51426L13.9143 9.02855L16.9143 6.62855C16.8286 6.45712 16.8286 6.28569 16.8286 6.02855C16.8286 5.08569 17.6 4.22855 18.5429 4.22855C19.4857 4.22855 20.2572 4.99998 20.2572 6.02855C20.2572 6.79998 19.8286 7.39998 19.1429 7.65712L17.4286 14.3428L17.8572 18.2857C17.8572 18.5428 17.7714 18.8 17.6 19.0571C17.4286 19.2286 17.1714 19.4 16.9143 19.4H4.48572C4.22857 19.4 3.97143 19.2286 3.8 19.0571C3.62857 18.8857 3.54286 18.5428 3.62857 18.2857L4.22857 14.3428C4.31429 14.3428 4.22857 14.3428 4.22857 14.3428Z" fill="#2280E1"/>
</svg>
