<svg width="22" height="22" viewBox="0 0 22 22" fill="none" xmlns="http://www.w3.org/2000/svg">
<path d="M17.8067 1H4.50797C4.32875 1 4.18968 1.15887 4.21271 1.3366C5.0667 7.92711 8.35634 10.5273 9.47014 12.0906C9.78865 12.5376 9.65874 13.6608 9.52111 14.3375C9.4935 14.4732 9.37261 14.5675 9.23413 14.5675H6.07611C5.91042 14.5675 5.77611 14.7018 5.77611 14.8675V20.7C5.77611 20.8657 5.91042 21 6.07611 21H16.4089C16.5746 21 16.7089 20.8657 16.7089 20.7V14.8675C16.7089 14.7018 16.5746 14.5675 16.4089 14.5675H13.5354C13.4221 14.5675 13.3172 14.5043 13.2743 14.3995C12.96 13.6321 13.0022 12.652 13.0766 12.1684C13.0845 12.117 13.1071 12.0696 13.1403 12.0296C16.109 8.44409 17.632 3.6339 18.0976 1.34909C18.1349 1.16635 17.9932 1 17.8067 1Z" stroke="black"/>
<path d="M4.39552 2.44336H1.3C1.13431 2.44336 0.999427 2.5764 1.00685 2.74192C1.11031 5.04737 2.41625 9.12601 7.04478 9.0977" stroke="black"/>
<path d="M17.7537 2.73779H20.7C20.8657 2.73779 21.0006 2.87083 20.9931 3.03635C20.8897 5.3418 19.5838 9.42044 14.9552 9.39214" stroke="black"/>
</svg>
