<svg width="22" height="22" viewBox="0 0 22 22" fill="none" xmlns="http://www.w3.org/2000/svg">
<g clip-path="url(#clip0_27_4767)">
<path d="M17.6 18H4.49998C4.29998 18 4.09998 18.3 4.09998 18.6C4.09998 18.9 4.29998 19.2 4.49998 19.2H17.7C17.9 19.2 18.1 18.9 18.1 18.6C18.1 18.3 17.8 18 17.6 18Z" fill="black"/>
<path fill-rule="evenodd" clip-rule="evenodd" d="M17.5 4.4L15.7 2.6C15.3 2.2 14.8 2 14.3 2C13.8 2 13.2 2.2 12.8 2.6L4.4 11C4.1 11.2 4 11.6 4 11.9V14.8C4 15.5 4.6 16.1 5.3 16.1H8.2C8.5 16.1 8.9 16 9.1 15.7L17.5 7.3C18.3 6.5 18.3 5.2 17.5 4.4ZM8.4 15.2H4.9V11.8L5.7 11L9.1 14.4L8.4 15.2ZM15.2 8.4L9.8 13.8L9.7 13.7L6.3 10.4L11.8 4.9L15.2 8.4ZM16.8 6.7L15.8 7.7L15.7 7.6L12.5 4.2L13.5 3.2C14 2.7 14.7 2.7 15.1 3.2L16.8 5C17 5.2 17.1 5.5 17.1 5.8C17.2 6.2 17.1 6.5 16.8 6.7Z" fill="black"/>
</g>
<defs>
<clipPath id="clip0_27_4767">
<rect width="14.1" height="17.2" fill="white" transform="translate(4 2)"/>
</clipPath>
</defs>
</svg>
