<svg width="22" height="22" viewBox="0 0 22 22" fill="none" xmlns="http://www.w3.org/2000/svg">
<path d="M18.9468 7.61176C19.5213 7.42353 20 6.85882 20 6.2C20 5.35294 19.3298 4.69412 18.4681 4.69412C17.6064 4.69412 16.9362 5.35294 16.9362 6.2C16.9362 6.38824 17.0319 6.67059 17.0319 6.85882L13.7766 9.49412L11.8617 5.72941C12.3404 5.35294 12.5319 4.97647 12.5319 4.50588C12.5319 3.65882 11.8617 3 11 3C10.1383 3 9.46809 3.65882 9.46809 4.50588C9.46809 4.97647 9.65957 5.35294 9.94681 5.63529L8.03192 9.4L4.87234 6.85882C4.96809 6.67059 4.96809 6.48235 4.96809 6.2C4.96809 5.35294 4.29787 4.69412 3.43617 4.69412C2.57447 4.69412 2 5.35294 2 6.2C2 6.85882 2.38298 7.42353 2.95745 7.61176L4.39362 14.2V14.2941L3.62766 18.0588C3.62766 18.2471 3.62766 18.5294 3.81915 18.7176C4.01064 18.9059 4.29787 19 4.48936 19H16.6489C16.8404 19 17.0319 18.9059 17.2234 18.7176C17.4149 18.5294 17.4149 18.3412 17.4149 18.1529L17.0319 14.2941V14.2L18.9468 7.61176ZM18.4681 5.63529C18.7553 5.63529 19.0426 5.91765 19.0426 6.2C19.0426 6.48235 18.7553 6.76471 18.4681 6.76471L18.1809 6.67059C17.9894 6.57647 17.8936 6.38824 17.8936 6.2C17.8936 5.91765 18.1809 5.63529 18.4681 5.63529ZM11 3.94118C11.2872 3.94118 11.5745 4.22353 11.5745 4.50588C11.5745 4.78824 11.2872 5.07059 11 5.07059C10.7128 5.07059 10.4255 4.78824 10.4255 4.50588C10.4255 4.22353 10.7128 3.94118 11 3.94118ZM3.53192 5.63529C3.81915 5.63529 4.10638 5.91765 4.10638 6.2C4.10638 6.48235 3.81915 6.76471 3.53192 6.76471C3.24468 6.76471 2.95745 6.48235 2.95745 6.2C2.95745 5.91765 3.24468 5.63529 3.53192 5.63529ZM4.01064 7.61176C4.10638 7.61176 4.20213 7.51765 4.29787 7.51765L8.51064 10.9059L10.9043 6.01176H11H11.0957L13.4894 10.9059L17.7021 7.51765C17.7979 7.51765 17.8936 7.61176 17.8936 7.61176L16.1702 13.9176H5.35106L4.01064 7.61176ZM4.68085 18.0588L5.35106 14.8588H16.1702L16.4574 18.0588H4.68085Z" fill="black"/>
</svg>
