<svg width="22" height="22" viewBox="0 0 22 22" fill="none" xmlns="http://www.w3.org/2000/svg">
<path d="M19.9 9.60001L18.7 11C19.6 11.8 20.2 12.8 20 13.3C19.8 13.7 19.1 14.1 17.3 14.2C17.2 13.1 16.7 11.8 15.1 10.4C15.1 10.4 14.9 10.2 14.4 10.2C14.1 10.2 13.9 10.4 13.9 10.4C13.1 11.2 11.8 11.6 10.6 11.6C9.59997 11.6 8.69997 11.1 8.19997 10.4C8.19997 10.4 7.99997 10.1 7.59997 10.1C7.19997 10.1 6.89997 10.3 6.89997 10.3C5.29997 11.4 4.59997 12.8 4.59997 14.3C2.89997 14.1 2.09997 13.7 1.89997 13.3C1.69997 12.8 2.29997 11.7 3.19997 11L2.09997 9.60001C0.899973 10.6 -0.300027 12.4 0.299973 13.9C0.799973 15.3 2.39997 16 5.09997 16C5.09997 16.2 5.19997 16.3 5.19997 16.4C6.29997 18.5 9.09997 18.6 10.7 18.6C10.8 18.6 10.9 18.6 11.1 18.6C12.7 18.6 15.7 18.6 16.8 16.4C16.9 16.3 16.9 16.1 17 16C19.6 15.9 21.2 15.2 21.7 13.9C22.3 12.3 21.1 10.6 19.9 9.60001Z" fill="#2280E1"/>
<path d="M5.19996 9.59999C6.39996 9.59999 7.39996 8.89999 7.69996 7.79999C8.09996 9.29999 9.39996 10.3 11 10.3C12.6 10.3 13.9 9.19999 14.3 7.79999C14.7 8.79999 15.7 9.59999 16.8 9.59999C18.3 9.59999 19.5 8.39999 19.5 6.89999C19.5 5.39999 18.3 4.19999 16.8 4.19999C15.6 4.19999 14.6 4.89999 14.3 5.99999C13.9 4.49999 12.6 3.39999 11 3.39999C9.39996 3.39999 8.09996 4.49999 7.69996 5.89999C7.29996 4.89999 6.29996 4.09999 5.19996 4.09999C3.59996 4.09999 2.39996 5.39999 2.39996 6.89999C2.39996 8.39999 3.59996 9.59999 5.19996 9.59999Z" fill="#2280E1"/>
</svg>
