<svg width="22" height="22" viewBox="0 0 22 22" fill="none" xmlns="http://www.w3.org/2000/svg">
<path d="M6.23639 10.4728H4.21995C3.63119 10.4728 3.06654 10.7066 2.65022 11.123C2.2339 11.5393 2.00002 12.1039 2.00002 12.6927V17.78C1.9988 18.0719 2.05538 18.3611 2.16651 18.631C2.27764 18.9009 2.44111 19.1461 2.64749 19.3525C2.85388 19.5589 3.09909 19.7224 3.36898 19.8335C3.63886 19.9446 3.92808 20.0012 4.21995 20H17.78C18.0719 20.0012 18.3611 19.9446 18.631 19.8335C18.9009 19.7224 19.1461 19.5589 19.3525 19.3525C19.5589 19.1461 19.7224 18.9009 19.8335 18.631C19.9446 18.3611 20.0012 18.0719 20 17.78V12.6927C20 12.1039 19.7661 11.5393 19.3498 11.123C18.9335 10.7066 18.3688 10.4728 17.78 10.4728H15.7636V4.21994C15.7636 3.63117 15.5297 3.06652 15.1134 2.6502C14.6971 2.23389 14.1324 2 13.5437 2H8.45633C7.86756 2 7.30291 2.23389 6.8866 2.6502C6.47028 3.06652 6.23639 3.63117 6.23639 4.21994V10.4728ZM15.2364 13.2477C15.306 13.2489 15.3751 13.2361 15.4396 13.2101C15.5041 13.184 15.5628 13.1453 15.612 13.096C15.6612 13.0468 15.7 12.9882 15.726 12.9237C15.7521 12.8591 15.7649 12.79 15.7636 12.7204V11.5272H17.78C17.9339 11.526 18.0864 11.5552 18.2289 11.6133C18.3714 11.6713 18.5009 11.757 18.6101 11.8653C18.7193 11.9736 18.806 12.1025 18.8652 12.2445C18.9243 12.3865 18.9548 12.5389 18.9548 12.6927V17.78C18.9548 18.0916 18.831 18.3904 18.6107 18.6107C18.3904 18.831 18.0916 18.9548 17.78 18.9548H12.2765C12.0778 18.9548 11.8872 18.8758 11.7467 18.7353C11.6062 18.5948 11.5272 18.4042 11.5272 18.2055V12.2765C11.526 12.1785 11.5442 12.0813 11.5809 11.9904C11.6175 11.8996 11.6718 11.8169 11.7407 11.7472C11.8095 11.6775 11.8915 11.6222 11.9819 11.5844C12.0723 11.5467 12.1693 11.5272 12.2672 11.5272H14.6999V12.6927C14.6986 12.7631 14.7116 12.833 14.7383 12.8982C14.7649 12.9633 14.8045 13.0224 14.8547 13.0717C14.9049 13.1211 14.9647 13.1596 15.0303 13.1851C15.0959 13.2106 15.166 13.2225 15.2364 13.2199V13.2477ZM7.30011 4.21994C7.30007 3.91156 7.42129 3.61554 7.63761 3.39576C7.85393 3.17598 8.14799 3.05008 8.45633 3.04522H10.4728V4.21994C10.4728 4.35977 10.5283 4.49387 10.6272 4.59275C10.7261 4.69162 10.8602 4.74717 11 4.74717C11.1398 4.74717 11.2739 4.69162 11.3728 4.59275C11.4717 4.49387 11.5272 4.35977 11.5272 4.21994V3.04522H13.5437C13.852 3.05008 14.1461 3.17598 14.3624 3.39576C14.5787 3.61554 14.6999 3.91156 14.6999 4.21994V10.4728H7.30011V4.21994ZM6.76363 13.2199C6.83398 13.2225 6.9041 13.2106 6.96972 13.1851C7.03534 13.1596 7.09508 13.1211 7.14529 13.0717C7.19549 13.0224 7.23512 12.9633 7.26174 12.8982C7.28836 12.833 7.30141 12.7631 7.30011 12.6927V11.5272H9.73279C9.83075 11.5272 9.92773 11.5467 10.0181 11.5844C10.1085 11.6222 10.1905 11.6775 10.2593 11.7472C10.3282 11.8169 10.3825 11.8996 10.4191 11.9904C10.4558 12.0813 10.474 12.1785 10.4728 12.2765V18.2055C10.4728 18.4042 10.3938 18.5948 10.2533 18.7353C10.1128 18.8758 9.92225 18.9548 9.72354 18.9548H4.21995C3.9084 18.9548 3.60961 18.831 3.3893 18.6107C3.169 18.3904 3.04524 18.0916 3.04524 17.78V12.6927C3.04523 12.5389 3.07568 12.3865 3.13483 12.2445C3.19398 12.1025 3.28065 11.9736 3.38986 11.8653C3.49906 11.757 3.62864 11.6713 3.77111 11.6133C3.91358 11.5552 4.06613 11.526 4.21995 11.5272H6.23639V12.6927C6.23514 12.7623 6.24792 12.8314 6.27397 12.8959C6.30002 12.9605 6.33881 13.0191 6.38802 13.0683C6.43723 13.1175 6.49586 13.1563 6.56039 13.1823C6.62492 13.2084 6.69404 13.2212 6.76363 13.2199Z" fill="black"/>
</svg>
