<svg width="22" height="22" viewBox="0 0 22 22" fill="none" xmlns="http://www.w3.org/2000/svg">
<g clip-path="url(#clip0_27_4252)">
<path d="M13.7985 6.93286C13.1642 6.93286 12.6567 7.44032 12.6567 8.07465C12.6567 8.70898 13.1642 9.21644 13.7985 9.21644C14.4329 9.21644 14.9403 8.70898 14.9403 8.07465C14.9403 7.44032 14.4329 6.93286 13.7985 6.93286Z" fill="black"/>
<path d="M6.31342 14.5448L5.80596 14.1642L5.67909 14.291L5.55223 14.4179C4.79103 15.1791 4.28357 16.3209 4.28357 17.5896H4.5373C5.67909 17.5896 6.56715 17.209 7.32835 16.3209C7.45521 16.194 7.58208 16.0672 7.58208 15.9403L7.32835 15.5597V15.6866C6.82088 15.9403 6.31342 15.9403 6.18655 15.9403H5.93282V15.6866C5.93282 15.306 6.05969 14.9254 6.31342 14.5448Z" fill="black"/>
<path d="M13.7985 13.0224C14.1791 12.7687 14.4328 12.3881 14.8134 12.1343C14.9403 12.0075 15.0672 11.8806 15.194 11.7537C18.7463 8.32836 19.1269 5.02985 19 3H18.3657C15.3209 3 12.6567 4.26866 10.1194 6.6791C9.73881 7.0597 9.35821 7.4403 8.85075 7.94776L8.72388 8.07463H8.59701C6.31343 8.07463 4.66418 8.83582 3.14179 10.3582L2 11.3731H7.07463L6.4403 13.1493L8.59701 15.306L10.2463 14.7985V19.8731L11.3881 18.7313C13.0373 17.209 13.7985 15.4328 13.7985 13.1493V13.0224ZM12.7836 13.1493C12.7836 14.4179 12.5299 15.4328 12.0224 16.3209L11.5149 17.209V13.2761L8.97761 14.1642L7.70896 12.8955L8.59701 10.3582H4.53731L5.55224 9.85075C6.4403 9.34328 7.45522 9.21642 8.72388 9.21642H9.23134L9.61194 8.83582C9.99254 8.32836 10.3731 7.94776 10.8806 7.56716C12.9104 5.53731 15.194 4.26866 17.6045 4.14179H17.8582V4.39552C17.7313 6.6791 16.4627 8.96269 14.4328 11.1194L12.7836 12.6418V13.1493Z" fill="black"/>
</g>
<defs>
<clipPath id="clip0_27_4252">
<rect width="17" height="16.8731" fill="white" transform="translate(2 3)"/>
</clipPath>
</defs>
</svg>
