<svg width="22" height="22" viewBox="0 0 22 22" fill="none" xmlns="http://www.w3.org/2000/svg">
<g clip-path="url(#clip0_27_3000)">
<path fill-rule="evenodd" clip-rule="evenodd" d="M6.20005 15.7C4.90005 15.7 3.80005 16.8 3.80005 18.1C3.80005 19.4 4.90005 20.5 6.20005 20.5C7.50005 20.5 8.60005 19.4 8.60005 18.1C8.60005 16.8 7.50005 15.7 6.20005 15.7ZM6.20005 19.4C5.50005 19.4 4.90005 18.8 4.90005 18.1C4.90005 17.4 5.50005 16.8 6.20005 16.8C6.90005 16.8 7.50005 17.4 7.50005 18.1C7.50005 18.8 6.90005 19.4 6.20005 19.4Z" fill="black"/>
<path fill-rule="evenodd" clip-rule="evenodd" d="M15.4 15.7C14.1 15.7 13 16.8 13 18.1C13 19.4 14.1 20.5 15.4 20.5C16.7 20.5 17.8 19.4 17.8 18.1C17.8 16.8 16.7 15.7 15.4 15.7ZM15.4 19.4C14.7 19.4 14.1 18.8 14.1 18.1C14.1 17.4 14.7 16.8 15.4 16.8C16.1 16.8 16.7 17.4 16.7 18.1C16.7 18.8 16.1 19.4 15.4 19.4Z" fill="black"/>
<path fill-rule="evenodd" clip-rule="evenodd" d="M2.30002 3.00002L3.20002 3.50002C3.60002 3.70002 3.90002 4.10002 3.90002 4.50002L4.60002 11.9C4.70002 13.1 5.70002 14.1 7.00002 14.1H16C17 14.1 17.9 13.5 18.2 12.6L19.8 8.30002C20 7.70002 19.9 7.00002 19.5 6.50002C19.2 6.00002 18.6 5.70002 18 5.70002H5.90002C5.50002 5.70002 5.10002 5.40002 5.10002 4.90002V4.40002C4.90002 3.60002 4.40002 2.90002 3.70002 2.50002L2.80002 2.10002C2.50002 1.90002 2.20002 2.00002 2.10002 2.30002C1.90002 2.60002 2.00002 2.90002 2.30002 3.00002ZM5.50002 7.00002C5.70002 6.80002 5.90002 6.70002 6.10002 6.70002H18C18.3 6.70002 18.5 6.80002 18.7 7.10002C18.9 7.40002 18.9 7.60002 18.8 7.90002L17.2 12.2C17 12.7 16.5 13 15.9 13H7.00002C6.30002 13 5.80002 12.5 5.70002 11.8L5.30002 7.70002C5.30002 7.40002 5.40002 7.20002 5.50002 7.00002Z" fill="black"/>
</g>
<defs>
<clipPath id="clip0_27_3000">
<rect width="17.9" height="18.5" fill="white" transform="translate(2 2)"/>
</clipPath>
</defs>
</svg>
