<svg width="22" height="22" viewBox="0 0 22 22" fill="none" xmlns="http://www.w3.org/2000/svg">
<path fill-rule="evenodd" clip-rule="evenodd" d="M4.09231 18H18.4769C18.7385 18 19 17.7342 19 17.4684C19 17.2025 18.7385 16.9367 18.4769 16.9367H4.09231C3.48205 16.9367 2.95897 16.4051 2.95897 15.7848V4.53165C2.95897 4.26582 2.78462 4 2.52308 4C2.26154 4 2 4.26582 2 4.53165V15.8734C2 17.0253 2.95897 18 4.09231 18Z" fill="black"/>
<path d="M5.6615 13.7468C5.39997 13.7468 5.13843 14.0126 5.13843 14.2785C5.13843 14.5443 5.39997 14.8101 5.6615 14.8101H8.88715C13.0718 14.8101 16.3846 11.5316 16.5589 7.27847V6.56961L17.2564 7.27847C17.4307 7.45569 17.7795 7.45569 17.9538 7.27847C18.1282 7.10126 18.1282 6.74683 17.9538 6.56961L16.3846 4.97468C16.3846 4.88607 16.2974 4.88607 16.2974 4.88607C16.123 4.79746 15.8615 4.88607 15.7743 4.97468L14.2051 6.56961C14.1179 6.65822 14.0307 6.74683 14.0307 6.92404C14.0307 7.10126 14.1179 7.18987 14.2051 7.27847C14.3795 7.45569 14.7282 7.45569 14.9025 7.27847L15.6871 6.481V7.27847C15.4256 10.9114 12.4615 13.7468 8.88715 13.7468H5.6615Z" fill="black"/>
</svg>
