<svg width="22" height="22" viewBox="0 0 22 22" fill="none" xmlns="http://www.w3.org/2000/svg">
<path d="M13.75 11.9167C12.7375 11.9167 11.9167 12.7375 11.9167 13.75V19.25C11.9167 20.2625 12.7375 21.0834 13.75 21.0834H19.25C20.2625 21.0834 21.0834 20.2625 21.0834 19.25V13.75C21.0834 12.7375 20.2625 11.9167 19.25 11.9167H17.875C17.6219 11.9167 17.4167 12.1219 17.4167 12.375V13.75C17.4167 14.2563 17.0063 14.6667 16.5 14.6667C15.9938 14.6667 15.5834 14.2563 15.5834 13.75V12.375C15.5834 12.1219 15.3782 11.9167 15.125 11.9167H13.75Z" fill="#2280E1"/>
<path d="M2.75002 11.9167C1.7375 11.9167 0.916687 12.7375 0.916687 13.75V19.25C0.916687 20.2625 1.7375 21.0834 2.75002 21.0834H8.25002C9.26254 21.0834 10.0834 20.2625 10.0834 19.25V13.75C10.0834 12.7375 9.26254 11.9167 8.25002 11.9167H6.87502C6.62189 11.9167 6.41669 12.1219 6.41669 12.375V13.75C6.41669 14.2563 6.00628 14.6667 5.50002 14.6667C4.99376 14.6667 4.58335 14.2563 4.58335 13.75V12.375C4.58335 12.1219 4.37815 11.9167 4.12502 11.9167H2.75002Z" fill="#2280E1"/>
<path d="M8.25002 0.916687C7.2375 0.916687 6.41669 1.7375 6.41669 2.75002V8.25002C6.41669 9.26254 7.2375 10.0834 8.25002 10.0834H13.75C14.7625 10.0834 15.5834 9.26254 15.5834 8.25002V2.75002C15.5834 1.7375 14.7625 0.916687 13.75 0.916687H12.375C12.1219 0.916687 11.9167 1.12189 11.9167 1.37502V2.75002C11.9167 3.25628 11.5063 3.66669 11 3.66669C10.4938 3.66669 10.0834 3.25628 10.0834 2.75002V1.37502C10.0834 1.12189 9.87815 0.916687 9.62502 0.916687H8.25002Z" fill="#2280E1"/>
</svg>
