<svg width="22" height="22" viewBox="0 0 22 22" fill="none" xmlns="http://www.w3.org/2000/svg">
<path fill-rule="evenodd" clip-rule="evenodd" d="M11 0C4.92487 0 0 4.92487 0 11C0 17.0751 4.92487 22 11 22C17.0751 22 22 17.0751 22 11C22 4.92487 17.0751 0 11 0ZM11 0C17.0739 0 22 4.92609 22 11C22 17.0739 17.0739 22 11 22C4.92609 22 0 17.0739 0 11C0 4.92609 4.92609 0 11 0ZM21.0435 11C21.0435 5.45217 16.5478 0.956522 11 0.956522C5.45217 0.956522 0.956522 5.45217 0.956522 11C0.956522 16.5478 5.45217 21.0435 11 21.0435C16.5478 21.0435 21.0435 16.5478 21.0435 11ZM9.70869 7.93913C12.0522 5.59565 14.3957 4.78261 16.6435 4.78261H17.2174C17.4565 7.12609 16.5957 9.75652 14.0609 12.2913C13.6783 12.7217 13.3435 13.0565 12.913 13.3913C12.913 15.3522 12.387 16.787 11 18.1739L10.0435 19.1304V14.8261L8.6087 15.3043L6.69565 13.3913L7.17391 11.9565H2.86957L3.82609 11C5.21304 9.61304 6.64783 9.08696 8.6087 9.08696C8.9913 8.65652 9.32609 8.32174 9.70869 7.93913ZM13.3913 11.6217C15.2565 9.75652 16.2609 7.74783 16.3087 5.73913C14.1565 5.83478 12.2435 6.7913 10.3783 8.6087L10.3782 8.60874C9.99563 8.99132 9.70868 9.27828 9.32609 9.70869L9.03913 10.0435H8.6087C7.26957 10.0435 6.21739 10.3304 5.3087 11H7.17391H8.51304L8.08261 12.2435L7.79565 13.1043L8.89565 14.2043L9.75652 13.9174L11 13.487V14.8261V16.6913C11.6696 15.7826 11.9565 14.7783 11.9565 13.3913V12.913L12.387 12.6261C12.7217 12.3391 13.0087 12.0522 13.3913 11.6217ZM11.9565 9.08696C11.9565 8.56087 12.387 8.13043 12.913 8.13043C13.4391 8.13043 13.8696 8.56087 13.8696 9.08696C13.8696 9.61304 13.4391 10.0435 12.913 10.0435C12.387 10.0435 11.9565 9.61304 11.9565 9.08696ZM5.97826 14.3717C6.02609 14.3359 6.07391 14.3 6.12174 14.2522L6.50435 14.6348C6.21739 15.113 6.16956 15.4957 6.21739 15.7826C6.55217 15.7826 6.93478 15.7826 7.36522 15.5435L7.74783 15.9261C7.7 16.0217 7.60435 16.1174 7.5087 16.213C6.74348 16.9783 5.73913 17.313 4.78261 17.2174C4.73478 16.2609 5.06956 15.2565 5.83478 14.4913C5.88261 14.4435 5.93043 14.4076 5.97826 14.3717Z" fill="#2280E1"/>
</svg>
