<svg width="22" height="22" viewBox="0 0 22 22" fill="none" xmlns="http://www.w3.org/2000/svg">
<path d="M6.41665 20.1667C7.42917 20.1667 8.24998 19.3459 8.24998 18.3333C8.24998 17.3208 7.42917 16.5 6.41665 16.5C5.40412 16.5 4.58331 17.3208 4.58331 18.3333C4.58331 19.3459 5.40412 20.1667 6.41665 20.1667Z" fill="#2280E1"/>
<path d="M15.5833 20.1667C16.5958 20.1667 17.4166 19.3459 17.4166 18.3333C17.4166 17.3208 16.5958 16.5 15.5833 16.5C14.5708 16.5 13.75 17.3208 13.75 18.3333C13.75 19.3459 14.5708 20.1667 15.5833 20.1667Z" fill="#2280E1"/>
<path d="M3.15994 1.93011C2.70713 1.7037 2.15651 1.88724 1.93011 2.34005C1.7037 2.79287 1.88724 3.34348 2.34005 3.56989L3.25993 4.02983C3.54388 4.1718 3.73415 4.45058 3.76289 4.76673L4.43552 12.1656C4.56429 13.5821 5.75191 14.6667 7.17422 14.6667H15.1171C16.3449 14.6667 17.424 13.8527 17.7613 12.6721L18.8809 8.75365C19.2155 7.58249 18.3361 6.41666 17.1181 6.41666H5.75378L5.58869 4.60075C5.50247 3.65229 4.93165 2.81596 4.07983 2.39005L3.15994 1.93011Z" fill="#2280E1"/>
</svg>
