<svg width="22" height="22" viewBox="0 0 22 22" fill="none" xmlns="http://www.w3.org/2000/svg">
<path fill-rule="evenodd" clip-rule="evenodd" d="M15.7848 3.82474C15.2532 3.3299 14.5443 3 13.7468 3H6.92405C5.32911 3 4 4.23711 4 5.72165V16.2784C4 17.7629 5.32911 19 6.92405 19H15.0759C16.6709 19 18 17.7629 18 16.2784V6.95876C18 6.2165 17.7342 5.5567 17.1139 5.06186L15.7848 3.82474ZM17.0253 16.2784C17.0253 17.268 16.1392 18.0928 15.0759 18.0928H6.92405C5.86076 18.0928 4.97468 17.268 4.97468 16.2784V5.72165C4.97468 4.73196 5.86076 3.90722 6.92405 3.90722H12.9494V5.72165C12.9494 6.79381 13.9241 7.70103 15.0759 7.70103H17.0253V16.2784ZM15.0759 6.79381C14.4557 6.79381 13.9241 6.29897 13.9241 5.72165V3.82474L14.3671 3.98969C14.6329 4.07217 14.8987 4.23711 15.0759 4.40206L16.4051 5.63918C16.5823 5.80412 16.7595 6.05155 16.8481 6.29897L17.0253 6.71134H15.0759V6.79381Z" fill="black"/>
<path d="M13.3924 11.3299H8.51897C8.25314 11.3299 8.07593 11.4948 8.07593 11.7423C8.07593 11.9897 8.25314 12.1546 8.51897 12.1546H13.3924C13.6582 12.1546 13.8354 11.9897 13.8354 11.7423C13.924 11.4948 13.6582 11.3299 13.3924 11.3299Z" fill="black"/>
<path d="M11 14.3814H8.51897C8.25314 14.3814 8.07593 14.5464 8.07593 14.7938C8.07593 15.0412 8.25314 15.2062 8.51897 15.2062H11C11.2658 15.2062 11.443 15.0412 11.443 14.7938C11.443 14.5464 11.2658 14.3814 11 14.3814Z" fill="black"/>
</svg>
