<svg width="22" height="22" viewBox="0 0 22 22" fill="none" xmlns="http://www.w3.org/2000/svg">
<g clip-path="url(#clip0_18_1838)">
<path d="M11 9.9C9.30002 9.9 7.90002 8.5 7.90002 6.8C7.90002 5.1 9.30002 3.8 11 3.8C12.7 3.8 14.1 5.2 14.1 6.9C14.1 8.6 12.7 9.9 11 9.9ZM11 4.8C9.90002 4.8 8.90002 5.7 8.90002 6.9C8.90002 8.1 9.80002 9 11 9C12.1 9 13.1 8.1 13.1 6.9C13.1 5.7 12.1 4.8 11 4.8Z" fill="black"/>
<path d="M16.9 9.20001C15.6 9.20001 14.6 8.20001 14.6 6.90001C14.6 5.60001 15.6 4.60001 16.9 4.60001C18.2 4.60001 19.2 5.60001 19.2 6.90001C19.2 8.20001 18.1 9.20001 16.9 9.20001ZM16.9 5.50001C16.2 5.50001 15.6 6.10001 15.6 6.80001C15.6 7.50001 16.2 8.10001 16.9 8.10001C17.6 8.10001 18.2 7.50001 18.2 6.80001C18.2 6.10001 17.6 5.50001 16.9 5.50001Z" fill="black"/>
<path d="M11.1 18.2C8.00001 18.2 6.20001 17.5 5.60001 16.1C4.70001 14.3 6.50001 11.8 8.10001 9.90001L8.80001 10.6C6.90001 12.8 6.00001 14.7 6.50001 15.8C6.90001 16.8 8.50001 17.3 11.1 17.3C13.6 17.3 15.2 16.8 15.6 15.8C16.1 14.7 15.4 12.8 13.7 10.7L14.5 10C15.7 11.5 17.5 14.2 16.5 16.2C15.9 17.5 14 18.2 11.1 18.2Z" fill="black"/>
<path d="M16.6 15.6C16.5 15.6 16.4 15.6 16.3 15.6V14.6C18.6 14.6 20.1 14.2 20.4 13.4C20.7 12.6 19.9 11.4 19 10.6L19.6 9.8C20.8 10.8 21.8 12.4 21.3 13.7C20.9 15 19.3 15.6 16.6 15.6Z" fill="black"/>
<path d="M5.10005 9.20001C3.80005 9.20001 2.80005 8.20001 2.80005 6.90001C2.80005 5.60001 3.80005 4.60001 5.10005 4.60001C6.40005 4.60001 7.50005 5.60001 7.50005 6.90001C7.50005 8.20001 6.40005 9.20001 5.10005 9.20001ZM5.10005 5.50001C4.40005 5.50001 3.80005 6.10001 3.80005 6.80001C3.80005 7.50001 4.40005 8.10001 5.10005 8.10001C5.80005 8.10001 6.50005 7.60001 6.50005 6.90001C6.50005 6.20001 5.90005 5.50001 5.10005 5.50001Z" fill="black"/>
<path d="M5.40002 15.6C2.70002 15.6 1.10002 15 0.700022 13.7C0.200022 12.4 1.20002 10.8 2.40002 9.8L3.00002 10.6C2.10002 11.4 1.30002 12.6 1.60002 13.4C1.90002 14.2 3.40002 14.7 5.70002 14.6V15.6C5.60002 15.6 5.50002 15.6 5.40002 15.6Z" fill="black"/>
</g>
<defs>
<clipPath id="clip0_18_1838">
<rect width="21" height="14.4" fill="white" transform="translate(0.5 3.8)"/>
</clipPath>
</defs>
</svg>
