<svg width="22" height="22" viewBox="0 0 22 22" fill="none" xmlns="http://www.w3.org/2000/svg">
<path fill-rule="evenodd" clip-rule="evenodd" d="M2.75002 2.75C1.7375 2.75 0.916687 3.57081 0.916687 4.58333V17.4167C0.916687 18.4292 1.7375 19.25 2.75002 19.25H19.25C20.2625 19.25 21.0834 18.4292 21.0834 17.4167V4.58333C21.0834 3.57081 20.2625 2.75 19.25 2.75H2.75002ZM15.8518 4.85182C16.2098 4.49384 16.7902 4.49384 17.1482 4.85182L18.9815 6.68515C19.3395 7.04313 19.3395 7.62353 18.9815 7.98151C18.6236 8.3395 18.0432 8.3395 17.6852 7.98151L17.4167 7.71303V8.25C17.4167 13.3126 13.3126 17.4167 8.25002 17.4167H3.66669C3.16043 17.4167 2.75002 17.0063 2.75002 16.5C2.75002 15.9937 3.16043 15.5833 3.66669 15.5833H8.25002C12.3001 15.5833 15.5834 12.3001 15.5834 8.25V7.71303L15.3149 7.98151C14.9569 8.3395 14.3765 8.3395 14.0185 7.98151C13.6605 7.62353 13.6605 7.04313 14.0185 6.68515L15.8518 4.85182Z" fill="#2280E1"/>
</svg>
