<svg width="22" height="22" viewBox="0 0 22 22" fill="none" xmlns="http://www.w3.org/2000/svg">
<g clip-path="url(#clip0_490_22101)">
<path fill-rule="evenodd" clip-rule="evenodd" d="M20.2 7.4L12 2.6C11.7 2.4 11.6 2.3 11.4 2.2L11.3 2.1C11.2 2.1 11.1 2.1 11 2C10.8 2 10.6 2 10.4 2C10.3 2 10.2 2.1 10.1 2.1L10 2.2C9.80002 2.3 9.60002 2.4 9.40002 2.6L1.30002 7.4C1.00002 7.6 0.900024 7.9 1.10002 8.2C1.20002 8.3 1.30002 8.4 1.40002 8.4C1.50002 8.4 1.70002 8.4 1.80002 8.3L3.70002 7.1V16.8C3.70002 17.8 3.70002 18.3 3.90002 18.6C4.00002 18.9 4.30002 19.1 4.50002 19.2C4.80002 19.4 5.30002 19.4 6.30002 19.4H15.1C16.1 19.4 16.6 19.4 16.9 19.2C17.2 19.1 17.4 18.8 17.5 18.6C17.7 18.3 17.7 17.8 17.7 16.8V7.2L19.6 8.4C19.9 8.6 20.2 8.5 20.3 8.2C20.5 7.9 20.4 7.6 20.2 7.4ZM12 18.4H9.40002V14.4C9.40002 13.6 10 13 10.7 13C11.4 13 12 13.6 12 14.3V18.4ZM16.6 16.9C16.6 17.5 16.6 17.8 16.6 18V18.3L16.3 18.4C16.1 18.4 15.7 18.4 15.2 18.4H13.2V14.4C13.2 13.1 12.1 12 10.8 12C9.50002 12 8.30002 13 8.30002 14.3V18.3H6.30002C5.70002 18.3 5.40002 18.3 5.20002 18.3H4.90002V18C4.90002 17.8 4.90002 17.5 4.90002 16.9V6.6L10.7 3L10.9 3.1L16.6 6.5V16.9Z" fill="black"/>
</g>
<defs>
<clipPath id="clip0_490_22101">
<rect width="19.4" height="17.4" fill="white" transform="translate(1 2)"/>
</clipPath>
</defs>
</svg>
