<svg width="22" height="22" viewBox="0 0 22 22" fill="none" xmlns="http://www.w3.org/2000/svg">
<rect x="4" y="17.4666" width="13.8014" height="1.53349" rx="0.766746" fill="#2280E1"/>
<path fill-rule="evenodd" clip-rule="evenodd" d="M4.8325 10.1824L4.44915 10.5657C4.16156 10.8533 4 11.2434 4 11.6501V14.3995C4 15.2464 4.68657 15.9329 5.53349 15.9329H8.28288C8.68958 15.9329 9.07963 15.7714 9.36722 15.4838L9.75057 15.1004L4.8325 10.1824Z" fill="#2280E1"/>
<path fill-rule="evenodd" clip-rule="evenodd" d="M5.91693 9.09807L10.5832 4.43182L15.5013 9.34989L10.835 14.0161L5.91693 9.09807Z" fill="#2280E1"/>
<path fill-rule="evenodd" clip-rule="evenodd" d="M15.5943 2.67372C14.696 1.77543 13.2395 1.77543 12.3412 2.67372L11.6675 3.34747L16.5856 8.26554L17.2593 7.59179C18.1576 6.6935 18.1576 5.23707 17.2593 4.33877L15.5943 2.67372Z" fill="#2280E1"/>
</svg>
