<svg width="22" height="22" viewBox="0 0 22 22" fill="currentColor" xmlns="http://www.w3.org/2000/svg">
  <path fill-rule="evenodd" clip-rule="evenodd" d="M11 2C6 2 2 6 2 11C2 16 6 20 11 20C16 20 20 16 20 11C20 6 16 2 11 2ZM16.75 16.6667C16.5833 16.8333 16.4167 17 16.25 17.1667L16.1667 17.25L15.9167 17.5C15.6667 17.6667 15.4167 17.8333 15.1667 18L15.0833 18.0833C15.0833 18.0833 15.0833 18.0833 15 18.0833C14.75 18.25 14.4167 18.3333 14.1667 18.5C14.0833 18.5 14 18.5833 13.8333 18.5833C13.6667 18.6667 13.5 18.75 13.25 18.75C13.0833 18.8333 12.9167 18.8333 12.75 18.8333C12.6667 18.8333 12.5 18.9167 12.4167 18.9167C12.25 18.9167 12 19 11.8333 19C11.75 19 11.75 19 11.6667 19C11.4167 19 11.25 19.0833 11 19.0833C10.8333 19.0833 10.5833 19.0833 10.4167 19.0833C10.3333 19.0833 10.25 19.0833 10.0833 19.0833C9.91667 19.0833 9.83333 19.0833 9.66667 19C9.5 19 9.25 18.9167 9.08333 18.9167C9 18.9167 8.91667 18.9167 8.83333 18.8333C7.83333 18.5 7 18.0833 6.16667 17.5C4.16667 16 2.91667 13.6667 2.91667 11C2.91667 6.5 6.5 2.91667 11 2.91667C12.0833 2.91667 13.1667 3.16667 14.1667 3.58333C17.0833 4.83333 19.0833 7.66667 19.0833 11C19.0833 12.3333 18.75 13.6667 18.0833 14.8333C18.0833 14.8333 18.0833 14.9167 18 14.9167C17.9167 15.0833 17.75 15.3333 17.6667 15.5C17.6667 15.5833 17.5833 15.5833 17.5833 15.6667C17.5 15.8333 17.3333 16 17.25 16.1667C17.1667 16.25 17.0833 16.3333 17 16.4167C16.9167 16.4167 16.8333 16.5833 16.75 16.6667Z" />
  <g clip-path="url(#clip0_485_11627)">
    <path d="M10.7707 9.04416C10.4557 9.04416 10.1407 9.35911 10.1407 9.67407V13.8735C10.1407 14.2934 10.4557 14.6084 10.7707 14.6084C11.0856 14.6084 11.5056 14.2934 11.5056 13.8735V9.67407C11.5056 9.35911 11.1906 9.04416 10.7707 9.04416Z" />
    <path d="M10.7707 8.20428C11.1185 8.20428 11.4006 7.92226 11.4006 7.57437C11.4006 7.22648 11.1185 6.94446 10.7707 6.94446C10.4228 6.94446 10.1407 7.22648 10.1407 7.57437C10.1407 7.92226 10.4228 8.20428 10.7707 8.20428Z" />
  </g>
  <defs>
    <clipPath id="clip0_485_11627">
      <rect width="1.3648" height="7.66389" fill="white" transform="translate(10.1407 6.94446)" />
    </clipPath>
  </defs>
</svg>