<svg width="22" height="22" viewBox="0 0 22 22" fill="none" xmlns="http://www.w3.org/2000/svg">
<path d="M10.5762 3.31475C10.604 3.22363 10.6602 3.14388 10.7365 3.08723C10.8128 3.03057 10.9051 3 11 3C11.0949 3 11.1872 3.03057 11.2635 3.08723C11.3398 3.14388 11.396 3.22363 11.4238 3.31475L12.9968 8.42811C13.0247 8.51903 13.0807 8.59861 13.1568 8.6552C13.2329 8.71178 13.3251 8.7424 13.4198 8.74258H18.5563C18.6492 8.74251 18.7397 8.77172 18.8151 8.82608C18.8905 8.88045 18.9471 8.95722 18.9767 9.04559C19.0064 9.13395 19.0077 9.22945 18.9805 9.31861C18.9533 9.40777 18.8989 9.48609 18.825 9.54254L14.6328 12.7602C14.5607 12.8156 14.5073 12.8918 14.4797 12.9786C14.4521 13.0654 14.4517 13.1587 14.4785 13.2457L16.071 18.4223C16.0989 18.5127 16.0975 18.6096 16.067 18.6991C16.0364 18.7885 15.9783 18.8659 15.9011 18.92C15.8239 18.9741 15.7315 19.0021 15.6374 18.9999C15.5432 18.9977 15.4522 18.9655 15.3776 18.9078L11.2696 15.7543C11.1922 15.6948 11.0974 15.6625 11 15.6625C10.9026 15.6625 10.8078 15.6948 10.7304 15.7543L6.62243 18.9078C6.54773 18.9651 6.45687 18.997 6.36294 18.999C6.26902 19.001 6.17689 18.973 6.09984 18.919C6.0228 18.8649 5.96483 18.7877 5.93429 18.6985C5.90375 18.6092 5.90222 18.5125 5.92993 18.4223L7.52153 13.2457C7.54834 13.1587 7.54792 13.0654 7.52033 12.9786C7.49274 12.8918 7.43931 12.8156 7.36724 12.7602L3.17499 9.54254C3.1011 9.48609 3.04671 9.40777 3.01949 9.31861C2.99227 9.22945 2.99359 9.13395 3.02327 9.04559C3.05295 8.95722 3.10948 8.88045 3.1849 8.82608C3.26033 8.77172 3.35083 8.74251 3.44366 8.74258H8.58023C8.6748 8.74246 8.76686 8.71197 8.84295 8.65556C8.91904 8.59914 8.97519 8.51976 9.00318 8.429L10.5762 3.31475V3.31475Z" stroke="black"/>
</svg>
