<svg width="22" height="22" viewBox="0 0 22 22" fill="none" xmlns="http://www.w3.org/2000/svg">
<path d="M18.3333 17.2334V8.21899L19.695 9.03603C20.1291 9.2965 20.6922 9.15573 20.9527 8.72161C21.2131 8.2875 21.0724 7.72443 20.6383 7.46396L16.0348 4.7019L12.5137 2.58047L12.5136 2.58039C12.2577 2.4262 12.0613 2.30786 11.8948 2.21887C11.8559 2.19714 11.8165 2.17692 11.7765 2.15823C11.638 2.09062 11.5179 2.04561 11.3945 2.01842C11.1346 1.96114 10.8653 1.96115 10.6054 2.01842C10.4817 2.04568 10.3613 2.09085 10.2223 2.15876C10.183 2.17715 10.1443 2.197 10.1061 2.21832C9.93945 2.30738 9.74273 2.42589 9.48624 2.58043L9.48621 2.58045L5.95983 4.70507L1.36169 7.46396C0.927573 7.72443 0.786805 8.2875 1.04727 8.72161C1.30774 9.15573 1.87081 9.2965 2.30493 9.03603L3.66662 8.21902V17.2334C3.66662 18.2602 3.66662 18.7735 3.86644 19.1657C4.0422 19.5107 4.32267 19.7911 4.66763 19.9669C5.0598 20.1667 5.57319 20.1667 6.59995 20.1667L8.24995 20.1667V14.6667C8.24995 13.1479 9.48116 11.9167 10.9999 11.9167C12.5187 11.9167 13.7499 13.1479 13.7499 14.6667V20.1667L15.3999 20.1667C16.4267 20.1667 16.9401 20.1667 17.3323 19.9669C17.6772 19.7911 17.9577 19.5107 18.1335 19.1657C18.3333 18.7735 18.3333 18.2602 18.3333 17.2334Z" fill="#2280E1"/>
</svg>
