<svg width="22" height="22" viewBox="0 0 22 22" fill="none" xmlns="http://www.w3.org/2000/svg">
<path fill-rule="evenodd" clip-rule="evenodd" d="M11 1.5C5.72222 1.5 1.5 5.72222 1.5 11C1.5 16.2778 5.72222 20.5 11 20.5C16.2778 20.5 20.5 16.2778 20.5 11C20.5 5.72222 16.2778 1.5 11 1.5ZM15.3102 18.3889L15.2222 18.4769C13.9028 19.1806 12.4954 19.6204 11 19.6204C9.50463 19.6204 8.09722 19.1806 6.77778 18.3889L6.68981 18.3009V17.0694C6.68981 14.6944 8.625 12.7593 11 12.7593C13.375 12.7593 15.3102 14.6944 15.3102 17.0694V18.3889ZM8.44907 9.24074C8.44907 7.83333 9.59259 6.68981 11 6.68981C12.4074 6.68981 13.5509 7.83333 13.5509 9.24074C13.5509 10.6481 12.4074 11.7917 11 11.7917C9.59259 11.7917 8.44907 10.6481 8.44907 9.24074ZM16.3657 17.5972L16.1019 17.8611V17.1574C16.1019 15.0463 14.7824 13.1111 12.7593 12.4074L12.4074 12.3194L12.6713 12.1435C13.6389 11.5278 14.2546 10.4722 14.2546 9.3287C14.2546 7.48148 12.7593 5.98611 10.912 5.98611C9.15278 5.89815 7.65741 7.39352 7.65741 9.24074C7.65741 10.3843 8.27315 11.4398 9.24074 12.0556L9.50463 12.2315L9.15278 12.3194C7.12963 13.0231 5.81018 14.9583 5.81018 17.0694V17.7731L5.5463 17.5093C3.52315 15.838 2.37963 13.463 2.37963 10.912C2.37963 6.16204 6.25 2.37963 10.912 2.37963C15.662 2.37963 19.4444 6.25 19.4444 10.912C19.5324 13.5509 18.3889 15.9259 16.3657 17.5972Z" fill="black"/>
</svg>
