<svg class="attach-file" width="48" height="50" viewBox="0 0 48 50" fill="none" xmlns="http://www.w3.org/2000/svg"><path d="M24 50C37.2548 50 48 38.8071 48 25C48 11.1929 37.2548 0 24 0C10.7452 0 0 11.1929 0 25C0 38.8071 10.7452 50 24 50Z" fill="url(#paint0_linear)"></path><path d="M34.3296 12H14.5312C12.8738 12 11.52 13.3986 11.52 15.1251V35.7477C11.52 37.4764 12.8745 38.8851 14.5312 38.8851H34.3296C35.9863 38.8851 37.3297 37.4764 37.3297 35.7477V15.1258C37.3297 13.3978 35.9863 12 34.3296 12ZM33.9223 34.0158C33.7571 34.3336 33.4394 34.5219 33.0928 34.5219H16.1286C15.8301 34.5219 15.5494 34.383 15.3717 34.1346C15.194 33.8847 15.1399 33.5668 15.2258 33.2683L17.6527 24.9068C17.8126 24.3567 18.2585 23.9502 18.8035 23.8569C19.3486 23.7643 19.8966 24.0034 20.2165 24.4717L23.6098 29.4374C24.0668 30.1062 24.9517 30.2721 25.6012 29.8107L28.7257 27.6006C29.0471 27.373 29.4418 27.2905 29.8217 27.3699C30.2031 27.4486 30.5371 27.6847 30.7497 28.0241L33.8816 33.0168C34.0711 33.32 34.0867 33.6995 33.9223 34.0158Z" fill="white"></path><defs><linearGradient id="paint0_linear" x1="24" y1="0" x2="24" y2="50" gradientUnits="userSpaceOnUse"><stop stop-color="#00C7FF"></stop><stop offset="1" stop-color="#008FFF"></stop></linearGradient></defs></svg>