<svg width="50" height="50" viewBox="0 0 48 38" fill="none" xmlns="http://www.w3.org/2000/svg">
  <path d="M48.0001 29.8076C48.0001 33.8497 44.724 37.1274 40.6803 37.1274H0.940918V8.19394C0.940918 4.15075 4.21745 0.873144 8.26122 0.873144L47.9996 0.873047L47.9997 29.8075L48.0001 29.8076Z" fill="white" />
  <path d="M35.045 19.6348C36.1799 19.6594 37.3215 19.5847 38.452 19.6737C39.5969 19.8873 39.8729 21.6205 38.8557 22.1882C38.1621 22.5623 37.3372 22.3274 36.5848 22.3935H35.0451L35.045 19.6348ZM39.1083 16.5126C39.3605 17.4027 38.5024 18.2019 37.6449 18.0793H35.045C35.063 17.2399 35.0093 16.3289 35.0713 15.5337C36.1131 15.5629 37.1644 15.4738 38.1999 15.5802C38.6449 15.692 39.0172 16.0578 39.1083 16.5126ZM45.3663 3.31241C45.4147 5.01231 45.3732 6.80205 45.3871 8.53643C45.3837 15.5878 45.3941 22.6389 45.3817 29.6907C45.3361 32.3333 42.9941 34.6292 40.3697 34.682C37.7426 34.6927 35.1153 34.6835 32.4882 34.6865V24.0264C35.3507 24.0114 38.215 24.0562 41.0763 24.0038C42.4038 23.9204 43.8574 23.0446 43.9193 21.5839C44.0757 20.1169 42.6924 19.1021 41.3791 18.9418C40.8743 18.9287 40.8892 18.7946 41.3791 18.7362C42.6314 18.4655 43.6151 17.1692 43.2466 15.8709C42.9323 14.5054 41.4232 13.9769 40.1678 13.9796C37.6083 13.9621 35.0481 13.977 32.4884 13.9721C32.5051 11.982 32.454 9.98971 32.5162 8.00104C32.7189 5.40608 35.1199 3.26617 37.7076 3.31251H45.3663V3.31241Z" fill="url(#paint0_linear_12_3805)" />
  <path d="M3.56261 8.27019C3.62808 5.63181 5.98012 3.35427 8.60131 3.31581C11.2184 3.30775 13.8358 3.31464 16.4531 3.31231C16.4459 12.1401 16.4675 20.9689 16.4422 29.7962C16.3414 32.4027 14.0149 34.6367 11.4226 34.6826C8.80042 34.6923 6.17797 34.684 3.55572 34.6867V23.6672C6.10279 24.2688 8.77381 24.525 11.3722 24.1257C12.9256 23.8757 14.6249 23.1132 15.1508 21.5018C15.5379 20.1234 15.32 18.6728 15.3775 17.258V13.9727H10.8806C10.8604 16.1454 10.922 18.3221 10.8481 20.4926C10.7268 21.8266 9.40604 22.6742 8.1478 22.6289C6.58729 22.6454 3.4954 21.4984 3.4954 21.4984C3.48763 17.4269 3.54066 12.3283 3.56261 8.27106V8.27019Z" fill="url(#paint1_linear_12_3805)" />
  <path d="M18.1301 15.2983C17.8937 15.3485 18.0826 14.492 18.022 14.1671C18.0381 12.1128 17.9883 10.0562 18.0495 8.00332C18.2518 5.39738 20.6712 3.25204 23.2693 3.31304H30.9199C30.9128 12.1407 30.9342 20.9696 30.9091 29.7969C30.8082 32.4033 28.4816 34.6372 25.8893 34.6834C23.267 34.6931 20.6445 34.6848 18.0219 34.6875V22.6141C19.813 24.0835 22.2472 24.3123 24.4785 24.3162C26.1605 24.3157 27.8329 24.0565 29.4662 23.6684V21.4565C27.6253 22.374 25.4613 22.9568 23.4205 22.4297C21.997 22.0751 20.9637 20.6996 20.9868 19.2304C20.8217 17.7028 21.7176 16.0897 23.2189 15.6355C25.0828 15.0519 27.1146 15.4983 28.8619 16.2569C29.2362 16.453 29.6161 16.696 29.4662 16.0703V14.3316C26.5441 13.6365 23.4343 13.3805 20.4982 14.137C19.6484 14.3768 18.8206 14.7403 18.1301 15.2985V15.2983Z" fill="url(#paint2_linear_12_3805)" />
  <defs>
    <linearGradient id="paint0_linear_12_3805" x1="32.4384" y1="19.0569" x2="45.3442" y2="19.0569" gradientUnits="userSpaceOnUse">
      <stop stop-color="#007B40" />
      <stop offset="1" stop-color="#55B330" />
    </linearGradient>
    <linearGradient id="paint1_linear_12_3805" x1="3.58642" y1="19.0566" x2="16.4819" y2="19.0566" gradientUnits="userSpaceOnUse">
      <stop stop-color="#1D2970" />
      <stop offset="1" stop-color="#006DBA" />
    </linearGradient>
    <linearGradient id="paint2_linear_12_3805" x1="18.0325" y1="19.4016" x2="30.9342" y2="19.4016" gradientUnits="userSpaceOnUse">
      <stop stop-color="#6E2B2F" />
      <stop offset="1" stop-color="#E30138" />
    </linearGradient>
  </defs>
</svg>