<svg xmlns="http://www.w3.org/2000/svg" viewBox="0 0 83.67 83.67"><clipPath id="a"><path d="M0 0h83.67v83.67H0z"/></clipPath><g clip-path="url(#a)"><path d="M65.37 0H18.3A18.31 18.31 0 0 0 0 18.3v47.07a18.3 18.3 0 0 0 18.3 18.3h47.07a18.3 18.3 0 0 0 18.3-18.3V18.3A18.3 18.3 0 0 0 65.37 0" fill="#f5f5f5"/><path d="M49.84 29.82a14.43 14.43 0 0 0-20 4 7.21 7.21 0 0 0 12 8 7.21 7.21 0 1 1 12 8 14.44 14.44 0 0 0-4-20" fill="#ff4b55"/><path d="M29.84 33.84a7.21 7.21 0 0 0 12 8 7.21 7.21 0 1 1 12 8 14.42 14.42 0 1 1-24-16" fill="#41479b"/><g fill="#464655"><path d="m57.18 24.38 2.62 3.94a.71.71 0 0 1-.2 1l-.66.45a.72.72 0 0 1-1-.2l-2.63-3.94a.72.72 0 0 1 .2-1l.67-.44a.72.72 0 0 1 1 .2M61.23 30.46l2.63 3.93a.73.73 0 0 1-.2 1l-.67.44a.71.71 0 0 1-1-.2l-2.63-3.93a.74.74 0 0 1 .2-1l.66-.44a.72.72 0 0 1 1 .2M60 22.51l6.67 10a.72.72 0 0 1-.2 1l-.67.45a.72.72 0 0 1-1-.2l-6.68-10a.72.72 0 0 1 .2-1l.68-.45a.73.73 0 0 1 1 .2M62.78 20.64l2.63 3.95a.72.72 0 0 1-.2 1l-.67.44a.72.72 0 0 1-1-.2l-2.63-3.94a.72.72 0 0 1 .2-1l.67-.45a.72.72 0 0 1 1 .2M66.83 26.73l2.63 3.94a.71.71 0 0 1-.2 1l-.67.45a.72.72 0 0 1-1-.2L65 28a.72.72 0 0 1 .2-1l.66-.44a.71.71 0 0 1 1 .2M21.68 48.05l6.68 10a.72.72 0 0 1-.2 1l-.67.45a.72.72 0 0 1-1-.2l-6.67-10a.72.72 0 0 1 .2-1l.66-.44a.72.72 0 0 1 1 .2M18.88 49.91l2.62 3.93a.72.72 0 0 1-.2 1l-.66.45a.72.72 0 0 1-1-.2L17 51.16a.71.71 0 0 1 .2-1l.66-.45a.72.72 0 0 1 1 .2M22.94 56l2.62 3.93a.72.72 0 0 1-.2 1l-.66.45a.72.72 0 0 1-1-.2l-2.63-3.94a.72.72 0 0 1 .2-1l.67-.44a.71.71 0 0 1 1 .2M16.09 51.78l6.66 10a.71.71 0 0 1-.19 1l-.67.45a.72.72 0 0 1-1-.2L14.22 53a.72.72 0 0 1 .2-1l.67-.45a.72.72 0 0 1 1 .2M19.82 34.39l6.67-10a.71.71 0 0 1 1-.2l.67.44a.72.72 0 0 1 .2 1l-6.68 10a.72.72 0 0 1-1 .2l-.68-.44a.71.71 0 0 1-.2-1M17 32.52l6.67-10a.72.72 0 0 1 1-.2l.67.45a.72.72 0 0 1 .2 1l-6.68 10a.71.71 0 0 1-1 .2l-.67-.45a.71.71 0 0 1-.2-1M14.22 30.67l6.67-10a.72.72 0 0 1 1-.2l.67.45a.72.72 0 0 1 .2 1l-6.67 10a.71.71 0 0 1-1 .2l-.67-.44a.71.71 0 0 1-.2-1M55.31 58l2.62-3.93a.74.74 0 0 1 1-.2l.66.45a.72.72 0 0 1 .2 1l-2.62 3.93a.72.72 0 0 1-1 .2l-.66-.45a.72.72 0 0 1-.2-1M59.37 52l2.62-4a.72.72 0 0 1 1-.2l.67.44a.71.71 0 0 1 .2 1l-2.63 4a.73.73 0 0 1-1 .2l-.66-.44a.73.73 0 0 1-.2-1M58.11 59.93 60.74 56a.71.71 0 0 1 1-.2l.67.44a.72.72 0 0 1 .2 1L60 61.18a.73.73 0 0 1-1 .2l-.68-.45a.72.72 0 0 1-.2-1M62.17 53.84l2.62-3.93a.72.72 0 0 1 1-.2l.67.45a.71.71 0 0 1 .2 1L64 55.09a.72.72 0 0 1-1 .2l-.67-.45a.72.72 0 0 1-.2-1M60.91 61.79l2.63-3.93a.72.72 0 0 1 1-.2l.66.44a.72.72 0 0 1 .21 1L62.78 63a.72.72 0 0 1-1 .2l-.67-.45a.72.72 0 0 1-.2-1M65 55.72l2.62-3.94a.72.72 0 0 1 1-.2l.66.44a.73.73 0 0 1 .2 1L66.83 57a.72.72 0 0 1-1 .2l-.66-.44a.71.71 0 0 1-.2-1"/></g></g></svg>