<svg width="175" height="31" viewBox="0 0 175 31" fill="none" xmlns="http://www.w3.org/2000/svg">
<path d="M58.5111 1.09448C58.6775 1.26086 58.744 1.39396 58.7107 1.49379C58.7107 1.56034 58.744 1.67681 58.8106 1.84319C58.8771 2.10939 58.8937 2.30905 58.8605 2.44215C58.8272 2.54198 58.6775 2.725 58.4112 2.9912C58.2449 3.15758 58.0452 3.3406 57.8123 3.54025C57.5794 3.70663 57.3797 3.87301 57.2133 4.03939C56.6144 4.63836 55.9821 5.30387 55.3166 6.03594C54.6511 6.768 54.0022 7.51671 53.37 8.28205C52.7377 9.01412 52.1221 9.74619 51.5232 10.4783C50.9575 11.177 50.475 11.8259 50.0757 12.4249C51.1072 13.523 52.0888 14.7542 53.0206 16.1185C53.9856 17.4495 54.7842 18.6807 55.4164 19.8121C55.483 19.9785 55.5828 20.2946 55.7159 20.7605C55.849 21.1931 55.9156 21.4925 55.9156 21.6589C55.9156 21.8253 55.9488 21.9584 56.0154 22.0582C56.0819 22.1248 56.1485 22.208 56.215 22.3078C56.2816 22.4076 56.3481 22.5241 56.4147 22.6572C56.4813 22.7903 56.4979 22.9733 56.4646 23.2062C56.4313 23.3726 56.448 23.5556 56.5145 23.7553C56.6144 23.9217 56.5312 24.0881 56.265 24.2544L48.1789 15.1701C47.2472 16.4013 46.2323 17.9653 45.1342 19.862C44.0361 21.7255 43.0046 23.6222 42.0396 25.5522C41.9397 25.6853 41.8732 25.7186 41.8399 25.652C41.8399 25.5855 41.7401 25.6021 41.5404 25.7019C41.5071 25.3359 41.4905 25.0198 41.4905 24.7536C41.4905 24.4541 41.4905 24.0881 41.4905 23.6555C41.4905 23.4225 41.4572 23.1563 41.3907 22.8569C41.3241 22.5574 41.3241 22.2912 41.3907 22.0582C41.5238 21.3927 41.7567 20.6773 42.0895 19.9119C42.4555 19.1466 42.8382 18.3813 43.2375 17.6159C43.6701 16.8506 44.1027 16.1019 44.5352 15.3698C45.0011 14.6377 45.4337 13.9722 45.833 13.3733C44.1359 12.1088 42.5387 10.9608 41.0413 9.92921C39.5439 8.86438 38.1629 7.89938 36.8984 7.03421L36.1997 6.48516C36.1997 6.31878 36.1497 6.1524 36.0499 5.98602C35.9834 5.78637 35.9834 5.58672 36.0499 5.38706C36.1165 5.25396 36.1664 5.15413 36.1997 5.08758C36.2662 4.98775 36.3827 4.88792 36.5491 4.7881C36.6822 4.72154 36.782 4.67163 36.8485 4.63836C36.9151 4.60508 37.0149 4.60508 37.148 4.63836C38.113 4.87129 38.9948 5.15413 39.7934 5.48689C40.5921 5.78637 41.3574 6.1524 42.0895 6.58499C42.8548 6.9843 43.6035 7.43352 44.3356 7.93266C45.0677 8.4318 45.833 8.98085 46.6316 9.57981L47.58 10.4283C48.312 9.46334 49.1107 8.44843 49.9758 7.38361C50.8743 6.28551 51.7894 5.27059 52.7211 4.33887C53.6861 3.40715 54.6511 2.64181 55.6161 2.04284C56.6144 1.4106 57.5794 1.09448 58.5111 1.09448Z" fill="black"/>
<path d="M76.3696 14.6116C76.2969 14.7327 76.1879 14.8175 76.0426 14.8659C75.9214 14.8902 75.8003 14.9386 75.6792 15.0113C75.5581 15.084 75.4369 15.1809 75.3158 15.302C75.1947 15.4231 75.0736 15.52 74.9524 15.5927C75.2916 16.9008 75.5581 18.0394 75.7519 19.0084C75.9457 19.9774 76.0668 20.7041 76.1152 21.1886C76.1637 21.6731 76.2 22.206 76.2242 22.7874C76.2485 23.3688 76.2606 23.9018 76.2606 24.3863C76.2606 24.7497 76.2363 25.0525 76.1879 25.2947C76.1637 25.5127 76.1152 25.7308 76.0426 25.9488C75.7519 25.5854 75.5096 25.1978 75.3158 24.786C75.1462 24.3742 74.9645 23.9623 74.7707 23.5505C74.3589 22.3151 73.9592 21.019 73.5716 19.6624C73.2083 18.3059 72.8449 16.925 72.4815 15.52C71.8032 15.4958 71.0765 15.4837 70.3013 15.4837C69.5261 15.4837 68.7509 15.4837 67.9757 15.4837C67.2005 15.4837 66.4617 15.4958 65.7591 15.52C65.0808 15.52 64.4873 15.5321 63.9786 15.5563C63.9302 15.7017 63.8817 15.8713 63.8333 16.0651C63.6879 16.38 63.5668 16.7312 63.4699 17.1188C63.373 17.4822 63.2882 17.8819 63.2155 18.318C63.1429 18.7298 63.0581 19.1658 62.9612 19.6261C62.8643 20.0864 62.7431 20.5467 62.5978 21.0069C62.9127 21.0069 63.2155 20.91 63.5062 20.7162C63.8212 20.4982 64.1361 20.3892 64.451 20.3892C64.233 20.6072 64.0392 20.8495 63.8696 21.1159C63.7243 21.3824 63.591 21.7337 63.4699 22.1697C63.4457 22.2908 63.373 22.4241 63.2519 22.5694C63.1307 22.6905 63.046 22.7874 62.9975 22.8601C62.9491 22.957 62.9006 23.066 62.8522 23.1872C62.8037 23.2841 62.7431 23.3567 62.6705 23.4052C62.5009 23.5021 62.3556 23.5626 62.2344 23.5869C62.1133 23.5869 62.0285 23.5505 61.9801 23.4778C61.7863 23.1872 61.653 22.8843 61.5804 22.5694C61.5319 22.2303 61.4835 21.879 61.435 21.5156C61.435 20.8616 61.5198 20.0137 61.6894 18.972C61.8589 17.9304 62.077 16.816 62.3434 15.629C62.1496 15.5806 61.9558 15.4958 61.762 15.3747C61.5682 15.2293 61.3987 15.1324 61.2533 15.084C60.9869 14.9628 60.7688 14.9023 60.5993 14.9023C60.4297 14.8781 60.248 14.7812 60.0542 14.6116L62.2708 14.0302C62.3919 14.0302 62.5494 14.006 62.7431 13.9575C63.0338 12.8189 63.3245 11.7288 63.6152 10.6872C63.9059 9.6455 64.1845 8.7613 64.451 8.03455C64.6448 7.47738 64.8749 6.83543 65.1414 6.10868C65.4321 5.38194 65.7591 4.69153 66.1225 4.03746C66.5101 3.35917 66.934 2.77777 67.3943 2.29328C67.8788 1.80878 68.3996 1.50597 68.9568 1.38485C69.1264 1.3364 69.296 1.30006 69.4655 1.27584C69.6351 1.25161 69.8168 1.2395 70.0106 1.2395C70.2044 1.2395 70.3497 1.3364 70.4466 1.5302C70.5435 1.69977 70.6889 1.91779 70.8827 2.18427C71.0038 2.40229 71.1128 2.59609 71.2097 2.76566C71.3308 2.91101 71.452 3.22593 71.5731 3.71043C72.1545 5.47884 72.6995 7.25936 73.2083 9.05199C73.717 10.8204 74.1651 12.4919 74.5527 14.0665L76.7693 14.5389L76.3696 14.6116ZM68.9568 2.94735C68.545 3.50452 68.1574 4.12225 67.794 4.80054C67.4306 5.45461 67.0673 6.21769 66.7039 7.08978C66.3405 7.93765 65.9772 8.91876 65.6138 10.0331C65.2504 11.1232 64.8749 12.3587 64.4873 13.7395C65.747 13.5941 67.0067 13.5094 68.2664 13.4851C69.5261 13.4609 70.7737 13.5094 72.0091 13.6305C71.5004 11.6683 71.0038 9.76662 70.5193 7.92554C70.0348 6.06023 69.514 4.40084 68.9568 2.94735Z" fill="black"/>
<path d="M120.593 14.6116C120.52 14.7327 120.411 14.8175 120.266 14.8659C120.145 14.8902 120.024 14.9386 119.903 15.0113C119.782 15.084 119.66 15.1809 119.539 15.302C119.418 15.4231 119.297 15.52 119.176 15.5927C119.515 16.9008 119.782 18.0394 119.975 19.0084C120.169 19.9774 120.29 20.7041 120.339 21.1886C120.387 21.6731 120.424 22.206 120.448 22.7874C120.472 23.3688 120.484 23.9018 120.484 24.3863C120.484 24.7497 120.46 25.0525 120.411 25.2947C120.387 25.5127 120.339 25.7308 120.266 25.9488C119.975 25.5854 119.733 25.1978 119.539 24.786C119.37 24.3742 119.188 23.9623 118.994 23.5505C118.582 22.3151 118.183 21.019 117.795 19.6624C117.432 18.3059 117.068 16.925 116.705 15.52C116.027 15.4958 115.3 15.4837 114.525 15.4837C113.75 15.4837 112.974 15.4837 112.199 15.4837C111.424 15.4837 110.685 15.4958 109.983 15.52C109.304 15.52 108.711 15.5321 108.202 15.5563C108.154 15.7017 108.105 15.8713 108.057 16.0651C107.911 16.38 107.79 16.7312 107.693 17.1188C107.597 17.4822 107.512 17.8819 107.439 18.318C107.366 18.7298 107.282 19.1658 107.185 19.6261C107.088 20.0864 106.967 20.5467 106.821 21.0069C107.136 21.0069 107.439 20.91 107.73 20.7162C108.045 20.4982 108.36 20.3892 108.675 20.3892C108.456 20.6072 108.263 20.8495 108.093 21.1159C107.948 21.3824 107.815 21.7337 107.693 22.1697C107.669 22.2908 107.597 22.4241 107.475 22.5694C107.354 22.6905 107.269 22.7874 107.221 22.8601C107.173 22.957 107.124 23.066 107.076 23.1872C107.027 23.2841 106.967 23.3567 106.894 23.4052C106.724 23.5021 106.579 23.5626 106.458 23.5869C106.337 23.5869 106.252 23.5505 106.204 23.4778C106.01 23.1872 105.877 22.8843 105.804 22.5694C105.755 22.2303 105.707 21.879 105.659 21.5156C105.659 20.8616 105.743 20.0137 105.913 18.972C106.082 17.9304 106.3 16.816 106.567 15.629C106.373 15.5806 106.179 15.4958 105.986 15.3747C105.792 15.2293 105.622 15.1324 105.477 15.084C105.21 14.9628 104.992 14.9023 104.823 14.9023C104.653 14.8781 104.472 14.7812 104.278 14.6116L106.494 14.0302C106.615 14.0302 106.773 14.006 106.967 13.9575C107.257 12.8189 107.548 11.7288 107.839 10.6872C108.129 9.6455 108.408 8.7613 108.675 8.03455C108.868 7.47738 109.098 6.83543 109.365 6.10868C109.656 5.38194 109.983 4.69153 110.346 4.03746C110.734 3.35917 111.158 2.77777 111.618 2.29328C112.102 1.80878 112.623 1.50597 113.18 1.38485C113.35 1.3364 113.519 1.30006 113.689 1.27584C113.859 1.25161 114.04 1.2395 114.234 1.2395C114.428 1.2395 114.573 1.3364 114.67 1.5302C114.767 1.69977 114.912 1.91779 115.106 2.18427C115.227 2.40229 115.336 2.59609 115.433 2.76566C115.554 2.91101 115.675 3.22593 115.797 3.71043C116.378 5.47884 116.923 7.25936 117.432 9.05199C117.94 10.8204 118.389 12.4919 118.776 14.0665L120.993 14.5389L120.593 14.6116ZM113.18 2.94735C112.768 3.50452 112.381 4.12225 112.018 4.80054C111.654 5.45461 111.291 6.21769 110.927 7.08978C110.564 7.93765 110.201 8.91876 109.837 10.0331C109.474 11.1232 109.098 12.3587 108.711 13.7395C109.971 13.5941 111.23 13.5094 112.49 13.4851C113.75 13.4609 114.997 13.5094 116.233 13.6305C115.724 11.6683 115.227 9.76662 114.743 7.92554C114.258 6.06023 113.737 4.40084 113.18 2.94735Z" fill="black"/>
<path d="M174.4 14.6116C174.327 14.7327 174.218 14.8175 174.073 14.8659C173.951 14.8902 173.83 14.9386 173.709 15.0113C173.588 15.084 173.467 15.1809 173.346 15.302C173.225 15.4231 173.104 15.52 172.982 15.5927C173.322 16.9008 173.588 18.0394 173.782 19.0084C173.976 19.9774 174.097 20.7041 174.145 21.1886C174.194 21.6731 174.23 22.206 174.254 22.7874C174.278 23.3688 174.291 23.9018 174.291 24.3863C174.291 24.7497 174.266 25.0525 174.218 25.2947C174.194 25.5127 174.145 25.7308 174.073 25.9488C173.782 25.5854 173.54 25.1978 173.346 24.786C173.176 24.3742 172.995 23.9623 172.801 23.5505C172.389 22.3151 171.989 21.019 171.602 19.6624C171.238 18.3059 170.875 16.925 170.512 15.52C169.833 15.4958 169.107 15.4837 168.331 15.4837C167.556 15.4837 166.781 15.4837 166.006 15.4837C165.231 15.4837 164.492 15.4958 163.789 15.52C163.111 15.52 162.517 15.5321 162.009 15.5563C161.96 15.7017 161.912 15.8713 161.863 16.0651C161.718 16.38 161.597 16.7312 161.5 17.1188C161.403 17.4822 161.318 17.8819 161.246 18.318C161.173 18.7298 161.088 19.1658 160.991 19.6261C160.894 20.0864 160.773 20.5467 160.628 21.0069C160.943 21.0069 161.246 20.91 161.536 20.7162C161.851 20.4982 162.166 20.3892 162.481 20.3892C162.263 20.6072 162.069 20.8495 161.9 21.1159C161.754 21.3824 161.621 21.7337 161.5 22.1697C161.476 22.2908 161.403 22.4241 161.282 22.5694C161.161 22.6905 161.076 22.7874 161.028 22.8601C160.979 22.957 160.931 23.066 160.882 23.1872C160.834 23.2841 160.773 23.3567 160.701 23.4052C160.531 23.5021 160.386 23.5626 160.264 23.5869C160.143 23.5869 160.059 23.5505 160.01 23.4778C159.816 23.1872 159.683 22.8843 159.61 22.5694C159.562 22.2303 159.513 21.879 159.465 21.5156C159.465 20.8616 159.55 20.0137 159.719 18.972C159.889 17.9304 160.107 16.816 160.373 15.629C160.18 15.5806 159.986 15.4958 159.792 15.3747C159.598 15.2293 159.429 15.1324 159.283 15.084C159.017 14.9628 158.799 14.9023 158.629 14.9023C158.46 14.8781 158.278 14.7812 158.084 14.6116L160.301 14.0302C160.422 14.0302 160.579 14.006 160.773 13.9575C161.064 12.8189 161.355 11.7288 161.645 10.6872C161.936 9.6455 162.215 8.7613 162.481 8.03455C162.675 7.47738 162.905 6.83543 163.171 6.10868C163.462 5.38194 163.789 4.69153 164.153 4.03746C164.54 3.35917 164.964 2.77777 165.424 2.29328C165.909 1.80878 166.43 1.50597 166.987 1.38485C167.156 1.3364 167.326 1.30006 167.496 1.27584C167.665 1.25161 167.847 1.2395 168.041 1.2395C168.234 1.2395 168.38 1.3364 168.477 1.5302C168.574 1.69977 168.719 1.91779 168.913 2.18427C169.034 2.40229 169.143 2.59609 169.24 2.76566C169.361 2.91101 169.482 3.22593 169.603 3.71043C170.185 5.47884 170.73 7.25936 171.238 9.05199C171.747 10.8204 172.195 12.4919 172.583 14.0665L174.799 14.5389L174.4 14.6116ZM166.987 2.94735C166.575 3.50452 166.187 4.12225 165.824 4.80054C165.461 5.45461 165.097 6.21769 164.734 7.08978C164.371 7.93765 164.007 8.91876 163.644 10.0331C163.28 11.1232 162.905 12.3587 162.517 13.7395C163.777 13.5941 165.037 13.5094 166.296 13.4851C167.556 13.4609 168.804 13.5094 170.039 13.6305C169.53 11.6683 169.034 9.76662 168.549 7.92554C168.065 6.06023 167.544 4.40084 166.987 2.94735Z" fill="black"/>
<path d="M100.987 1.06836C101.02 1.39579 101.003 1.82146 100.938 2.34535C100.872 2.86925 100.807 3.3604 100.741 3.8188C100.676 4.14624 100.692 4.53916 100.791 4.99756C100.889 5.42323 100.954 5.78341 100.987 6.0781C100.791 6.70022 100.594 7.46969 100.398 8.38651C100.201 9.27058 100.021 10.2201 99.8573 11.2352C99.6936 12.2175 99.5299 13.1998 99.3662 14.1821C99.2352 15.1644 99.1533 16.0485 99.1206 16.8343C99.317 17.4564 99.4971 17.9803 99.6609 18.406C99.8573 18.8316 100.021 19.2409 100.152 19.6339C100.283 19.994 100.381 20.387 100.447 20.8126C100.512 21.2383 100.545 21.7622 100.545 22.3843C100.316 22.6135 100.168 22.7608 100.103 22.8263C100.07 22.8591 99.9392 22.9573 99.71 23.121C99.5135 23.2847 99.317 23.3175 99.1206 23.2193C98.9569 23.121 98.7768 23.0719 98.5803 23.0719C98.2856 23.0719 98.1383 23.0392 98.1383 22.9737C98.1383 22.9082 98.0564 22.7936 97.8927 22.6299C97.3688 22.106 96.9268 21.5821 96.5666 21.0582C96.2392 20.5016 95.9281 19.9613 95.6334 19.4374C95.3387 18.8808 95.0604 18.3241 94.7985 17.7675C94.5693 17.2108 94.2909 16.6542 93.9635 16.0976C93.5706 15.3772 93.0794 14.5423 92.4901 13.5927C91.9334 12.6104 91.3113 11.6608 90.6237 10.744C89.9361 9.82721 89.183 9.00863 88.3644 8.28828C87.5785 7.56792 86.7763 7.10951 85.9577 6.91305C85.2047 9.46704 84.7626 11.9555 84.6316 14.3785C84.5334 16.7688 84.6971 19.0117 85.1228 21.1073C85.1555 21.402 85.1555 21.5985 85.1228 21.6967C85.0901 21.7949 85.0409 21.9586 84.9754 22.1878C84.91 22.4498 84.8281 22.7772 84.7299 23.1701C84.6644 23.5303 84.5825 23.7923 84.4843 23.956C84.517 24.4144 84.5334 24.8401 84.5334 25.233C84.5334 25.6259 84.4516 25.9206 84.2878 26.117C83.24 24.4471 82.5197 22.6135 82.1268 20.6162C81.7666 18.5861 81.6029 16.5232 81.6356 14.4277C81.7011 12.3321 81.9139 10.2856 82.2741 8.28828C82.6343 6.25818 83.0272 4.40818 83.4529 2.73827C83.4529 2.6073 83.4856 2.50907 83.5511 2.44358C83.6493 2.3781 83.7312 2.31261 83.7967 2.24712C83.8622 2.18163 83.9113 2.13252 83.944 2.09978C84.0095 2.03429 84.0914 1.98517 84.1896 1.95243C84.3533 1.91969 84.5007 1.88694 84.6316 1.8542C84.7626 1.78871 84.91 1.75597 85.0737 1.75597C85.2701 1.75597 85.4011 1.87057 85.4666 2.09978C85.5321 2.32898 85.5976 2.50907 85.6631 2.64004C85.7613 2.80376 85.8431 3.14756 85.9086 3.67146C85.9741 4.16261 85.9905 4.49004 85.9577 4.65376C87.3985 4.85022 88.6591 5.37411 89.7396 6.22544C90.8529 7.04403 91.8188 7.99358 92.6374 9.07412C93.4887 10.1546 94.2255 11.2679 94.8476 12.4139C95.4697 13.5272 96.01 14.4931 96.4684 15.3117C96.5011 14.5914 96.583 13.7073 96.7139 12.6595C96.8777 11.6117 97.0414 10.5476 97.2051 9.46704C97.4016 8.38651 97.5816 7.37146 97.7454 6.4219C97.9418 5.4396 98.0892 4.67013 98.1874 4.11349C98.2856 3.65509 98.433 3.27854 98.6294 2.98385C98.8259 2.68916 99.0387 2.42721 99.2679 2.19801C99.3989 2.06703 99.5299 1.88694 99.6609 1.65774C99.8246 1.42854 100.021 1.28119 100.25 1.21571C100.414 1.15022 100.529 1.11747 100.594 1.11747C100.692 1.11747 100.823 1.1011 100.987 1.06836Z" fill="black"/>
<path d="M129.016 20.8833C130.683 20.6792 132.247 20.4412 133.709 20.1691C135.206 19.897 136.617 19.591 137.943 19.2509C139.27 18.9108 140.545 18.5367 141.769 18.1286C143.028 17.6865 144.269 17.2274 145.493 16.7513C146.003 16.5133 146.462 16.3942 146.871 16.3942C147.143 16.3942 147.262 16.5133 147.228 16.7513C147.296 16.9213 147.364 17.0234 147.432 17.0574C147.5 17.0574 147.534 17.2614 147.534 17.6695C147.534 18.0436 147.432 18.4007 147.228 18.7408C147.024 19.0808 146.836 19.3529 146.666 19.557C146.36 19.897 145.816 20.2711 145.034 20.6792C144.252 21.0533 143.317 21.4444 142.228 21.8525C141.14 22.2606 139.984 22.6687 138.76 23.0768C137.535 23.4849 136.328 23.8589 135.138 24.199C133.982 24.5391 132.91 24.8452 131.924 25.1172C130.972 25.3553 130.224 25.5253 129.68 25.6274C129.373 25.6954 129.084 25.6104 128.812 25.3723C128.54 25.1002 128.319 24.9302 128.149 24.8622C127.673 24.6241 127.401 24.3181 127.333 23.944C127.299 23.5699 127.163 23.1108 126.925 22.5667C126.653 22.0565 126.466 21.5294 126.364 20.9853C126.262 20.4072 126.194 19.846 126.16 19.3019C126.092 17.9076 126.092 16.5133 126.16 15.1189C126.228 13.7246 126.296 12.2963 126.364 10.8339C126.432 9.33759 126.466 7.80724 126.466 6.24288C126.466 4.64451 126.381 2.94411 126.211 1.1417C126.279 0.97166 126.398 0.954656 126.568 1.09069C126.772 1.22672 126.976 1.32874 127.18 1.39676C127.35 1.46477 127.503 1.53279 127.639 1.60081C127.775 1.63481 127.894 1.73684 127.996 1.90688C128.336 2.51902 128.591 3.59026 128.761 5.12062C128.965 6.61696 129.084 8.30035 129.118 10.1708C129.186 12.0412 129.203 13.9457 129.169 15.8841C129.135 17.7885 129.084 19.4549 129.016 20.8833Z" fill="black"/>
<path d="M154.205 19.848C154.259 20.194 154.232 20.5534 154.125 20.9261C154.046 21.2722 154.072 21.5916 154.205 21.8844C154.285 22.0974 154.312 22.4168 154.285 22.8428C154.285 23.2687 154.259 23.6281 154.205 23.9209C154.046 23.9209 153.886 23.8677 153.726 23.7612C153.593 23.6281 153.447 23.4684 153.287 23.282C153.101 23.0691 152.888 22.8694 152.648 22.6831C152.435 22.4701 152.275 22.2039 152.169 21.8844C151.823 20.5268 151.557 19.1026 151.37 17.6118C151.184 16.0944 151.051 14.5638 150.971 13.0198C150.891 11.4758 150.838 9.95839 150.811 8.46763C150.811 6.95026 150.811 5.51274 150.811 4.15509C150.811 3.70254 150.864 3.42302 150.971 3.31654C151.024 3.2633 151.091 3.2633 151.171 3.31654C151.277 3.34316 151.397 3.36978 151.53 3.3964C151.663 3.42303 151.783 3.47627 151.889 3.55613C151.996 3.60937 152.076 3.66261 152.129 3.71585C152.209 3.79571 152.289 3.84895 152.368 3.87557C152.448 3.9022 152.502 3.98206 152.528 4.11516C152.741 6.7506 152.994 9.37274 153.287 11.9816C153.58 14.5904 153.886 17.2125 154.205 19.848Z" fill="black"/>
<path fill-rule="evenodd" clip-rule="evenodd" d="M2.42406 4.84813C3.76284 4.84813 4.84813 3.76284 4.84813 2.42406C4.84813 1.08529 3.76284 0 2.42406 0C1.08529 0 0 1.08529 0 2.42406C0 3.76284 1.08529 4.84813 2.42406 4.84813ZM23.7958 26.0741H23.8015V26.0742C24.4039 26.0747 24.9818 25.8357 25.4078 25.4097C25.8338 24.9837 26.0728 24.4058 26.0723 23.8034V23.7977C26.0726 23.2972 25.906 22.8108 25.5989 22.4156C25.4483 22.2213 25.2676 22.0524 25.0635 21.9153C24.854 21.7745 24.6229 21.6686 24.3794 21.6018C21.6179 20.8393 19.7052 18.327 19.7052 15.4621C19.7052 12.5973 21.6179 10.085 24.3794 9.3225C24.6229 9.25572 24.854 9.14983 25.0635 9.00898C25.2676 8.87193 25.4483 8.70304 25.5989 8.50874C25.906 8.1135 26.0726 7.62716 26.0723 7.12663V7.1209C26.0728 6.5185 25.8338 5.94061 25.4078 5.51465C24.9818 5.08869 24.404 4.84962 23.8016 4.85016H23.7959C23.2953 4.84988 22.809 5.01647 22.4138 5.32359C22.2195 5.47412 22.0506 5.65484 21.9135 5.85887C21.7727 6.06844 21.6667 6.2995 21.6 6.54303C20.8339 9.30213 18.3238 11.2131 15.4603 11.2171C12.597 11.2125 10.0872 9.30177 9.32063 6.54303C9.25385 6.2995 9.14797 6.06844 9.00711 5.85887C8.87006 5.65484 8.70117 5.47412 8.50687 5.32359C8.11163 5.01647 7.62529 4.84988 7.12475 4.85016H7.11903C6.51662 4.84961 5.93874 5.08866 5.51277 5.51462C5.0868 5.94057 4.84773 6.51845 4.84827 7.12085V7.12658C4.84799 7.62711 5.01458 8.11345 5.3217 8.50869C5.47223 8.70298 5.65296 8.87187 5.85699 9.00893C6.06656 9.14978 6.29762 9.25567 6.54114 9.32244C9.30028 10.0885 11.2113 12.5986 11.2153 15.4621C11.2106 18.3254 9.29989 20.8352 6.54114 21.6017C6.29762 21.6685 6.06656 21.7744 5.85699 21.9152C5.65296 22.0523 5.47223 22.2212 5.3217 22.4155C5.01457 22.8107 4.84798 23.2971 4.84827 23.7976V23.8033C4.84772 24.4057 5.08677 24.9836 5.51273 25.4096C5.93868 25.8355 6.51657 26.0746 7.11897 26.0741H7.1247C7.62522 26.0744 8.11154 25.9078 8.50676 25.6007C8.70107 25.4501 8.86996 25.2694 9.00701 25.0653C9.14786 24.8558 9.25375 24.6247 9.32053 24.3812C10.0831 21.6197 12.5954 19.7072 15.4602 19.7072C18.325 19.7072 20.8373 21.6197 21.5998 24.3812C21.6666 24.6247 21.7725 24.8558 21.9134 25.0653C22.0505 25.2694 22.2194 25.4501 22.4137 25.6007C22.8089 25.9078 23.2953 26.0744 23.7958 26.0741ZM4.84813 28.5239C4.84813 29.8627 3.76284 30.948 2.42406 30.948C1.08529 30.948 0 29.8627 0 28.5239C0 27.1851 1.08529 26.0998 2.42406 26.0998C3.76284 26.0998 4.84813 27.1851 4.84813 28.5239ZM28.55 4.84813C29.8888 4.84813 30.9741 3.76284 30.9741 2.42406C30.9741 1.08529 29.8888 0 28.55 0C27.2112 0 26.1259 1.08529 26.1259 2.42406C26.1259 3.76284 27.2112 4.84813 28.55 4.84813ZM30.9741 28.5239C30.9741 29.8627 29.8888 30.948 28.55 30.948C27.2112 30.948 26.1259 29.8627 26.1259 28.5239C26.1259 27.1851 27.2112 26.0998 28.55 26.0998C29.8888 26.0998 30.9741 27.1851 30.9741 28.5239ZM13.49 14.8018C13.8652 13.896 14.7491 13.3054 15.7295 13.3054C17.0676 13.307 18.152 14.3914 18.1535 15.7295C18.1535 16.7099 17.5629 17.5938 16.6571 17.969C15.7513 18.3442 14.7087 18.1368 14.0154 17.4435C13.3221 16.7502 13.1148 15.7076 13.49 14.8018Z" fill="url(#paint0_linear_263_750)"/>
<defs>
<linearGradient id="paint0_linear_263_750" x1="-7.9335" y1="-6.58484" x2="-7.9335" y2="40.2168" gradientUnits="userSpaceOnUse">
<stop stop-color="#00F1F1"/>
<stop offset="0.475104" stop-color="#14ADB0"/>
<stop offset="1" stop-color="#010762"/>
</linearGradient>
</defs>
</svg>
