<svg width="22" height="22" viewBox="0 0 22 22" fill="none" xmlns="http://www.w3.org/2000/svg">
<g clip-path="url(#clip0_27_6031)">
<path d="M13.5 13.9C13.4 13.9 13.2 14 13.1 14.1C13 14.2 12.9 14.3 12.9 14.5C12.9 14.6 13 14.8 13.1 14.9C13.2 15 13.3 15.1 13.5 15.1H15.3C15.4 15.1 15.6 15 15.7 14.9C15.8 14.8 15.9 14.7 15.9 14.5C15.9 14.4 15.8 14.2 15.7 14.1C15.6 14 15.5 13.9 15.3 13.9H15V7.7H15.4C15.5 7.7 15.7 7.6 15.8 7.5C15.9 7.4 16 7.3 16 7.1C16 7 15.9 6.8 15.8 6.7C15.7 6.6 15.6 6.5 15.4 6.5H14.5C14.4 6.5 14.3 6.5 14.2 6.6C14.1 6.6 14.1 6.7 14 6.8L10.8 11.6L7.59998 6.8C7.59998 6.7 7.49998 6.7 7.39998 6.6C7.29998 6.6 7.19998 6.5 7.09998 6.5H6.19998C6.09998 6.5 5.89998 6.6 5.79998 6.7C5.69998 6.8 5.69998 7 5.69998 7.1C5.69998 7.2 5.79998 7.4 5.89998 7.5C5.99998 7.6 6.09998 7.7 6.29998 7.7H6.69998V14H6.19998C6.09998 14 5.89998 14.1 5.79998 14.2C5.69998 14.3 5.59998 14.4 5.59998 14.6C5.59998 14.7 5.69998 14.9 5.79998 15C5.89998 14.9 6.09998 15 6.19998 15H7.99998C8.09998 15 8.29998 14.9 8.39998 14.8C8.49998 14.7 8.59998 14.6 8.59998 14.4C8.59998 14.3 8.49998 14.1 8.39998 14C8.29998 14 8.19998 13.9 7.99998 13.9H7.69998V8.9L10.4 12.9C10.4 13 10.5 13 10.6 13.1C10.8 13.2 11 13.2 11.1 13.1C11.2 13.1 11.2 13 11.3 12.9L14 8.9V13.9H13.5Z" fill="black"/>
<path d="M19.6 5.3C19.6 4.4 19.2 3.6 18.6 3C18 2.4 17.2 2 16.3 2H5.3C4.4 2 3.6 2.3 3 3C2.4 3.6 2 4.4 2 5.3V16.3C2 17.2 2.3 18 3 18.6C3.6 19.2 4.4 19.6 5.3 19.6H16.3C17.2 19.6 18 19.3 18.6 18.6C19.2 18 19.6 17.2 19.6 16.3V5.3ZM18.5 16.3C18.5 16.9 18.3 17.4 17.9 17.9C17.5 18.3 16.9 18.5 16.3 18.5H5.3C4.7 18.5 4.2 18.3 3.7 17.9C3.3 17.5 3.1 16.9 3.1 16.3V5.3C3.1 4.7 3.3 4.2 3.7 3.7C4.1 3.2 4.7 3.1 5.3 3.1H16.3C16.9 3.1 17.4 3.3 17.9 3.7C18.3 4.1 18.5 4.7 18.5 5.3V16.3Z" fill="black"/>
</g>
<defs>
<clipPath id="clip0_27_6031">
<rect width="17.6" height="17.6" fill="white" transform="translate(2 2)"/>
</clipPath>
</defs>
</svg>
