<svg width="100" height="100" viewBox="0 0 96 89" fill="none" xmlns="http://www.w3.org/2000/svg">
  <path d="M90 1 54 28l6.657-15.93L90 1z" fill="#E2761B" stroke="#E2761B" stroke-linecap="round" stroke-linejoin="round" />
  <path d="m6.207 1.182 36.425 27.157-6.458-16.127L6.207 1.182zM77.766 63.541l-9.78 14.78L88.91 84l6.015-20.131-17.16-.328zM2.332 63.869 8.311 84l20.925-5.679-9.78-14.78-17.124.328z" fill="#E4761B" stroke="#E4761B" stroke-linecap="round" stroke-linejoin="round" />
  <path d="m28.055 38.568-5.831 8.7 20.777.91-.738-22.023-14.208 12.413zM69.13 38.568 54.737 25.9l-.48 22.279 20.74-.91-5.867-8.7zM29.236 78.321l12.473-6.007-10.776-8.3-1.697 14.307zM55.475 72.314l12.51 6.007-1.734-14.306-10.776 8.3z" fill="#E4761B" stroke="#E4761B" stroke-linecap="round" stroke-linejoin="round" />
  <path d="m67.926 79.327-12.472-6 .993 8.037-.11 3.382 11.59-5.419zM29.294 79.327l11.59 5.419-.074-3.382.92-8.037-12.436 6z" fill="#D7C1B3" stroke="#D7C1B3" stroke-linecap="round" stroke-linejoin="round" />
  <path d="m40 60-10-3.34L37.057 53 40 60zM56 60l2.933-7L66 56.66 56 60z" fill="#233447" stroke="#233447" stroke-linecap="round" stroke-linejoin="round" />
  <path d="m28.776 78.784 1.751-14.635-11.418.324 9.667 14.31zM65.327 64.149l1.751 14.635 9.667-14.31-11.418-.325zM74.009 48.036l-20.5.901 1.896 10.418 3.028-6.272 7.295 3.28 8.28-8.327zM30.162 56.363l7.296-3.28 2.991 6.272 1.933-10.418-20.537-.901 8.317 8.327z" fill="#CD6116" stroke="#CD6116" stroke-linecap="round" stroke-linejoin="round" />
  <path d="m22.294 48.036 8.686 16.728-.294-8.328-8.392-8.4zM66.572 56.436l-.368 8.328 8.722-16.728-8.355 8.4zM43.016 48.945l-1.95 10.51 2.428 12.4.553-16.328-1.031-6.582zM54.242 48.945l-.994 6.546.442 16.364 2.466-12.4-1.914-10.51z" fill="#E4751F" stroke="#E4751F" stroke-linecap="round" stroke-linejoin="round" />
  <path d="M55.489 59.087 53 71.772 54.783 73l10.846-8.481L66 56l-10.511 3.087zM30 56l.299 8.519L41.207 73 43 71.772l-2.465-12.685L30 56z" fill="#F6851B" stroke="#F6851B" stroke-linecap="round" stroke-linejoin="round" />
  <path d="m56.3 84.474.111-3.417-.928-.808H41.48l-.854.808.074 3.416L29 79l4.086 3.306L41.369 88h14.225l8.32-5.694L68 79l-11.7 5.474z" fill="#C0AD9E" stroke="#C0AD9E" stroke-linecap="round" stroke-linejoin="round" />
  <path d="M55.047 73.3 53.353 72h-9.776l-1.695 1.3L41 82l.812-.866h13.306L56 82l-.953-8.7z" fill="#161616" stroke="#161616" stroke-linecap="round" stroke-linejoin="round" />
  <path d="m91.805 30.284 3.121-15.086-4.663-14.013-35.323 26.4 13.586 11.573 19.204 5.657 4.259-4.991-1.836-1.332 2.938-2.699-2.277-1.775 2.938-2.255-1.947-1.479zM1.294 15.198l3.12 15.086-1.982 1.479 2.937 2.255-2.24 1.775 2.938 2.7-1.836 1.33 4.223 4.992 19.204-5.657 13.586-11.573L5.92 1.185 1.294 15.198z" fill="#763D16" stroke="#763D16" stroke-linecap="round" stroke-linejoin="round" />
  <path d="M87.658 44.691 68.81 39l5.73 8.89L66 65l11.243-.149H94l-6.342-20.16zM27.182 39 8.286 44.691 2 64.851h16.764L30 65l-8.526-17.11L27.181 39zM54.148 49.027l1.222-21.04L61 13H36l5.556 14.987 1.296 21.04.444 6.637L43.333 72h10.26l.074-16.336.481-6.637z" fill="#F6851B" stroke="#F6851B" stroke-linecap="round" stroke-linejoin="round" />
</svg>