<svg width="18" height="22" viewBox="0 0 18 22" fill="none" xmlns="http://www.w3.org/2000/svg">
<path fill-rule="evenodd" clip-rule="evenodd" d="M1.14557 0H2.14556H16.1455H17.1455L17.1455 1L17.1455 20.0817L17.9444 20.0817V22H0V20.0817H1.14551L1.14556 0.999997L1.14557 0ZM3.14556 2L3.14551 19.0817H7.64551V15.3H10.6455V19.0817H15.1455L15.1455 2H3.14556ZM5.63 4H7.63V6H5.63V4ZM12.6788 4H10.6788V6H12.6788V4ZM5.63 7.83654H7.63V9.83654H5.63V7.83654ZM12.6788 7.83654H10.6788V9.83654H12.6788V7.83654ZM5.63 11.6731H7.63V13.6731H5.63V11.6731ZM12.6788 11.6731H10.6788V13.6731H12.6788V11.6731Z" fill="white"/>
</svg>
