<?xml version="1.0" encoding="UTF-8" ?>
<!DOCTYPE svg PUBLIC "-//W3C//DTD SVG 1.1//EN" "http://www.w3.org/Graphics/SVG/1.1/DTD/svg11.dtd">
<svg width="1000pt" height="1000pt" viewBox="0 0 1000 1000" version="1.1" xmlns="http://www.w3.org/2000/svg">
<g id="#000000ff">
<path fill="#000000" opacity="1.00" d=" M 484.74 0.00 L 515.30 0.00 C 556.43 1.45 597.45 7.51 637.04 18.86 C 707.72 38.83 773.72 74.90 828.99 123.24 C 883.04 170.40 926.79 229.30 956.24 294.72 C 983.21 354.35 997.89 419.36 1000.00 484.74 L 1000.00 515.29 C 998.41 561.77 990.74 608.09 976.51 652.40 C 953.37 725.09 913.13 792.20 860.16 847.08 C 809.05 900.18 746.07 941.84 677.11 967.90 C 625.45 987.55 570.48 998.17 515.26 1000.00 L 484.71 1000.00 C 419.12 997.88 353.88 983.11 294.10 955.95 C 228.90 926.52 170.22 882.84 123.20 828.95 C 75.30 774.17 39.45 708.85 19.39 638.88 C 7.71 598.71 1.46 557.05 0.00 515.26 L 0.00 484.70 C 2.06 421.37 15.87 358.38 41.29 300.30 C 72.37 228.90 120.44 164.99 180.36 115.28 C 239.27 66.18 309.63 30.88 384.29 13.30 C 417.21 5.44 450.94 1.22 484.74 0.00 M 266.69 313.93 C 246.59 315.90 226.58 320.47 208.24 329.08 C 181.53 341.37 159.32 362.98 146.19 389.27 C 133.67 413.47 128.08 440.62 125.95 467.61 C 123.68 505.69 125.89 544.85 139.43 580.87 C 146.62 600.23 157.38 618.33 171.58 633.36 C 185.32 647.99 202.19 659.57 220.58 667.54 C 240.37 676.30 261.71 680.68 282.91 684.43 C 316.06 688.83 349.63 687.75 382.96 686.47 C 392.35 686.58 401.41 680.29 404.58 671.46 C 406.81 665.82 406.69 659.35 404.21 653.82 C 400.77 645.50 392.09 639.74 383.11 639.67 C 352.06 640.86 320.79 642.07 289.87 638.20 C 275.11 635.42 260.22 632.69 246.11 627.38 C 229.19 621.15 213.47 611.03 201.95 597.03 C 187.32 579.52 179.24 557.41 175.44 535.12 C 172.89 522.22 172.41 509.06 171.83 495.97 C 171.83 473.71 173.41 451.15 180.10 429.79 C 185.73 411.45 195.71 393.89 211.04 381.99 C 229.68 367.31 253.72 361.36 277.04 360.17 C 312.09 360.08 347.14 360.23 382.19 360.10 C 391.37 360.14 400.49 354.72 404.10 346.16 C 407.94 337.92 406.28 327.54 400.08 320.91 C 396.02 316.41 390.17 313.41 384.05 313.34 C 349.71 313.32 315.36 313.35 281.02 313.33 C 276.23 313.25 271.45 313.49 266.69 313.93 M 614.38 313.40 C 604.68 314.16 596.06 321.90 594.10 331.41 C 592.65 338.04 594.04 345.35 598.23 350.76 C 602.73 356.94 610.45 360.16 617.98 360.12 C 652.65 360.18 687.32 360.12 722.00 360.15 C 738.71 360.87 755.50 364.16 770.76 371.15 C 784.99 377.56 797.46 387.90 806.05 400.96 C 816.57 416.49 821.93 434.84 824.95 453.18 C 828.31 476.09 828.57 499.42 826.07 522.43 C 823.79 542.13 819.01 561.84 809.54 579.40 C 801.45 594.66 789.47 607.91 774.74 616.99 C 758.51 627.31 739.68 632.54 720.93 636.01 C 714.07 637.68 707.07 638.71 700.05 639.34 C 672.43 641.62 644.67 640.87 617.03 639.67 C 610.44 639.62 603.83 642.52 599.49 647.49 C 594.39 652.94 592.47 660.97 594.09 668.21 C 595.69 676.33 602.19 683.12 610.06 685.49 C 613.91 686.68 617.98 686.44 621.96 686.66 C 646.97 687.71 672.05 688.12 697.04 686.47 C 713.62 685.63 729.92 682.22 746.04 678.46 C 773.92 671.94 800.90 659.43 821.81 639.56 C 844.66 618.44 859.30 589.68 866.82 559.74 C 875.24 525.55 876.24 489.81 872.41 454.91 C 868.51 421.92 857.85 388.68 836.06 363.03 C 822.42 346.72 804.47 334.26 784.84 326.21 C 765.54 318.33 744.77 314.37 724.00 313.36 C 687.46 313.34 650.92 313.26 614.38 313.40 M 286.14 477.26 C 274.89 478.24 265.47 488.69 265.69 499.99 C 265.17 510.20 272.47 520.09 282.29 522.79 C 286.40 524.20 290.78 523.57 295.04 523.70 C 434.03 523.70 573.02 523.70 712.01 523.69 C 724.15 523.45 734.56 512.14 733.95 500.03 C 734.17 487.84 723.22 476.72 710.96 477.16 C 569.35 477.24 427.74 477.05 286.14 477.26 Z" />
</g>
<g id="#ffffffff">
<path fill="#ffffff" opacity="1.00" d=" M 266.69 313.93 C 271.45 313.49 276.23 313.25 281.02 313.33 C 315.36 313.35 349.71 313.32 384.05 313.34 C 390.17 313.41 396.02 316.41 400.08 320.91 C 406.28 327.54 407.94 337.92 404.10 346.16 C 400.49 354.72 391.37 360.14 382.19 360.10 C 347.14 360.23 312.09 360.08 277.04 360.17 C 253.72 361.36 229.68 367.31 211.04 381.99 C 195.71 393.89 185.73 411.45 180.10 429.79 C 173.41 451.15 171.83 473.71 171.83 495.97 C 172.41 509.06 172.89 522.22 175.44 535.12 C 179.24 557.41 187.32 579.52 201.95 597.03 C 213.47 611.03 229.19 621.15 246.11 627.38 C 260.22 632.69 275.11 635.42 289.87 638.20 C 320.79 642.07 352.06 640.86 383.11 639.67 C 392.09 639.74 400.77 645.50 404.21 653.82 C 406.69 659.35 406.81 665.82 404.58 671.46 C 401.41 680.29 392.35 686.58 382.96 686.47 C 349.63 687.75 316.06 688.83 282.91 684.43 C 261.71 680.68 240.37 676.30 220.58 667.54 C 202.19 659.57 185.32 647.99 171.58 633.36 C 157.38 618.33 146.62 600.23 139.43 580.87 C 125.89 544.85 123.68 505.69 125.95 467.61 C 128.08 440.62 133.67 413.47 146.19 389.27 C 159.32 362.98 181.53 341.37 208.24 329.08 C 226.58 320.47 246.59 315.90 266.69 313.93 Z" />
<path fill="#ffffff" opacity="1.00" d=" M 614.38 313.40 C 650.92 313.26 687.46 313.34 724.00 313.36 C 744.77 314.37 765.54 318.33 784.84 326.21 C 804.47 334.26 822.42 346.72 836.06 363.03 C 857.85 388.68 868.51 421.92 872.41 454.91 C 876.24 489.81 875.24 525.55 866.82 559.74 C 859.30 589.68 844.66 618.44 821.81 639.56 C 800.90 659.43 773.92 671.94 746.04 678.46 C 729.92 682.22 713.62 685.63 697.04 686.47 C 672.05 688.12 646.97 687.71 621.96 686.66 C 617.98 686.44 613.91 686.68 610.06 685.49 C 602.19 683.12 595.69 676.33 594.09 668.21 C 592.47 660.97 594.39 652.94 599.49 647.49 C 603.83 642.52 610.44 639.62 617.03 639.67 C 644.67 640.87 672.43 641.62 700.05 639.34 C 707.07 638.71 714.07 637.68 720.93 636.01 C 739.68 632.54 758.51 627.31 774.74 616.99 C 789.47 607.91 801.45 594.66 809.54 579.40 C 819.01 561.84 823.79 542.13 826.07 522.43 C 828.57 499.42 828.31 476.09 824.95 453.18 C 821.93 434.84 816.57 416.49 806.05 400.96 C 797.46 387.90 784.99 377.56 770.76 371.15 C 755.50 364.16 738.71 360.87 722.00 360.15 C 687.32 360.12 652.65 360.18 617.98 360.12 C 610.45 360.16 602.73 356.94 598.23 350.76 C 594.04 345.35 592.65 338.04 594.10 331.41 C 596.06 321.90 604.68 314.16 614.38 313.40 Z" />
<path fill="#ffffff" opacity="1.00" d=" M 286.14 477.26 C 427.74 477.05 569.35 477.24 710.96 477.16 C 723.22 476.72 734.17 487.84 733.95 500.03 C 734.56 512.14 724.15 523.45 712.01 523.69 C 573.02 523.70 434.03 523.70 295.04 523.70 C 290.78 523.57 286.40 524.20 282.29 522.79 C 272.47 520.09 265.17 510.20 265.69 499.99 C 265.47 488.69 274.89 478.24 286.14 477.26 Z" />
</g>
</svg>
