<svg fill="currentColor" viewBox="0 0 512 512" xmlns="http://www.w3.org/2000/svg">
  <path fill="currentColor" d=" M 0.00 0.00 L 512.00 0.00 L 512.00 512.00 L 0.00 512.00 L 0.00 0.00 M 171.04 119.15 C 149.92 130.97 128.82 142.84 107.71 154.69 C 103.94 156.83 99.84 158.65 96.90 161.95 C 93.37 165.69 91.83 170.96 91.98 176.03 C 92.04 202.05 91.95 228.06 92.03 254.07 C 91.96 261.02 96.16 267.56 102.26 270.77 C 125.30 283.72 148.34 296.66 171.40 309.58 C 175.42 312.03 180.26 313.03 184.92 312.31 C 190.92 311.61 195.79 307.76 200.99 305.05 C 238.09 284.26 274.89 262.94 312.00 242.16 C 317.35 239.28 322.61 235.24 329.03 235.58 C 335.06 235.34 340.31 238.64 345.34 241.51 C 355.64 247.30 365.96 253.08 376.26 258.87 C 382.68 262.42 386.98 269.61 386.75 276.99 C 386.75 290.70 386.77 304.41 386.74 318.12 C 386.78 324.71 383.37 331.29 377.61 334.62 C 365.78 341.50 353.90 348.29 342.07 355.18 C 334.42 360.87 323.67 360.32 315.98 355.00 C 304.70 348.60 293.35 342.31 282.06 335.92 C 275.77 332.36 271.50 325.32 271.73 318.03 C 271.76 309.18 271.75 300.33 271.76 291.49 C 261.07 297.69 250.28 303.70 239.62 309.94 C 239.64 318.65 239.63 327.35 239.61 336.05 C 239.55 340.97 240.93 346.08 244.29 349.79 C 246.96 352.94 250.76 354.72 254.28 356.70 C 276.28 369.04 298.27 381.39 320.25 393.74 C 327.34 397.59 336.16 396.19 342.72 391.89 C 363.23 380.34 383.77 368.82 404.31 357.31 C 408.02 355.18 412.07 353.33 414.94 350.05 C 418.00 346.43 420.04 341.83 419.98 337.03 C 420.02 311.01 419.98 284.98 420.01 258.95 C 420.06 254.40 418.77 249.73 415.79 246.22 C 412.90 242.56 408.57 240.59 404.62 238.32 C 384.84 227.16 365.08 215.98 345.30 204.81 C 342.03 203.01 338.89 200.88 335.31 199.71 C 329.80 198.01 323.71 198.94 318.70 201.69 C 297.69 213.67 276.92 226.08 255.67 237.66 C 236.35 248.22 217.40 259.44 198.31 270.39 C 194.07 272.75 189.95 275.81 184.97 276.26 C 179.30 277.03 173.67 275.15 168.94 272.11 C 157.51 265.57 146.03 259.11 134.60 252.57 C 128.39 249.08 123.90 242.29 124.11 235.04 C 124.15 221.02 124.11 207.00 124.13 192.98 C 124.00 186.34 127.77 179.86 133.53 176.58 C 144.59 170.27 155.74 164.14 166.81 157.86 C 170.92 155.51 175.15 152.84 180.05 152.75 C 185.69 152.27 191.01 154.54 195.67 157.49 C 206.53 163.62 217.41 169.71 228.29 175.80 C 234.42 179.23 239.00 185.85 238.99 193.01 C 239.04 202.18 238.97 211.36 239.01 220.53 C 249.68 214.34 260.44 208.29 271.12 202.12 C 271.12 193.10 271.14 184.07 271.13 175.04 C 271.28 168.30 267.64 161.60 261.75 158.25 C 238.65 145.02 215.51 131.84 192.41 118.61 C 185.87 114.82 177.43 115.32 171.04 119.15 Z" />
  <path fill="#ffffff" d=" M 171.04 119.15 C 177.43 115.32 185.87 114.82 192.41 118.61 C 215.51 131.84 238.65 145.02 261.75 158.25 C 267.64 161.60 271.28 168.30 271.13 175.04 C 271.14 184.07 271.12 193.10 271.12 202.12 C 260.44 208.29 249.68 214.34 239.01 220.53 C 238.97 211.36 239.04 202.18 238.99 193.01 C 239.00 185.85 234.42 179.23 228.29 175.80 C 217.41 169.71 206.53 163.62 195.67 157.49 C 191.01 154.54 185.69 152.27 180.05 152.75 C 175.15 152.84 170.92 155.51 166.81 157.86 C 155.74 164.14 144.59 170.27 133.53 176.58 C 127.77 179.86 124.00 186.34 124.13 192.98 C 124.11 207.00 124.15 221.02 124.11 235.04 C 123.90 242.29 128.39 249.08 134.60 252.57 C 146.03 259.11 157.51 265.57 168.94 272.11 C 173.67 275.15 179.30 277.03 184.97 276.26 C 189.95 275.81 194.07 272.75 198.31 270.39 C 217.40 259.44 236.35 248.22 255.67 237.66 C 276.92 226.08 297.69 213.67 318.70 201.69 C 323.71 198.94 329.80 198.01 335.31 199.71 C 338.89 200.88 342.03 203.01 345.30 204.81 C 365.08 215.98 384.84 227.16 404.62 238.32 C 408.57 240.59 412.90 242.56 415.79 246.22 C 418.77 249.73 420.06 254.40 420.01 258.95 C 419.98 284.98 420.02 311.01 419.98 337.03 C 420.04 341.83 418.00 346.43 414.94 350.05 C 412.07 353.33 408.02 355.18 404.31 357.31 C 383.77 368.82 363.23 380.34 342.72 391.89 C 336.16 396.19 327.34 397.59 320.25 393.74 C 298.27 381.39 276.28 369.04 254.28 356.70 C 250.76 354.72 246.96 352.94 244.29 349.79 C 240.93 346.08 239.55 340.97 239.61 336.05 C 239.63 327.35 239.64 318.65 239.62 309.94 C 250.28 303.70 261.07 297.69 271.76 291.49 C 271.75 300.33 271.76 309.18 271.73 318.03 C 271.50 325.32 275.77 332.36 282.06 335.92 C 293.35 342.31 304.70 348.60 315.98 355.00 C 323.67 360.32 334.42 360.87 342.07 355.18 C 353.90 348.29 365.78 341.50 377.61 334.62 C 383.37 331.29 386.78 324.71 386.74 318.12 C 386.77 304.41 386.75 290.70 386.75 276.99 C 386.98 269.61 382.68 262.42 376.26 258.87 C 365.96 253.08 355.64 247.30 345.34 241.51 C 340.31 238.64 335.06 235.34 329.03 235.58 C 322.61 235.24 317.35 239.28 312.00 242.16 C 274.89 262.94 238.09 284.26 200.99 305.05 C 195.79 307.76 190.92 311.61 184.92 312.31 C 180.26 313.03 175.42 312.03 171.40 309.58 C 148.34 296.66 125.30 283.72 102.26 270.77 C 96.16 267.56 91.96 261.02 92.03 254.07 C 91.95 228.06 92.04 202.05 91.98 176.03 C 91.83 170.96 93.37 165.69 96.90 161.95 C 99.84 158.65 103.94 156.83 107.71 154.69 C 128.82 142.84 149.92 130.97 171.04 119.15 Z" />
</svg>