<svg xmlns="http://www.w3.org/2000/svg" viewBox="0 0 190.34 190.71">
  <defs>
    <style>.cls-1{fill:#f1f3f9;}.cls-1,.cls-2{stroke:#d6dce8;}.cls-1,.cls-2,.cls-3{stroke-miterlimit:10;stroke-width:2px;}.cls-2{fill:#fff;}.cls-3{fill:#60c083;stroke:#aab2c5;}.cls-4{fill:#d6dce8;}</style>
  </defs>
  <g>
    <path class="cls-1" d="M189.34,95.36a94.24,94.24,0,0,1-28.05,67.23,93,93,0,0,1-66.12,27.12,94.36,94.36,0,1,1,94.17-94.35Z" />
    <path class="cls-2" d="M161.29,46V162.6a93,93,0,0,1-66.12,27.11A94.49,94.49,0,0,1,29.05,162.6V46Z" />
    <path class="cls-3" d="M88.75,96.73l30-30,8.8,8.8L88.91,114.16l0,0-.16.16L62.83,88.41l8.8-8.8Z" />
    <path class="cls-4" d="M129,130.09H61.36v8.54H129Z" />
    <path class="cls-4" d="M129,148.85H61.36v8.54H129Z" />
    <path class="cls-4" d="M112.44,167.8H77.9v8.54h34.54Z" />
  </g>
</svg>