<svg width="22" height="22" viewBox="0 0 22 22" fill="none" xmlns="http://www.w3.org/2000/svg">
<g clip-path="url(#clip0_27_6044)">
<path fill-rule="evenodd" clip-rule="evenodd" d="M2 15.2C2 15.3 2.1 15.4 2.1 15.5C3 16.4 4 17.1 5.2 17.6C6.4 18.1 7.6 18.3 8.9 18.3C13.9 18.3 18.1 14.4 18.3 9.5V9.3L18.4 9.2C19.3 8.4 20 7.3 20.4 5.8C20.4 5.7 20.4 5.6 20.4 5.6C20.4 5.5 20.3 5.4 20.3 5.4C20.2 5.3 20.2 5.3 20.1 5.2C20 5.2 19.9 5.1 19.9 5.1H17.5L17.4 5C16.9 4.2 16.2 3.7 15.4 3.3C14.6 3 13.7 2.9 12.8 3.1C11.9 3.3 11.1 3.8 10.6 4.5C10 5.2 9.6 6 9.6 6.9V7.3H9.1C7.3 6.8 5.8 5.8 4.6 4.4C4.5 4.4 4.4 4.3 4.4 4.3C4.4 4.3 4.2 4.3 4.1 4.3C4 4.3 3.9 4.3 3.9 4.4C3.8 4.4 3.7 4.5 3.7 4.5C3.1 5.7 3.1 7 3.7 8.2L3.9 8.5L3.2 8.9C3.1 8.9 3 9 2.9 9.1C2.8 9.2 2.8 9.4 2.9 9.5C3 10 3.3 10.4 3.8 10.9L4 11.1L3.8 11.4C3.7 11.5 3.7 11.5 3.7 11.6C3.7 11.7 3.7 11.8 3.7 11.8C3.8 12.5 4.3 13.1 4.6 13.4C4.7 13.5 4.9 13.6 5 13.8L5.6 14.3L4.9 14.5C4.3 14.6 3.6 14.7 2.7 14.6C2.7 14.6 2.7 14.6 2.6 14.6C2.5 14.6 2.4 14.6 2.3 14.7C2.2 14.8 2.1 14.8 2.1 14.9C2 14.9 2 15.1 2 15.2ZM5 15.5C5.6 15.3 6.2 15 6.8 14.5L7.5 14L6.7 13.6C6.3 13.4 5.9 13.2 5.6 12.9L5.1 12.5L5.7 12.3C5.8 12.3 5.8 12.2 5.9 12.2L6.8 11.8L5.9 11.3C5.6 11 5.3 10.8 5 10.6C4.8 10.4 4.6 10.2 4.5 10L4.1 9.7L5.4 9.2L5 8.6C4.6 7.9 4.4 7.3 4.3 6.6V5.7L5 6.3C6.5 7.5 8.2 8.3 10.2 8.5C10.3 8.5 10.4 8.5 10.5 8.5C10.6 8.5 10.7 8.4 10.7 8.4C10.8 8.3 10.8 8.3 10.8 8.2C10.8 8.1 10.8 8 10.8 7.9C10.6 7.5 10.6 7 10.7 6.5C10.8 6 11 5.6 11.3 5.2C11.6 4.8 12 4.5 12.4 4.3C13.4 3.8 14.6 3.9 15.5 4.5C16 4.8 16.4 5.3 16.7 5.8L16.8 6.1H19.1L19 6.8C18.6 7.6 18.1 8.2 17.5 8.6L17.3 8.8V9C17.3 13.5 13.6 17.2 9 17.2C7.6 17.2 6.3 16.9 5 16.2L4.2 15.7L5 15.5Z" fill="black"/>
</g>
<defs>
<clipPath id="clip0_27_6044">
<rect width="18.5" height="15.3" fill="white" transform="translate(2 3)"/>
</clipPath>
</defs>
</svg>
