<svg width="50" height="50" viewBox="0 0 50 32" fill="none" xmlns="http://www.w3.org/2000/svg">
  <path d="M9.79364 0H22.2659C24.0063 0 25.094 1.43989 24.6861 3.20083L18.8758 28.4318C18.468 30.1927 16.7185 31.6327 14.9781 31.6327H2.50589C0.765432 31.6327 -0.3222 30.1928 0.0857167 28.4318L5.89579 3.20083C6.30371 1.43076 8.04408 0 9.78444 0H9.79356H9.79364Z" fill="#D10429" />
  <path d="M21.1754 0H35.5247C37.265 0 36.4764 1.43989 36.0686 3.20083L30.2582 28.4318C29.8503 30.1927 29.9772 31.6327 28.2369 31.6327H13.8884C12.139 31.6327 11.0603 30.1928 11.4772 28.4318L17.2876 3.20083C17.6954 1.43076 19.4357 0 21.1853 0H21.1761H21.1754Z" fill="#022E64" />
  <path d="M35.0209 0H47.494C49.2343 0 50.3221 1.43989 49.9141 3.20083L44.1039 28.4318C43.6959 30.1927 41.9464 31.6327 40.2061 31.6327H27.7339C25.9844 31.6327 24.9058 30.1928 25.3137 28.4318L31.124 3.20083C31.5318 1.43076 33.2722 0 35.0125 0H35.0216H35.0209Z" fill="#076F74" />
  <path d="M32.9269 23.7858H34.1053L34.4407 22.6393H33.2712L32.9269 23.7858ZM33.8696 20.6306L33.4616 21.9881C33.4616 21.9881 33.9058 21.7588 34.1506 21.6854C34.3953 21.6304 34.7578 21.5845 34.7578 21.5845L35.0388 20.6398H33.8606L33.8696 20.6306ZM34.4587 18.6863L34.069 19.9887C34.069 19.9887 34.5041 19.7868 34.7488 19.7229C34.9935 19.6586 35.3561 19.6403 35.3561 19.6403L35.6371 18.6956H34.4678L34.4587 18.6863ZM37.0603 18.6863L35.5374 23.7765H35.9453L35.6281 24.8313H35.2201L35.1205 25.1522H33.67L33.7699 24.8313H30.833L31.123 23.8592H31.4222L32.9632 18.6864L33.2714 17.6409H34.7489L34.5947 18.1636C34.5947 18.1636 34.9844 17.8793 35.3653 17.7783C35.7369 17.6776 37.8761 17.6409 37.8761 17.6409L37.5589 18.6773H37.0513L37.0603 18.6863Z" fill="#FEFEFE" />
  <path d="M37.6644 17.641H39.2416L39.2597 18.2371C39.2507 18.3379 39.3322 18.3838 39.5225 18.3838H39.8398L39.5498 19.3653H38.6976C37.9634 19.4203 37.6824 19.0994 37.7005 18.7416L37.6733 17.6501L37.6644 17.641ZM37.8585 22.3101H36.3538L36.6075 21.4389H38.3297L38.5744 20.6409H36.8795L37.1695 19.6595H41.883L41.5929 20.6409H40.0067L39.7619 21.4389H41.3481L41.0852 22.3101H39.3721L39.0639 22.677H39.7618L39.9341 23.7776C39.9522 23.8876 39.9522 23.961 39.9884 24.0069C40.0247 24.0436 40.2332 24.0619 40.351 24.0619H40.5595L40.2332 25.135H39.6983C39.6169 25.135 39.4899 25.1259 39.3177 25.1259C39.1545 25.1075 39.0458 25.0158 38.937 24.9607C38.8372 24.9149 38.6923 24.7957 38.656 24.5847L38.4928 23.4842L37.7133 24.5664C37.4685 24.9057 37.1333 25.1717 36.5621 25.1717H35.4744L35.7644 24.2178H36.1814C36.2993 24.2178 36.4081 24.1721 36.4898 24.1261C36.5713 24.0894 36.6437 24.0527 36.7163 23.9336L37.8585 22.3101ZM21.3999 19.9229H25.3791L25.089 20.8859H23.5028L23.2582 21.7021H24.8898L24.5906 22.6927H22.9681L22.5693 24.0225C22.524 24.1693 22.959 24.1876 23.1131 24.1876L23.9289 24.0775L23.6025 25.1781H21.7715C21.6266 25.1781 21.5178 25.1598 21.3545 25.1231C21.2004 25.0864 21.1279 25.013 21.0645 24.9122C21.0009 24.8021 20.8921 24.7196 20.9647 24.4811L21.4904 22.7202H20.584L20.8831 21.7114H21.7895L22.0342 20.8951H21.1279L21.418 19.932L21.3999 19.9229ZM24.1492 18.182H25.7807L25.4816 19.1817H23.2518L23.007 19.3927C22.8983 19.4936 22.8711 19.4569 22.7351 19.5303C22.6083 19.5944 22.3454 19.7228 22.0009 19.7228H21.2848L21.5748 18.7598H21.7924C21.9737 18.7598 22.1007 18.7414 22.1641 18.7048C22.2366 18.659 22.3182 18.558 22.3997 18.3928L22.8075 17.6409H24.4302L24.1492 18.1912V18.182ZM27.2243 19.8329C27.2243 19.8329 27.6683 19.4203 28.4299 19.2919C28.6021 19.2552 29.6898 19.2734 29.6898 19.2734L29.853 18.7231H27.5596L27.2242 19.8421L27.2243 19.8329ZM29.3816 20.2548H27.1064L26.9704 20.7225H28.9465C29.1821 20.695 29.2275 20.7316 29.2456 20.7134L29.3906 20.2548H29.3816ZM26.4266 17.6501H27.8135L27.6141 18.3563C27.6141 18.3563 28.0492 17.9987 28.3573 17.8702C28.6656 17.7601 29.3544 17.6501 29.3544 17.6501L31.6024 17.641L30.8319 20.2273C30.705 20.6676 30.5509 20.9519 30.4603 21.0895C30.3788 21.2179 30.2789 21.3371 30.0796 21.4471C29.8892 21.548 29.7169 21.6122 29.5539 21.6214C29.4088 21.6305 29.1731 21.6398 28.8649 21.6398H26.6986L26.0913 23.685C26.0369 23.8867 26.0097 23.9875 26.046 24.0425C26.0731 24.0884 26.1547 24.1435 26.2544 24.1435L27.2061 24.0517L26.8798 25.1707H25.8103C25.4658 25.1707 25.221 25.1615 25.0488 25.1522C24.8857 25.134 24.7133 25.1522 24.5955 25.0606C24.4959 24.9689 24.3419 24.8497 24.3508 24.7304C24.3599 24.6203 24.4052 24.4369 24.4778 24.1801L26.4266 17.6501Z" fill="#FEFEFE" />
  <path d="M30.4681 21.765L30.3412 22.3886C30.287 22.5811 30.2415 22.728 30.0965 22.8564C29.9424 22.9848 29.7702 23.1223 29.3533 23.1223L28.5829 23.159L28.5738 23.856C28.5647 24.0485 28.6192 24.0302 28.6463 24.0668C28.6825 24.1035 28.7097 24.1127 28.746 24.1311L28.9907 24.1126L29.7251 24.0761L29.4167 25.1033H28.5738C27.9846 25.1033 27.5404 25.0848 27.4044 24.9749C27.2594 24.8831 27.2413 24.773 27.2413 24.5712L27.2956 21.8381H28.6463L28.6282 22.3975H28.9544C29.0632 22.3975 29.1449 22.3884 29.1901 22.3608C29.2353 22.3333 29.2627 22.2875 29.2808 22.2233L29.4167 21.7831H30.4773L30.4681 21.765ZM11.253 8.07349C11.2077 8.2936 10.3376 12.3382 10.3376 12.3382C10.1472 13.1544 10.0112 13.7415 9.55803 14.1175C9.29516 14.3376 8.98693 14.4385 8.63349 14.4385C8.06239 14.4385 7.73611 14.1542 7.68172 13.6131L7.67261 13.4297C7.67261 13.4297 7.84481 12.3382 7.84481 12.3291C7.84481 12.3291 8.7513 8.64212 8.91449 8.15599C8.92351 8.12852 8.92351 8.11017 8.92351 8.10096C7.1559 8.11939 6.83873 8.10096 6.8206 8.07349C6.81149 8.11017 6.7662 8.33942 6.7662 8.33942L5.84158 12.4943L5.75994 12.8427L5.60596 13.9984C5.60596 14.3377 5.66937 14.622 5.80541 14.8513C6.23137 15.6034 7.43698 15.7134 8.11679 15.7134C8.99604 15.7134 9.82089 15.5208 10.3738 15.1815C11.3437 14.6036 11.5974 13.6957 11.815 12.8978L11.9238 12.485C11.9238 12.485 12.8574 8.66055 13.0206 8.16529C13.0297 8.13773 13.0297 8.11939 13.0388 8.11026C11.7516 8.11939 11.3799 8.11026 11.253 8.0827V8.07349ZM16.4236 15.676C15.7981 15.6668 15.5715 15.6668 14.8373 15.7035L14.8101 15.6485C14.8735 15.3641 14.946 15.0891 15.0004 14.8047L15.091 14.4195C15.227 13.8234 15.3539 13.1171 15.372 12.9062C15.3902 12.7778 15.4264 12.4569 15.0638 12.4569C14.9097 12.4569 14.7557 12.5302 14.5926 12.6035C14.5018 12.9246 14.3296 13.8234 14.2389 14.2269C14.0576 15.0891 14.0486 15.1899 13.9671 15.6119L13.9127 15.6668C13.2691 15.6577 13.0425 15.6577 12.2992 15.6944L12.263 15.6301C12.3899 15.1165 12.5077 14.6029 12.6256 14.0893C12.9337 12.7044 13.0154 12.1725 13.0968 11.4663L13.1603 11.4296C13.8855 11.3287 14.0577 11.3012 14.8463 11.1453L14.9097 11.2187L14.7919 11.6589C14.9279 11.5764 15.0548 11.4938 15.1907 11.4296C15.5624 11.2461 15.9703 11.1911 16.1969 11.1911C16.5413 11.1911 16.9221 11.292 17.0761 11.6956C17.2212 12.0532 17.1305 12.4935 16.9311 13.3648L16.8314 13.8051C16.632 14.7772 16.5958 14.9515 16.4869 15.6118L16.4145 15.6668L16.4236 15.676ZM18.9688 15.6784C18.5881 15.6784 18.3433 15.6693 18.1077 15.6784C17.872 15.6784 17.6454 15.6968 17.2919 15.706L17.2738 15.6784L17.2556 15.6417C17.3553 15.2749 17.4007 15.1465 17.4551 15.0181C17.5004 14.8897 17.5456 14.7613 17.6364 14.3853C17.7451 13.8991 17.8176 13.5598 17.8629 13.2571C17.9173 12.9728 17.9445 12.7253 17.9808 12.4409L18.008 12.4226L18.0351 12.3951C18.4159 12.3401 18.6516 12.3034 18.8963 12.2667C19.141 12.23 19.3948 12.1842 19.7846 12.1108L19.8027 12.1475L19.8117 12.1842L19.5943 13.0921C19.5218 13.3948 19.4493 13.6974 19.3859 14.0002C19.2497 14.6422 19.1864 14.8806 19.1593 15.0548C19.123 15.2199 19.1138 15.3025 19.0594 15.6327L19.0231 15.6602L18.9869 15.6877L18.9688 15.6784ZM22.9929 13.425C22.9658 13.5901 22.8207 14.2047 22.6304 14.4615C22.4943 14.654 22.3403 14.7733 22.1589 14.7733C22.1046 14.7733 21.7963 14.7733 21.7874 14.3055C21.7874 14.0762 21.8327 13.8377 21.8871 13.581C22.0502 12.838 22.2497 12.2236 22.7482 12.2236C23.138 12.2236 23.1651 12.6822 22.9929 13.425ZM24.6335 13.4984C24.851 12.5262 24.6789 12.0676 24.4704 11.7925C24.144 11.3706 23.564 11.2331 22.9658 11.2331C22.603 11.2331 21.7511 11.2698 21.0803 11.8934C20.6 12.3428 20.3734 12.9573 20.2465 13.5443C20.1103 14.1404 19.9564 15.2135 20.9353 15.6171C21.2343 15.7455 21.6695 15.7821 21.9505 15.7821C22.6666 15.7821 23.4008 15.5804 23.9537 14.9934C24.3797 14.5165 24.57 13.8011 24.6425 13.4984H24.6335ZM39.9122 15.7873C39.1508 15.7782 38.9333 15.7782 38.2352 15.8149L38.1899 15.7599C38.3802 15.0353 38.5706 14.3015 38.7428 13.5678C38.9603 12.614 39.0146 12.2104 39.0873 11.651L39.1416 11.6052C39.894 11.4951 40.1025 11.4677 40.8911 11.3209L40.9092 11.3851C40.7641 11.9904 40.6282 12.5866 40.4831 13.1827C40.1931 14.4392 40.0933 15.0813 39.9847 15.7416L39.9122 15.7966V15.7873Z" fill="#FEFEFE" />
  <path d="M38.817 13.5478C38.7808 13.7037 38.6357 14.3273 38.4454 14.5842C38.3185 14.7676 38.0103 14.8869 37.8381 14.8869C37.7837 14.8869 37.4846 14.8869 37.4664 14.4283C37.4664 14.1989 37.5117 13.9605 37.5661 13.7037C37.7293 12.9792 37.9288 12.3646 38.4272 12.3646C38.817 12.3646 38.9892 12.814 38.817 13.5569V13.5478ZM40.3127 13.6212C40.5301 12.649 39.6419 13.5387 39.5059 13.2176C39.2884 12.7132 39.4242 11.7043 38.5542 11.365C38.2188 11.2274 37.4302 11.4017 36.7594 12.0253C36.2881 12.4656 36.0524 13.08 35.9255 13.667C35.7894 14.254 35.6354 15.3363 36.6052 15.7123C36.9136 15.8498 37.1945 15.8865 37.4755 15.8682C38.4546 15.8131 39.1977 14.3181 39.7508 13.7312C40.1765 13.2634 40.2492 13.9055 40.3127 13.6212ZM28.9309 15.676C28.3055 15.6668 28.088 15.6668 27.3538 15.7035L27.3265 15.6485C27.39 15.3641 27.4625 15.0891 27.5259 14.8047L27.6074 14.4195C27.7435 13.8234 27.8794 13.1171 27.8884 12.9062C27.9065 12.7778 27.9428 12.4569 27.5893 12.4569C27.4352 12.4569 27.2722 12.5302 27.118 12.6035C27.0364 12.9246 26.8551 13.8234 26.7644 14.2269C26.5922 15.0891 26.5741 15.1899 26.4925 15.6119L26.4382 15.6668C25.7946 15.6577 25.568 15.6577 24.8247 15.6944L24.7884 15.6301C24.9154 15.1165 25.0332 14.6029 25.1511 14.0893C25.4593 12.7044 25.5318 12.1725 25.6223 11.4663L25.6767 11.4296C26.402 11.3287 26.5833 11.3012 27.3627 11.1453L27.4263 11.2187L27.3175 11.6589C27.4444 11.5764 27.5804 11.4938 27.7073 11.4296C28.0789 11.2461 28.4868 11.1911 28.7133 11.1911C29.0579 11.1911 29.4295 11.292 29.5925 11.6956C29.7376 12.0532 29.638 12.4935 29.4384 13.3648L29.3388 13.8051C29.1303 14.7772 29.1031 14.9515 28.9942 15.6118L28.9218 15.6668L28.9309 15.676ZM34.3617 8.08261L33.836 8.09183C32.4763 8.11017 31.9325 8.10096 31.715 8.07349C31.6968 8.17442 31.6606 8.34863 31.6606 8.34863C31.6606 8.34863 31.1711 10.6232 31.1711 10.6323C31.1711 10.6323 30.0109 15.4749 29.9565 15.7041C31.1439 15.6858 31.6243 15.6858 31.8328 15.7133C31.8782 15.484 32.15 14.1358 32.1591 14.1358C32.1591 14.1358 32.3948 13.1453 32.404 13.1086C32.404 13.1086 32.4763 13.0077 32.5488 12.9619H32.6576C33.6819 12.9619 34.8331 12.9619 35.7397 12.2924C36.3559 11.8338 36.773 11.1459 36.9633 10.3205C37.0086 10.1187 37.0449 9.88024 37.0449 9.63265C37.0449 9.3116 36.9814 8.99986 36.8001 8.75218C36.3377 8.10096 35.4222 8.09183 34.3617 8.08261ZM35.0415 10.4581C34.9328 10.9625 34.6065 11.3936 34.1895 11.5954C33.845 11.7696 33.4281 11.7879 32.993 11.7879H32.712L32.7302 11.6779C32.7302 11.6779 33.2469 9.40332 33.2469 9.41253L33.2649 9.29326L33.274 9.20154L33.4825 9.21997C33.4825 9.21997 34.5521 9.3116 34.5702 9.3116C34.9871 9.47669 35.1685 9.89858 35.0415 10.4581ZM46.1841 11.2187L46.1208 11.1453C45.3503 11.3012 45.2052 11.3287 44.4982 11.4297L44.4439 11.4846C44.4439 11.4938 44.4348 11.503 44.4348 11.5213V11.5122C43.9091 12.7503 43.918 12.4843 43.4922 13.4565C43.4922 13.4106 43.4922 13.3832 43.483 13.3373L43.3742 11.2278L43.3109 11.1544C42.495 11.3104 42.4769 11.3379 41.7336 11.4388L41.6792 11.4938C41.6701 11.5213 41.6701 11.5488 41.6701 11.5763L41.6792 11.5855C41.7698 12.0716 41.7517 11.9615 41.8424 12.7228C41.8877 13.0988 41.942 13.4749 41.9873 13.8417C42.0599 14.4654 42.1052 14.768 42.1959 15.7127C41.6881 16.5564 41.5703 16.8775 41.0809 17.6202L41.1081 17.6936C41.8425 17.6662 42.0056 17.6662 42.5494 17.6662L42.6673 17.5286C43.0751 16.6391 46.1934 11.2279 46.1934 11.2279L46.1841 11.2187ZM19.6682 11.8262C20.0852 11.5327 20.1395 11.1292 19.7861 10.9182C19.4325 10.7073 18.8071 10.7715 18.3901 11.065C17.9732 11.3494 17.9279 11.7528 18.2814 11.9729C18.6258 12.1748 19.2512 12.1197 19.6682 11.8262Z" fill="#FEFEFE" />
  <path d="M42.5467 17.6509L41.9393 18.7057C41.7489 19.0634 41.3864 19.3385 40.8244 19.3385L39.8545 19.3202L40.1355 18.3664H40.3258C40.4255 18.3664 40.498 18.3572 40.5524 18.3297C40.6068 18.3113 40.6341 18.2746 40.6793 18.2196L41.042 17.6418H42.5557L42.5467 17.6509Z" fill="#FEFEFE" />
</svg>