<svg width="18" height="18" viewBox="0 0 18 18" fill="none" xmlns="http://www.w3.org/2000/svg">
<path fill-rule="evenodd" clip-rule="evenodd" d="M12.9772 10.103C12.6176 9.64821 12 9.67164 11.5171 9.96002C10.7697 10.4063 9.91202 10.66 9 10.66C8.08798 10.66 7.23027 10.4063 6.48295 9.96001C6.00001 9.67164 5.38241 9.64821 5.02284 10.103C4.22963 11.1063 3.75 12.413 3.75 13.8419V14.4782C3.75 15.1812 4.27233 15.751 4.91667 15.751H13.0833C13.7277 15.751 14.25 15.1812 14.25 14.4782V13.8419C14.25 12.413 13.7704 11.1063 12.9772 10.103Z" fill="#9D9D9D"/>
<path d="M12 5.25101C12 6.90786 10.6569 8.25101 9 8.25101C7.34315 8.25101 6 6.90786 6 5.25101C6 3.59415 7.34315 2.25101 9 2.25101C10.6569 2.25101 12 3.59415 12 5.25101Z" fill="#9D9D9D"/>
</svg>
