<svg width="30" height="26" viewBox="0 0 30 26" fill="none" xmlns="http://www.w3.org/2000/svg">
  <path d="M3 0.9H27C28.1598 0.9 29.1 1.8402 29.1 3V23C29.1 24.1598 28.1598 25.1 27 25.1H3C1.8402 25.1 0.9 24.1598 0.9 23V3C0.9 1.8402 1.8402 0.9 3 0.9Z" stroke="currentColor" stroke-width="1"></path>
  <path d="M21 6.9H29.1V18.1H21C19.8402 18.1 18.9 17.1598 18.9 16V9C18.9 7.8402 19.8402 6.9 21 6.9Z" stroke="currentColor" stroke-width="1"></path>
  <path d="M26.1 12C26.1 13.1598 25.1598 14.1 24 14.1C22.8402 14.1 21.9 13.1598 21.9 12C21.9 10.8402 22.8402 9.9 24 9.9C25.1598 9.9 26.1 10.8402 26.1 12Z" stroke="currentColor" stroke-width="1"></path>
</svg>