<svg width="125" height="125" viewBox="0 0 111 68" fill="none" xmlns="http://www.w3.org/2000/svg">
  <path fill-rule="evenodd" clip-rule="evenodd" d="M87.98 13.286c-17.938-17.715-47.022-17.715-64.96 0l-2.37 2.34a2.248 2.248 0 0 0 0 3.208l7.385 7.293a1.159 1.159 0 0 0 1.624 0l3.182-3.142c12.514-12.358 32.804-12.358 45.318 0l2.971 2.934a1.159 1.159 0 0 0 1.624 0l7.386-7.294a2.248 2.248 0 0 0 0-3.207l-2.16-2.132zm21.847 21.574-6.573-6.491a2.317 2.317 0 0 0-3.248 0L78.971 49.14a.58.58 0 0 1-.812 0L57.124 28.37a2.317 2.317 0 0 0-3.248 0L32.84 49.14a.58.58 0 0 1-.812 0L10.994 28.37a2.317 2.317 0 0 0-3.248 0l-6.573 6.49a2.248 2.248 0 0 0 0 3.208L30.81 67.336a2.317 2.317 0 0 0 3.248 0l21.035-20.773a.58.58 0 0 1 .812 0l21.035 20.773a2.317 2.317 0 0 0 3.248 0l29.638-29.269a2.248 2.248 0 0 0 0-3.207z" fill="#4296FF" />
</svg>