<svg xmlns="http://www.w3.org/2000/svg" width="250" height="250" viewBox="0 0 250 250" fill="none"><path fill-rule="evenodd" clip-rule="evenodd" d="M125 0c69.036 0 125 55.964 125 125s-55.964 125-125 125S0 194.036 0 125 55.964 0 125 0zm38.584 174.125h-.026a10.446 10.446 0 0 1-6.415-2.198 10.663 10.663 0 0 1-2.321-2.484 10.823 10.823 0 0 1-1.455-3.175 29.56 29.56 0 0 0-28.494-21.692 29.56 29.56 0 0 0-28.494 21.692 10.829 10.829 0 0 1-1.455 3.175 10.65 10.65 0 0 1-2.322 2.484 10.442 10.442 0 0 1-6.414 2.198h-.027a10.53 10.53 0 0 1-10.538-10.539v-.026a10.444 10.444 0 0 1 2.197-6.415 10.682 10.682 0 0 1 2.485-2.322 10.843 10.843 0 0 1 3.175-1.455c12.803-3.557 21.671-15.205 21.692-28.493-.018-13.289-8.887-24.94-21.692-28.494a10.822 10.822 0 0 1-3.175-1.455 10.668 10.668 0 0 1-2.485-2.322 10.444 10.444 0 0 1-2.197-6.414v-.027a10.529 10.529 0 0 1 10.539-10.538h.026c2.323-.001 4.58.772 6.415 2.197a10.67 10.67 0 0 1 2.321 2.484 10.822 10.822 0 0 1 1.455 3.176c3.558 12.803 15.206 21.671 28.494 21.692 13.289-.019 24.939-8.888 28.494-21.692.31-1.13.802-2.203 1.455-3.175a10.663 10.663 0 0 1 2.322-2.485 10.443 10.443 0 0 1 6.414-2.197h.027a10.53 10.53 0 0 1 10.538 10.538v.027a10.448 10.448 0 0 1-2.197 6.414 10.673 10.673 0 0 1-2.485 2.322 10.817 10.817 0 0 1-3.175 1.455 29.56 29.56 0 0 0-21.692 28.494 29.56 29.56 0 0 0 21.692 28.494c1.13.31 2.203.801 3.175 1.455a10.67 10.67 0 0 1 2.485 2.322 10.446 10.446 0 0 1 2.197 6.414v.026a10.527 10.527 0 0 1-10.538 10.539h-.001zm-47.856-52.305a11.25 11.25 0 0 1 10.394-6.945c6.21.007 11.242 5.04 11.249 11.25a11.251 11.251 0 0 1-19.205 7.955 11.251 11.251 0 0 1-2.438-12.26z" fill="url(#paint0_linear_1071_517)"/><path fill-rule="evenodd" clip-rule="evenodd" d="M64.367 75.624c6.213 0 11.25-5.036 11.25-11.25 0-6.213-5.037-11.25-11.25-11.25s-11.25 5.037-11.25 11.25c0 6.214 5.037 11.25 11.25 11.25zm99.186 98.5h.027a10.527 10.527 0 0 0 10.538-10.538v-.027a10.434 10.434 0 0 0-2.197-6.414 10.646 10.646 0 0 0-2.484-2.322 10.823 10.823 0 0 0-3.175-1.455c-12.816-3.539-21.693-15.198-21.693-28.494s8.877-24.955 21.693-28.494c1.13-.31 2.202-.801 3.175-1.455a10.648 10.648 0 0 0 2.484-2.321 10.435 10.435 0 0 0 2.197-6.415v-.026a10.53 10.53 0 0 0-10.538-10.539h-.026a10.448 10.448 0 0 0-6.415 2.197 10.68 10.68 0 0 0-2.321 2.485 10.82 10.82 0 0 0-1.456 3.175 29.613 29.613 0 0 1-28.494 21.692c-13.288-.021-24.936-8.889-28.493-21.692a10.822 10.822 0 0 0-1.456-3.175 10.668 10.668 0 0 0-2.321-2.485 10.445 10.445 0 0 0-6.414-2.197h-.027a10.529 10.529 0 0 0-10.538 10.538v.027a10.445 10.445 0 0 0 2.197 6.414 10.67 10.67 0 0 0 2.484 2.322 10.823 10.823 0 0 0 3.175 1.455 29.616 29.616 0 0 1 21.693 28.494 29.623 29.623 0 0 1-21.693 28.493 10.82 10.82 0 0 0-3.175 1.456 10.68 10.68 0 0 0-2.484 2.321 10.447 10.447 0 0 0-2.198 6.415v.026a10.53 10.53 0 0 0 10.539 10.539h.026c2.323.001 4.58-.772 6.414-2.197a10.673 10.673 0 0 0 2.322-2.485 10.82 10.82 0 0 0 1.455-3.175 29.56 29.56 0 0 1 56.988 0c.31 1.13.801 2.203 1.455 3.175a10.67 10.67 0 0 0 2.322 2.485 10.446 10.446 0 0 0 6.414 2.197zM75.617 185.5c0 6.213-5.037 11.25-11.25 11.25s-11.25-5.037-11.25-11.25c0-6.214 5.037-11.25 11.25-11.25s11.25 5.036 11.25 11.25zM185.614 75.624c6.213 0 11.25-5.036 11.25-11.25 0-6.213-5.037-11.25-11.25-11.25s-11.25 5.037-11.25 11.25c0 6.214 5.037 11.25 11.25 11.25zm11.25 109.876c0 6.213-5.037 11.25-11.25 11.25s-11.25-5.037-11.25-11.25c0-6.214 5.037-11.25 11.25-11.25s11.25 5.036 11.25 11.25zm-81.137-63.681a11.248 11.248 0 0 1 10.393-6.944c6.21.007 11.243 5.039 11.25 11.249a11.25 11.25 0 1 1-21.643-4.305z" fill="url(#paint1_linear_1071_517)"/><defs><linearGradient id="paint0_linear_1071_517" x1="0" y1="0" x2="0" y2="250" gradientUnits="userSpaceOnUse"><stop stop-color="#03468A"/><stop offset="1"/></linearGradient><linearGradient id="paint1_linear_1071_517" x1="16.299" y1="22.565" x2="16.299" y2="239.765" gradientUnits="userSpaceOnUse"><stop stop-color="#00F1F1"/><stop offset=".475" stop-color="#14ADB0"/><stop offset="1" stop-color="#010762"/></linearGradient></defs></svg>